<?xml version="1.0" encoding="utf-8"?>
<!-- Generator: Adobe Illustrator 17.0.2, SVG Export Plug-In . SVG Version: 6.00 Build 0)  -->
<!DOCTYPE svg PUBLIC "-//W3C//DTD SVG 1.1//EN" "http://www.w3.org/Graphics/SVG/1.1/DTD/svg11.dtd">
<svg version="1.1" id="Layer_1" xmlns="http://www.w3.org/2000/svg" xmlns:xlink="http://www.w3.org/1999/xlink" x="0px" y="0px"
	 width="60px" height="60px" viewBox="0 0 60 60" enable-background="new 0 0 60 60" xml:space="preserve">
<g>
	<rect fill-rule="evenodd" clip-rule="evenodd" fill="#57A900" width="60" height="60"/>
	<rect x="14" y="20" fill="none" width="32.258" height="20"/>
	<path fill-rule="evenodd" clip-rule="evenodd" fill="#FFFFFF" d="M19.184,39.767c-0.727-0.155-1.396-0.384-2.007-0.685
		c-0.611-0.301-1.174-0.662-1.688-1.082c-0.514-0.42-1.01-0.895-1.489-1.425l2.605-2.712c0.727,0.694,1.458,1.242,2.193,1.644
		c0.736,0.402,1.635,0.603,2.698,0.603c0.798,0,1.529-0.16,2.193-0.479c0.665-0.319,1.232-0.753,1.701-1.301
		c0.47-0.548,0.837-1.187,1.103-1.918c0.266-0.73,0.399-1.507,0.399-2.329v-0.055c0-0.822-0.133-1.593-0.399-2.315
		c-0.266-0.721-0.638-1.356-1.117-1.904c-0.479-0.548-1.05-0.977-1.715-1.288c-0.665-0.31-1.387-0.466-2.167-0.466
		c-0.939,0-1.785,0.192-2.539,0.575c-0.753,0.384-1.493,0.913-2.22,1.589l-2.605-3.096c0.425-0.438,0.886-0.84,1.382-1.205
		c0.496-0.365,1.037-0.676,1.622-0.932c0.585-0.256,1.236-0.456,1.954-0.603c0.718-0.146,1.511-0.219,2.379-0.219
		c1.436,0,2.747,0.26,3.935,0.781c1.188,0.521,2.207,1.233,3.057,2.137c0.851,0.904,1.515,1.955,1.994,3.151
		c0.479,1.196,0.718,2.479,0.718,3.849v0.055c0,1.37-0.239,2.658-0.718,3.863c-0.479,1.205-1.143,2.251-1.994,3.137
		c-0.851,0.886-1.861,1.585-3.031,2.096C24.262,39.744,22.995,40,21.63,40C20.726,40,19.911,39.922,19.184,39.767"/>
	<path fill-rule="evenodd" clip-rule="evenodd" fill="#FFFFFF" d="M38.253,40c-1.344,0-2.592-0.256-3.744-0.767
		c-1.152-0.511-2.147-1.21-2.985-2.096c-0.838-0.886-1.492-1.932-1.964-3.137c-0.471-1.205-0.707-2.493-0.707-3.863v-0.055
		c0-1.37,0.236-2.653,0.707-3.849c0.471-1.196,1.126-2.247,1.964-3.151c0.838-0.904,1.841-1.616,3.011-2.137
		c1.169-0.521,2.461-0.781,3.875-0.781c0.855,0,1.636,0.073,2.343,0.219c0.707,0.146,1.348,0.347,1.924,0.603
		c0.576,0.256,1.108,0.566,1.597,0.932c0.488,0.365,0.943,0.767,1.361,1.205l-2.566,3.096c-0.716-0.676-1.444-1.205-2.186-1.589
		c-0.742-0.384-1.575-0.575-2.5-0.575c-0.768,0-1.479,0.155-2.134,0.466c-0.655,0.311-1.217,0.74-1.689,1.288
		c-0.471,0.548-0.838,1.183-1.1,1.904c-0.262,0.722-0.393,1.493-0.393,2.315v0.055c0,0.822,0.131,1.598,0.393,2.329
		c0.262,0.731,0.624,1.37,1.087,1.918c0.462,0.548,1.021,0.982,1.676,1.301c0.655,0.32,1.375,0.479,2.16,0.479
		c1.047,0,1.933-0.201,2.657-0.603c0.724-0.402,1.444-0.95,2.16-1.644l2.566,2.712c-0.472,0.53-0.96,1.005-1.466,1.425
		c-0.507,0.42-1.06,0.781-1.663,1.082c-0.602,0.301-1.261,0.53-1.977,0.685C39.946,39.922,39.143,40,38.253,40"/>
</g>
</svg>
