<?xml version="1.0" encoding="UTF-8"?>
<svg width="32px" height="20px" viewBox="0 0 32 20" version="1.1" xmlns="http://www.w3.org/2000/svg" xmlns:xlink="http://www.w3.org/1999/xlink">
    <!-- Generator: Sketch 48.2 (47327) - http://www.bohemiancoding.com/sketch -->
    <title>icon/logo-white</title>
    <desc>Created with Sketch.</desc>
    <defs>
        <polygon id="path-1" points="8.59052945 0.164383562 17.0472436 0.164383562 17.0472436 20 8.59052945 20 0.133815273 20 0.133815273 0.164383562 8.59052945 0.164383562"></polygon>
    </defs>
    <g id="menu/nav-bar-white-default" stroke="none" stroke-width="1" fill="none" fill-rule="evenodd" transform="translate(-14.000000, -20.000000)">
        <g id="icon/logo-white" transform="translate(14.000000, 20.000000)">
            <g>
                <g id="Group-3" transform="translate(14.720000, 0.000000)">
                    <mask id="mask-2" fill="white">
                        <use xlink:href="#path-1"></use>
                    </mask>
                    <g id="Clip-2"></g>
                    <path d="M9.533088,20 C8.18865164,20 6.941088,19.7438356 5.789088,19.2328767 C4.637088,18.7216438 3.64217891,18.0230137 2.80436073,17.1369863 C1.96654255,16.2512329 1.31199709,15.2054795 0.840724364,14 C0.369451636,12.7945205 0.133815273,11.5068493 0.133815273,10.1369863 L0.133815273,10.0821918 C0.133815273,8.71232877 0.369451636,7.42931507 0.840724364,6.23287671 C1.31199709,5.03671233 1.96654255,3.98630137 2.80436073,3.08219178 C3.64217891,2.17808219 4.645728,1.46575342 5.81526982,0.945205479 C6.98454982,0.424657534 8.27636073,0.164383562 9.69017891,0.164383562 C10.5450153,0.164383562 11.3265425,0.237534247 12.0334516,0.383561644 C12.7403607,0.529863014 13.3818153,0.730684932 13.9578153,0.98630137 C14.5338153,1.24219178 15.0660916,1.55260274 15.5549062,1.91780822 C16.0431971,2.28328767 16.4974516,2.68493151 16.9163607,3.12328767 L14.3502807,6.21917808 C13.6347316,5.54356164 12.9060916,5.01369863 12.1643607,4.63013699 C11.4221062,4.24657534 10.5890007,4.05479452 9.66399709,4.05479452 C8.89556073,4.05479452 8.18472436,4.21013699 7.53017891,4.52054795 C6.87563345,4.83123288 6.31272436,5.26027397 5.84145164,5.80821918 C5.37017891,6.35616438 5.00363345,6.9909589 4.74181527,7.71232877 C4.47999709,8.4339726 4.349088,9.20547945 4.349088,10.0273973 L4.349088,10.0821918 C4.349088,10.9041096 4.47999709,11.6805479 4.74181527,12.4109589 C5.00363345,13.1416438 5.365728,13.7808219 5.82836073,14.3287671 C6.29046982,14.8767123 6.84945164,15.3106849 7.50399709,15.630137 C8.15854255,15.949863 8.87854255,16.109589 9.66399709,16.109589 C10.7112698,16.109589 11.5970007,15.9087671 12.3214516,15.5068493 C13.0456407,15.1052055 13.7656407,14.5572603 14.4811898,13.8630137 L17.0472698,16.5753425 C16.5757353,17.1052055 16.0869207,17.58 15.581088,18 C15.0744698,18.420274 14.5207244,18.7808219 13.9185425,19.0821918 C13.3163607,19.3835616 12.6573644,19.6120548 11.9418153,19.7671233 C11.2257425,19.9219178 10.4232698,20 9.533088,20" id="Fill-1" fill="#FEFEFE" mask="url(#mask-2)"></path>
                </g>
                <g id="Group-6" fill="#FEFEFE">
                    <path d="M5.18413292,19.7670959 C4.45757538,19.6120274 3.78844062,19.3835342 3.17699446,19.0821644 C2.56554831,18.7807945 2.00328369,18.4202466 1.48887138,17.9999726 C0.974990769,17.5799726 0.478656,17.1051781 0.000132923077,16.5753151 L2.60542523,13.8629863 C3.33224862,14.5572329 4.06332554,15.1051781 4.798656,15.5068219 C5.53425231,15.9087397 6.43360985,16.1095616 7.49699446,16.1095616 C8.29453292,16.1095616 9.02560985,15.9498356 9.69022523,15.6301096 C10.3548406,15.3106575 10.9221563,14.8766849 11.3916406,14.3287397 C11.8613908,13.7807945 12.229056,13.1416164 12.4949022,12.4109315 C12.7607483,11.6805205 12.8936714,10.9040822 12.8936714,10.0821644 L12.8936714,10.0273699 C12.8936714,9.20545205 12.7607483,8.43394521 12.4949022,7.71230137 C12.229056,6.99093151 11.8568714,6.35613699 11.3783483,5.80819178 C10.8998252,5.26024658 10.328256,4.83120548 9.66364062,4.52052055 C8.99902523,4.21010959 8.27698708,4.05476712 7.49699446,4.05476712 C6.55776,4.05476712 5.71157169,4.24654795 4.95816369,4.63010959 C4.20502154,5.01367123 3.46517169,5.54353425 2.73834831,6.21915068 L0.133056,3.12326027 C0.558409846,2.68490411 1.01938708,2.28326027 1.515456,1.91778082 C2.01179077,1.55257534 2.552256,1.24216438 3.13711754,0.986273973 C3.72197908,0.730657534 4.37330215,0.529835616 5.09108677,0.383534247 C5.80887138,0.237506849 6.60215631,0.164356164 7.47040985,0.164356164 C8.90597908,0.164356164 10.217664,0.424630137 11.4049329,0.945178082 C12.5924677,1.46572603 13.611456,2.17805479 14.4621637,3.08216438 C15.3128714,3.98627397 15.9774868,5.03668493 16.4560098,6.23284932 C16.9345329,7.42928767 17.1737945,8.71230137 17.1737945,10.0821644 L17.1737945,10.1369589 C17.1737945,11.5068219 16.9345329,12.7944932 16.4560098,13.9999726 C15.9774868,15.2054521 15.3128714,16.2512055 14.4621637,17.1369589 C13.611456,18.0229863 12.6012406,18.7216164 11.4315175,19.2328493 C10.2617945,19.7440822 8.99477169,19.9999726 7.62991754,19.9999726 C6.72604062,19.9999726 5.91095631,19.9218904 5.18413292,19.7670959" id="Fill-4"></path>
                </g>
            </g>
        </g>
    </g>
</svg>