<?xml version="1.0" standalone="no"?>
<!DOCTYPE svg PUBLIC "-//W3C//DTD SVG 1.1//EN" "http://www.w3.org/Graphics/SVG/1.1/DTD/svg11.dtd" >
<svg xmlns="http://www.w3.org/2000/svg" xmlns:xlink="http://www.w3.org/1999/xlink" version="1.1">
<metadata>
Created by FontForge 20170731 at Wed Dec  9 04:39:59 2009
 By ,,,
Copyright (c) 2009 by Jos Buivenga. All rights reserved.
</metadata>
<defs>
<font id="MuseoSlab-300Italic" horiz-adv-x="565" >
  <font-face 
    font-family="Museo Slab 300"
    font-weight="300"
    font-style="italic"
    font-stretch="normal"
    units-per-em="1000"
    panose-1="2 0 0 0 0 0 0 0 0 0"
    ascent="750"
    descent="-250"
    x-height="503"
    cap-height="703"
    bbox="-181 -217 1062 888"
    underline-thickness="50"
    underline-position="-200"
    unicode-range="U+0020-FB04"
  />
<missing-glyph horiz-adv-x="510" 
d="M-53 0v700h500v-700h-500zM197 395l170 255h-340zM397 95v510l-170 -255zM-3 95l170 255l-170 255v-510zM27 50h340l-170 255z" />
    <glyph glyph-name="f_f" unicode="ff" horiz-adv-x="641" 
d="M60 0l86 447h-89l10 56h89l5 22q12 58 38 97.5t58.5 56.5t58 23t50.5 6l37 -3l-13 -58q-9 2 -25 2q-109 0 -135 -123l-5 -23h243l5 22q12 58 37.5 97.5t58.5 56.5t58 23t50 6l37 -3l-13 -58q-9 2 -25 2q-108 0 -134 -123l-5 -23h127l-10 -56h-128l-86 -447h-69l86 447
h-242l-87 -447h-68z" />
    <glyph glyph-name="fi" unicode="fi" horiz-adv-x="597" 
d="M60 0l87 447h-90l10 56h90l5 22q12 58 37.5 97.5t58.5 56.5t58 23t50 6l37 -3l-13 -58q-9 2 -25 2q-109 0 -135 -123l-5 -23h298l-73 -373q-3 -17 -3 -29q0 -28 12.5 -37.5t34.5 -9.5l26 2l-11 -56q-22 -2 -36 -2q-97 0 -97 88q0 14 5 37l63 324h-229l-87 -447h-68z
M473 618l17 85h77l-18 -85h-76z" />
    <glyph glyph-name="fl" unicode="fl" horiz-adv-x="603" 
d="M60 0l86 447h-90l10 56h90l4 19q39 195 244 195q41 0 81 -5.5t59 -11.5l20 -6l-108 -560q-4 -24 -4 -33q0 -20 7.5 -30.5t16.5 -12.5t24 -2l26 2l-12 -58q-18 -3 -35 -3q-98 0 -98 91q0 15 5 38l102 524q-28 11 -89 11q-29 0 -53 -5t-48.5 -19t-42.5 -42.5t-26 -71.5
l-4 -20h128l-10 -56h-128l-87 -447h-68z" />
    <glyph glyph-name="f_f_i" unicode="ffi" horiz-adv-x="908" 
d="M60 0l86 447h-89l10 56h89l5 22q12 58 38 97.5t58.5 56.5t58 23t50.5 6l37 -3l-13 -58q-9 2 -25 2q-109 0 -135 -123l-5 -23h243l5 22q12 58 37.5 97.5t58.5 56.5t58 23t50 6l37 -3l-13 -58q-9 2 -25 2q-108 0 -134 -123l-5 -23h297l-73 -373q-3 -17 -3 -29
q0 -28 13 -37.5t35 -9.5l25 2l-11 -56q-22 -2 -35 -2q-98 0 -98 88q0 14 5 37l63 324h-229l-86 -447h-69l86 447h-242l-87 -447h-68zM784 618l17 85h77l-17 -85h-77z" />
    <glyph glyph-name="f_f_l" unicode="ffl" horiz-adv-x="915" 
d="M60 0l86 447h-89l10 56h89l5 22q12 58 38 97.5t58.5 56.5t58 23t50.5 6l37 -3l-13 -58q-9 2 -25 2q-109 0 -135 -123l-5 -23h243l4 19q38 195 243 195q41 0 81.5 -5.5t59.5 -11.5l20 -6l-108 -560q-5 -20 -5 -33q0 -20 7.5 -30.5t16.5 -12.5t24 -2l26 2l-12 -58
q-18 -3 -35 -3q-97 0 -97 91q0 10 4 38l102 524q-27 11 -89 11q-29 0 -53 -5t-48.5 -19t-42.5 -42.5t-26 -71.5l-3 -20h127l-10 -56h-128l-86 -447h-69l86 447h-242l-87 -447h-68z" />
    <glyph glyph-name="f_j" unicode="fj" horiz-adv-x="576" 
d="M60 0l86 447h-89l10 56h89l5 22q12 58 38 97.5t58.5 56.5t58 23t50.5 6l37 -3l-13 -58q-9 2 -25 2q-109 0 -135 -123l-5 -23h303l-101 -519q-12 -59 -37 -100t-56.5 -59t-56.5 -24.5t-51 -6.5l-40 3l12 57q8 -2 22 -2q18 0 35.5 4.5t39 17t39 40.5t25.5 68l89 465h-233
l-87 -447h-68zM479 618l16 85h74l-17 -85h-73z" />
    <glyph glyph-name=".notdef" horiz-adv-x="510" 
d="M-53 0v700h500v-700h-500zM197 395l170 255h-340zM397 95v510l-170 -255zM-3 95l170 255l-170 255v-510zM27 50h340l-170 255z" />
    <glyph glyph-name=".null" horiz-adv-x="0" 
 />
    <glyph glyph-name="nonmarkingreturn" horiz-adv-x="333" 
 />
    <glyph glyph-name="space" unicode=" " horiz-adv-x="250" 
 />
    <glyph glyph-name="exclam" unicode="!" horiz-adv-x="238" 
d="M65 184l98 519h71l-105 -519h-64zM22 0l16 79h79l-16 -79h-79z" />
    <glyph glyph-name="quotedbl" unicode="&#x22;" horiz-adv-x="319" 
d="M233 512l38 201h59l-39 -201h-58zM111 512l39 201h59l-39 -201h-59z" />
    <glyph glyph-name="numbersign" unicode="#" horiz-adv-x="726" 
d="M96 0l73 195h-141l21 56h140l73 196h-140l20 56h140l74 200h63l-74 -200h173l74 200h62l-74 -200h139l-20 -56h-139l-73 -196h138l-20 -56h-139l-72 -195h-63l73 195h-173l-72 -195h-63zM252 251h172l73 196h-173z" />
    <glyph glyph-name="dollar" unicode="$" horiz-adv-x="532" 
d="M10 93l45 45q7 -8 20 -20t55.5 -31.5t88.5 -19.5q69 0 122 37.5t53 94.5q0 39 -30.5 68.5t-73.5 50t-86 42.5t-73.5 59.5t-30.5 88.5q0 76 61.5 129.5t159.5 60.5l22 109h56l-21 -110q45 -4 83.5 -20t54.5 -31l15 -14l-40 -51q-6 6 -17 15t-50 24.5t-82 15.5
q-74 0 -122.5 -36.5t-48.5 -89.5q0 -38 30.5 -66.5t73.5 -48t86.5 -41.5t74 -58.5t30.5 -87.5q0 -80 -63.5 -138.5t-160.5 -65.5l-20 -107h-56l20 108q-34 3 -65 13.5t-50.5 23t-34 24t-20.5 19.5z" />
    <glyph glyph-name="percent" unicode="%" horiz-adv-x="722" 
d="M226 437q-56 0 -90 33.5t-34 89.5q0 59 50 107t113 48q56 0 89.5 -34t33.5 -88q0 -61 -49.5 -108.5t-112.5 -47.5zM3 0l665 703h77l-665 -703h-77zM230 493q39 0 68.5 30t29.5 70q0 28 -18.5 47t-48.5 19q-38 0 -68.5 -30.5t-30.5 -69.5q0 -28 19 -47t49 -19zM356 111
q0 59 50 107t113 48q56 0 89.5 -34t33.5 -88q0 -61 -49.5 -108.5t-112.5 -47.5q-56 0 -90 33.5t-34 89.5zM416 110q0 -29 19 -47.5t50 -18.5q39 0 68.5 29.5t29.5 69.5q0 29 -19 48t-49 19q-38 0 -68.5 -30.5t-30.5 -69.5z" />
    <glyph glyph-name="ampersand" unicode="&#x26;" horiz-adv-x="649" 
d="M35 166q0 72 47 133t122 80v2q-3 1 -8 3.5t-17 12t-21.5 22t-17.5 35.5t-8 50q0 92 68.5 151.5t167.5 59.5q22 0 44 -3.5t34 -6.5l11 -3l-29 -57q-29 8 -61 8q-66 0 -115 -41.5t-49 -108.5q0 -98 130 -98h148l19 100h69l-19 -100h95l-12 -60h-95l-21 -104
q-49 -253 -270 -253q-99 0 -155.5 49t-56.5 129zM107 174q0 -56 37 -89.5t104 -33.5q163 0 201 192l20 102h-148q-88 0 -151 -46t-63 -125z" />
    <glyph glyph-name="quotesingle" unicode="'" horiz-adv-x="199" 
d="M111 512l39 201h60l-39 -201h-60z" />
    <glyph glyph-name="parenleft" unicode="(" horiz-adv-x="304" 
d="M118 -95q-48 127 -48 266q0 312 203 559h66q-207 -261 -207 -561q0 -137 47 -264h-61z" />
    <glyph glyph-name="parenright" unicode=")" horiz-adv-x="307" 
d="M-24 -95q207 261 207 561q0 137 -47 264h61q49 -130 49 -266q0 -311 -204 -559h-66z" />
    <glyph glyph-name="asterisk" unicode="*" horiz-adv-x="480" 
d="M160 337l-48 39l118 122v2l-136 41l32 61l133 -53l24 154h68l-36 -154l156 52l9 -63l-158 -44v-2l68 -118l-55 -38l-63 127h-2z" />
    <glyph glyph-name="plus" unicode="+" horiz-adv-x="606" 
d="M215 0l50 255h-231l11 58h231l50 255h61l-50 -255h230l-11 -58h-229l-51 -255h-61z" />
    <glyph glyph-name="comma" unicode="," horiz-adv-x="250" 
d="M57 82h77l-126 -211h-61z" />
    <glyph glyph-name="hyphen" unicode="-" horiz-adv-x="493" 
d="M96 253l11 62h284l-11 -62h-284z" />
    <glyph glyph-name="period" unicode="." horiz-adv-x="245" 
d="M28 0l15 83h82l-16 -83h-81z" />
    <glyph glyph-name="slash" unicode="/" horiz-adv-x="416" 
d="M-18 -42l406 784h68l-406 -784h-68z" />
    <glyph glyph-name="zero" unicode="0" horiz-adv-x="623" 
d="M65 215q0 47 7 99.5t22 110t40.5 108.5t59.5 92t83 65.5t106 24.5q198 0 198 -228q0 -58 -9.5 -121.5t-33.5 -132t-59 -122t-91 -88.5t-125 -35q-198 0 -198 227zM136 215q0 -163 128 -163q52 0 95.5 30.5t70.5 77.5t45.5 107t26 115t7.5 104q0 165 -128 165
q-62 0 -111 -43t-77 -110.5t-42.5 -140.5t-14.5 -142z" />
    <glyph glyph-name="one" unicode="1" horiz-adv-x="454" 
d="M-3 0l11 60h158l99 508l10 44h-2q-14 -17 -36 -35l-96 -80l-38 48l192 158h64l-125 -643h154l-12 -60h-379z" />
    <glyph glyph-name="two" unicode="2" horiz-adv-x="577" 
d="M6 0q1 60 27 110.5t66.5 87t89 69t97 62t88.5 60t65 69.5t25 83q0 50 -32 80t-90 30q-29 0 -58 -10t-50 -24t-37.5 -28t-24.5 -24l-9 -10l-48 38q4 5 11 13t30.5 29t48.5 37.5t63.5 29.5t77.5 13q90 0 141 -46.5t51 -122.5q0 -50 -22.5 -94t-60 -77.5t-82.5 -63.5
t-91.5 -58t-86.5 -56t-69 -63.5t-37 -73.5h323l20 98h63l-31 -158h-458z" />
    <glyph glyph-name="three" unicode="3" horiz-adv-x="564" 
d="M6 84l45 47q2 -3 7 -8.5t21 -19t34 -24t45.5 -19t56.5 -8.5q79 0 139.5 53t60.5 128q0 60 -41.5 91.5t-106.5 31.5l-47 -3l-11 42l232 227l28 21v2q-20 -2 -33 -2h-229l-19 -96h-64l31 156h415l-9 -49l-254 -245q29 -1 57.5 -10t57.5 -27t47 -52t18 -80q0 -102 -79 -177
t-192 -75q-38 0 -74 10t-59.5 24t-41.5 28t-27 24z" />
    <glyph glyph-name="four" unicode="4" horiz-adv-x="589" 
d="M11 195l8 45l433 463h77l-87 -449h100l-12 -59h-100l-38 -195h-69l38 195h-350zM109 254h264l62 317l12 46h-2q-14 -21 -31 -39l-305 -322v-2z" />
    <glyph glyph-name="five" unicode="5" horiz-adv-x="559" 
d="M11 80l45 44q6 -8 17.5 -20t51 -32t84.5 -20q83 0 147 57.5t64 137.5q0 62 -41.5 99t-109.5 37q-34 0 -68 -9.5t-51 -19.5l-17 -10l-43 17l105 342h344l-31 -156h-64l20 96h-219l-57 -183l-15 -42h2q44 26 111 26q91 0 148.5 -54.5t57.5 -141.5q0 -107 -85.5 -183.5
t-200.5 -76.5q-38 0 -72 9.5t-55.5 23t-37.5 27t-23 22.5z" />
    <glyph glyph-name="six" unicode="6" horiz-adv-x="594" 
d="M59 240q0 67 25.5 146.5t72 154t123 124.5t166.5 50q36 0 69.5 -7.5t48.5 -14.5l15 -7l-34 -58q-41 23 -100 23q-104 0 -181.5 -84t-110.5 -199h2q33 38 83 60t103 22q87 0 138.5 -50.5t51.5 -133.5q0 -108 -73 -193t-187 -85q-99 0 -155.5 69t-56.5 183zM130 227
q0 -69 38.5 -122t104.5 -53q78 0 132 61.5t54 149.5q0 58 -35 92t-98 34q-68 0 -132 -47t-64 -115z" />
    <glyph glyph-name="seven" unicode="7" horiz-adv-x="537" 
d="M52 0l422 613l25 30v2q-17 -2 -37 -2h-288l-19 -96h-64l31 156h471l-10 -48l-453 -655h-78z" />
    <glyph glyph-name="eight" unicode="8" horiz-adv-x="601" 
d="M40 171q0 123 157 223q4 2 5 3q-67 48 -67 119q0 78 66.5 138.5t173.5 60.5q92 0 143 -41.5t51 -113.5q0 -39 -17 -78.5t-43.5 -70.5t-41.5 -45.5t-29 -26.5q80 -52 80 -128q0 -93 -78.5 -158t-187.5 -65q-93 0 -152.5 49t-59.5 134zM385 368q18 14 38.5 34t47 65
t26.5 88q0 45 -33.5 71t-90.5 26q-72 0 -119.5 -39.5t-47.5 -95.5q0 -19 8.5 -35.5t19 -28t32 -25t35.5 -20.5t42.5 -20.5t41.5 -19.5zM113 176q0 -57 40.5 -91t101.5 -34q73 0 131.5 44t58.5 113q0 23 -10.5 42.5t-33.5 35.5t-42.5 26.5t-54 26.5t-51.5 25
q-140 -80 -140 -188z" />
    <glyph glyph-name="nine" unicode="9" horiz-adv-x="594" 
d="M40 17l32 58q40 -23 99 -23q104 0 181.5 84.5t110.5 199.5h-2q-33 -38 -83.5 -60t-103.5 -22q-87 0 -138 50t-51 133q0 108 73 193t187 85q99 0 155.5 -69t56.5 -183q0 -67 -25.5 -146.5t-72 -154t-123 -124.5t-166.5 -50q-36 0 -68.5 7t-47.5 15zM288 314q68 0 133 47.5
t65 114.5q0 69 -38 122t-104 53q-79 0 -133.5 -61.5t-54.5 -149.5q0 -58 35 -92t97 -34z" />
    <glyph glyph-name="colon" unicode=":" horiz-adv-x="300" 
d="M135 420l16 83h81l-16 -83h-81zM53 0l16 83h81l-16 -83h-81z" />
    <glyph glyph-name="semicolon" unicode=";" horiz-adv-x="305" 
d="M140 420l16 83h81l-16 -83h-81zM-30 -129l105 211h82l-126 -211h-61z" />
    <glyph glyph-name="less" unicode="&#x3c;" horiz-adv-x="606" 
d="M56 259v50l452 202v-67l-368 -159v-2l368 -159v-67z" />
    <glyph glyph-name="equal" unicode="=" horiz-adv-x="606" 
d="M65 342v58h466v-58h-466zM65 168v58h466v-58h-466z" />
    <glyph glyph-name="greater" unicode="&#x3e;" horiz-adv-x="606" 
d="M94 57v67l368 159v2l-368 159v67l452 -202v-50z" />
    <glyph glyph-name="question" unicode="?" horiz-adv-x="465" 
d="M139 184l9 45q9 46 37 84.5t60.5 64.5t64 51.5t52.5 57.5t21 70q0 41 -29.5 67.5t-79.5 26.5q-32 0 -64.5 -10.5t-49.5 -20.5l-16 -11l-29 54q8 6 23 15t58.5 23.5t84.5 14.5q79 0 127 -42t48 -110q0 -49 -22 -89.5t-55 -68.5t-67 -53.5t-62 -57.5t-35 -68l-9 -43h-67z
M98 0l17 79h78l-16 -79h-79z" />
    <glyph glyph-name="at" unicode="@" horiz-adv-x="773" 
d="M34 180q0 113 60.5 212t162.5 158t217 59q101 0 152.5 -44.5t51.5 -114.5q0 -23 -4 -39l-59 -306h71l-11 -56h-260q-79 0 -127 46.5t-48 115.5q0 89 71 155.5t174 66.5h126q1 12 1 21q0 41 -37.5 69t-108.5 28q-145 0 -253.5 -113t-108.5 -258q0 -109 66 -177t178 -68
l-12 -59q-132 0 -217 85t-85 219zM310 215q0 -48 31 -79t82 -31h124l53 275h-122q-66 0 -117 -50.5t-51 -114.5z" />
    <glyph glyph-name="A" unicode="A" horiz-adv-x="715" 
d="M-46 0l11 58h71l362 645h78l111 -645h71l-11 -58h-222l11 58h81l-31 181h-274l-101 -181h80l-12 -58h-225zM243 298h235l-48 288l-4 45h-2q-7 -22 -19 -45z" />
    <glyph glyph-name="B" unicode="B" horiz-adv-x="675" 
d="M-2 0l12 58h91l114 587h-92l12 58h306q69 0 115 -23q33 -16 52 -50.5t19 -79.5q0 -62 -33.5 -109t-89.5 -70v-2q41 -15 64 -51t23 -90q0 -67 -34.5 -121t-90.5 -81q-52 -26 -126 -26h-342zM237 398h170q62 0 105 41t43 106q0 55 -38 80q-29 18 -75 18h-157zM171 60h167
q60 0 104 26q33 20 55 59t22 83q0 52 -30.5 81t-84.5 29h-179z" />
    <glyph glyph-name="C" unicode="C" horiz-adv-x="743" 
d="M63 293q0 114 59.5 212t157 154t207.5 56q36 0 76 -6t83 -20t67 -43t16 -69l-15 -77h-67l11 58q5 26 -11 45.5t-45 29.5t-58.5 14.5t-58.5 4.5q-141 0 -245.5 -105.5t-104.5 -248.5q0 -110 64 -178.5t172 -68.5q70 0 138.5 25t77.5 71l11 55h67l-14 -74q-10 -48 -60 -81
t-107.5 -46t-113.5 -13q-140 0 -223.5 84.5t-83.5 220.5z" />
    <glyph glyph-name="D" unicode="D" horiz-adv-x="779" 
d="M-1 0l11 58h91l114 587h-91l11 58h289q92 0 158 -24q156 -60 156 -253q0 -123 -63 -230t-168 -156q-83 -40 -194 -40h-314zM171 60h134q101 0 172 35q85 44 137.5 132.5t52.5 192.5q0 152 -115 201q-52 22 -134 22h-133z" />
    <glyph glyph-name="E" unicode="E" horiz-adv-x="627" 
d="M-2 0l12 58h91l114 587h-92l12 58h496l-29 -146h-63l17 86h-271l-50 -259h265l-12 -60h-265l-52 -264h290l18 91h63l-30 -151h-514z" />
    <glyph glyph-name="F" unicode="F" horiz-adv-x="572" 
d="M-2 0l12 58h91l114 587h-92l12 58h473l-30 -150h-64l18 88h-247l-52 -265h257l-12 -60h-257l-50 -258h98l-12 -58h-259z" />
    <glyph glyph-name="G" unicode="G" horiz-adv-x="771" 
d="M62 291q0 173 125.5 298.5t302.5 125.5q61 0 120.5 -14.5t100 -47t32.5 -76.5l-15 -77h-67l10 53q7 33 -23 56.5t-71.5 33t-85.5 9.5q-147 0 -251.5 -107t-104.5 -249q0 -109 67.5 -177t181.5 -68q73 0 144.5 25t81.5 77l22 110h-147l11 58h214l-37 -185q-10 -52 -62 -87
t-111 -48t-120 -13q-146 0 -232 83.5t-86 219.5z" />
    <glyph glyph-name="H" unicode="H" horiz-adv-x="841" 
d="M-1 0l11 58h91l114 587h-91l11 58h254l-11 -58h-92l-51 -263h406l51 263h-92l12 58h254l-12 -58h-92l-114 -587h92l-12 -58h-254l12 58h92l51 264h-406l-52 -264h92l-11 -58h-253z" />
    <glyph glyph-name="I" unicode="I" horiz-adv-x="364" 
d="M-1 0l11 58h91l114 587h-91l11 58h254l-11 -58h-93l-114 -587h92l-11 -58h-253z" />
    <glyph glyph-name="J" unicode="J" horiz-adv-x="542" 
d="M3 147q0 16 3 35.5t6 31.5l3 11h68q-11 -38 -11 -69q0 -104 103 -104q53 0 96.5 34.5t58.5 109.5l86 449h-108l12 58h260l-12 -58h-82l-88 -455q-20 -104 -83.5 -153t-141.5 -49q-73 0 -121.5 39.5t-48.5 119.5z" />
    <glyph glyph-name="K" unicode="K" horiz-adv-x="670" 
d="M-1 0l11 58h91l114 587h-91l11 58h248l-11 -58h-87l-48 -248h98l220 248h-64l12 58h217l-11 -58h-72l-247 -275v-2q12 -8 25 -39l91 -227q9 -24 20.5 -35t38.5 -11l29 2l-11 -58q-1 0 -15.5 -1t-22.5 -1q-48 0 -70.5 21.5t-40.5 67.5l-84 217q-14 33 -52 33h-73l-54 -279
h91l-11 -58h-252z" />
    <glyph glyph-name="L" unicode="L" horiz-adv-x="590" 
d="M-1 0l11 58h91l114 585h-92l12 60h254l-12 -60h-92l-113 -583h280l24 117h63l-35 -177h-505z" />
    <glyph glyph-name="M" unicode="M" horiz-adv-x="944" 
d="M-18 0l12 58h90l161 587h-93l12 58h166l114 -460l7 -41h2q9 18 22 41l294 460h171l-11 -58h-92l-69 -587h91l-11 -58h-250l11 58h90l57 485l11 50h-2q-13 -30 -23 -47l-268 -412h-65l-108 412l-5 47h-2q-3 -32 -8 -50l-133 -485h90l-11 -58h-250z" />
    <glyph glyph-name="N" unicode="N" horiz-adv-x="833" 
d="M-2 0l12 58h91l114 587h-92l12 58h157l285 -558l14 -41h2q2 28 6 46l98 495h-93l11 58h255l-11 -58h-92l-126 -645h-67l-286 559l-13 41h-2q-2 -28 -6 -46l-96 -496h93l-12 -58h-254z" />
    <glyph glyph-name="O" unicode="O" horiz-adv-x="826" 
d="M61 292q0 112 61 210t159.5 155.5t207.5 57.5q133 0 216.5 -83t83.5 -213q0 -113 -61.5 -213.5t-160.5 -159t-207 -58.5q-133 0 -216 85.5t-83 218.5zM132 294q0 -107 65.5 -174.5t168.5 -67.5q86 0 167 48.5t132.5 133.5t51.5 182q0 104 -65.5 169.5t-169.5 65.5
q-135 0 -242.5 -106.5t-107.5 -250.5z" />
    <glyph glyph-name="P" unicode="P" horiz-adv-x="647" 
d="M-2 0l12 58h91l114 587h-92l12 58h316q66 0 102 -14q45 -18 71.5 -59t26.5 -102q0 -75 -40 -138.5t-107 -91.5q-45 -20 -114 -20h-176l-43 -220h92l-11 -58h-254zM226 338h160q52 0 90 17q46 21 74.5 66.5t28.5 101.5q0 79 -55 105q-32 15 -83 15h-156z" />
    <glyph glyph-name="Q" unicode="Q" horiz-adv-x="827" 
d="M61 292q0 111 60.5 209.5t158 156t203.5 57.5q136 0 221 -83t85 -213q0 -88 -37.5 -168t-101.5 -141l67 -85l-46 -41l-68 87q-110 -83 -237 -83q-136 0 -220.5 85t-84.5 219zM133 294q0 -107 65 -174.5t169 -67.5q105 0 196 69l-87 111l46 41l86 -112q109 111 109 255
q0 104 -65.5 169.5t-168.5 65.5q-135 0 -242.5 -106.5t-107.5 -250.5z" />
    <glyph glyph-name="R" unicode="R" horiz-adv-x="693" 
d="M-2 0l12 58h91l114 587h-92l12 58h300q85 0 130 -24q74 -41 74 -140q0 -86 -55.5 -151t-142.5 -78v-3q14 -17 19 -31l69 -174q9 -24 20.5 -35t38.5 -11l28 2l-11 -58l-15 -1q-14 -1 -23 -1q-48 0 -70 22t-39 67l-65 168q-10 26 -25 34.5t-44 8.5h-106l-47 -240h91
l-12 -58h-252zM230 358h163q70 0 122 49t52 124q0 65 -44 92q-33 20 -102 20h-136z" />
    <glyph glyph-name="S" unicode="S" horiz-adv-x="574" 
d="M35 134l12 66h67l-11 -58q-9 -46 34.5 -68t108.5 -22q76 0 128 41t52 108q0 34 -17.5 59.5t-45 40.5t-60.5 28t-66.5 27t-61 32.5t-45 50t-17.5 74.5q0 92 75.5 147t181.5 55q32 0 65 -7t62.5 -20.5t45.5 -36.5t10 -51l-14 -70h-67l10 51q5 25 -15.5 41.5t-48 22.5
t-58.5 6q-72 0 -122.5 -37.5t-50.5 -97.5q0 -31 17 -54.5t44.5 -37.5t61 -26.5t67 -27t61 -34t44.5 -52.5t17 -77q0 -97 -76.5 -158t-185.5 -61q-36 0 -72 7.5t-69.5 23.5t-50.5 46t-10 69z" />
    <glyph glyph-name="T" unicode="T" horiz-adv-x="655" 
d="M141 0l11 58h92l115 585h-197l-22 -114h-64l35 174h589l-34 -174h-63l22 114h-196l-115 -585h92l-11 -58h-254z" />
    <glyph glyph-name="U" unicode="U" horiz-adv-x="795" 
d="M112 188q0 24 10 84l73 373h-92l11 58h254l-11 -58h-92l-73 -374q-9 -57 -9 -75q0 -67 44.5 -105.5t122.5 -38.5q91 0 150 47q67 52 87 150l78 396h-92l11 58h254l-11 -58h-92l-80 -405q-27 -136 -123 -200q-78 -52 -184 -52t-171 54.5t-65 145.5z" />
    <glyph glyph-name="V" unicode="V" horiz-adv-x="704" 
d="M256 0l-104 645h-72l11 58h225l-12 -58h-80l80 -521l3 -46h3q8 24 19 46l284 521h-80l11 58h229l-11 -58h-72l-357 -645h-77z" />
    <glyph glyph-name="W" unicode="W" horiz-adv-x="999" 
d="M194 0l-37 645h-72l12 58h224l-12 -58h-84l26 -517l-2 -46h3q9 24 19 46l273 575h65l50 -575v-46h4q7 24 16 46l227 517h-84l11 58h229l-11 -58h-71l-290 -645h-82l-48 553v46h-3q-7 -25 -17 -46l-263 -553h-83z" />
    <glyph glyph-name="X" unicode="X" horiz-adv-x="648" 
d="M-30 0l12 58h70l243 300l-125 287h-68l12 58h219l-12 -58h-80l94 -223l10 -26h2q7 12 19 26l176 223h-76l11 58h223l-11 -58h-70l-246 -303l124 -284h71l-11 -58h-220l12 58h77l-93 219l-10 27h-2q-9 -13 -20 -27l-173 -219h77l-11 -58h-224z" />
    <glyph glyph-name="Y" unicode="Y" horiz-adv-x="644" 
d="M137 0l12 58h92l48 244l-141 343h-69l12 58h219l-12 -58h-78l102 -256l9 -27h2q9 14 19 27l204 256h-79l11 58h225l-12 -58h-69l-273 -343l-48 -244h92l-12 -58h-254z" />
    <glyph glyph-name="Z" unicode="Z" horiz-adv-x="626" 
d="M2 0l10 49l489 561l35 33v2q-19 -2 -39 -2h-302l-22 -114h-64l35 174h493l-9 -49l-491 -561l-35 -33v-2q19 2 39 2h317l23 117h64l-35 -177h-508z" />
    <glyph glyph-name="bracketleft" unicode="[" horiz-adv-x="299" 
d="M29 -95l160 825h135l-11 -56h-72l-138 -713h72l-11 -56h-135z" />
    <glyph glyph-name="backslash" unicode="\" horiz-adv-x="408" 
d="M235 -42l-101 784h61l101 -784h-61z" />
    <glyph glyph-name="bracketright" unicode="]" horiz-adv-x="299" 
d="M-5 -39h72l138 713h-73l12 56h135l-160 -825h-135z" />
    <glyph glyph-name="asciicircum" unicode="^" horiz-adv-x="606" 
d="M15 250l198 453h47l199 -453h-66l-156 370l-156 -370h-66z" />
    <glyph glyph-name="underscore" unicode="_" horiz-adv-x="546" 
d="M-42 0h516l-11 -58h-515z" />
    <glyph glyph-name="grave" unicode="`" horiz-adv-x="504" 
d="M208 752l-90 119h84l75 -119h-69z" />
    <glyph glyph-name="a" unicode="a" horiz-adv-x="547" 
d="M5 114q0 57 32.5 97.5t87.5 60.5t108.5 28t112.5 8h33q8 39 8 57q0 90 -103 90q-37 0 -74.5 -11.5t-57.5 -23.5l-19 -12l-21 55q9 6 24.5 14.5t63.5 23t95 14.5q75 0 118 -35t43 -105q0 -32 -25 -143.5t-25 -130.5q0 -28 12.5 -37.5t34.5 -9.5l26 2l-11 -56
q-20 -2 -38 -2q-46 0 -70.5 24.5t-20.5 73.5h-2q1 0 -7 -11t-24 -27t-37 -32t-52.5 -27t-64.5 -11q-63 0 -105 33.5t-42 92.5zM74 124q0 -35 23.5 -57.5t71.5 -22.5q66 0 121.5 59.5t73.5 131.5l5 22h-29q-266 0 -266 -133z" />
    <glyph glyph-name="b" unicode="b" horiz-adv-x="600" 
d="M35 0l125 647h-90l11 56h158l-47 -243l-13 -46h2q27 45 76.5 73t104.5 28q88 0 137 -54t49 -148q0 -140 -82.5 -232.5t-191.5 -92.5q-57 0 -99.5 27t-58.5 76h-2q0 -21 -5 -45l-9 -46h-65zM143 191q0 -63 31.5 -102.5t94.5 -39.5q79 0 144 72t65 187q0 68 -34 106.5
t-93 38.5q-89 0 -148.5 -80t-59.5 -182z" />
    <glyph glyph-name="c" unicode="c" horiz-adv-x="554" 
d="M35 207q0 127 95 217.5t222 90.5q39 0 77.5 -10t67.5 -36.5t22 -64.5l-10 -53h-63l7 37q5 32 -30 49t-79 17q-91 0 -165 -71.5t-74 -171.5q0 -75 46 -118.5t120 -43.5q47 0 91 17.5t65 35.5l21 17l22 -56q-3 -3 -9 -8t-26 -18t-42 -23t-56.5 -18t-70.5 -8
q-104 0 -167.5 59.5t-63.5 159.5z" />
    <glyph glyph-name="d" unicode="d" horiz-adv-x="625" 
d="M36 190q0 140 82 232.5t193 92.5q55 0 97 -26t58 -75h2q1 21 4 42l37 191h-90l12 56h158l-112 -573q-3 -17 -3 -29q0 -28 13 -37.5t35 -9.5l25 2l-11 -56q-21 -2 -36 -2q-47 0 -72.5 25t-18.5 72h-2q-28 -45 -77 -76t-108 -31q-89 0 -137.5 54t-48.5 148zM106 194
q0 -68 33.5 -106.5t93.5 -38.5q89 0 148 81.5t59 180.5q0 62 -32 102t-94 40q-79 0 -143.5 -72t-64.5 -187z" />
    <glyph glyph-name="e" unicode="e" horiz-adv-x="553" 
d="M35 200q0 126 84.5 220.5t209.5 94.5q90 0 135.5 -50t45.5 -132q0 -17 -3.5 -37.5t-6.5 -32.5l-4 -12h-386q-5 -21 -5 -46q0 -68 42 -112t119 -44q40 0 81.5 15t62.5 30l21 16l21 -56q-9 -7 -26 -18t-66.5 -29.5t-96.5 -18.5q-103 0 -165.5 58.5t-62.5 153.5zM122 301
h315q4 18 4 38q0 58 -31.5 88.5t-83.5 30.5q-65 0 -121.5 -41.5t-82.5 -115.5z" />
    <glyph glyph-name="f" unicode="f" horiz-adv-x="330" 
d="M60 0l86 447h-89l10 56h89l5 22q12 58 38 97.5t58.5 56.5t58 23t50.5 6l37 -3l-13 -58q-9 2 -25 2q-109 0 -135 -123l-5 -23h128l-10 -56h-128l-87 -447h-68z" />
    <glyph glyph-name="g" unicode="g" horiz-adv-x="613" 
d="M39 -117q56 -33 132 -33q181 0 211 181q4 20 8 36t6 23l3 6h-2q-61 -93 -168 -93q-89 0 -140 54.5t-51 145.5q0 74 29.5 143.5t92 119t143.5 49.5q61 0 105 -24.5t55 -67.5h2q-1 7 2 23q5 29 21 43t47 14h91l-10 -56h-62q-22 0 -27 -21l-81 -419q-22 -112 -97 -164.5
t-173 -52.5q-93 0 -169 42zM108 207q0 -67 35 -105t98 -38t109 44t66 103t20 120q0 123 -129 123q-90 0 -144.5 -75t-54.5 -172z" />
    <glyph glyph-name="h" unicode="h" horiz-adv-x="628" 
d="M35 0l125 647h-86l11 56h154l-52 -273l-13 -45h2q22 43 82 86.5t138 43.5q67 0 103 -33.5t36 -96.5q0 -33 -23.5 -150t-23.5 -134q0 -29 12.5 -38t35.5 -9l25 2l-11 -56q-20 -2 -37 -2q-96 0 -96 86q0 21 23.5 137.5t23.5 145.5q0 42 -22.5 63t-62.5 21
q-83 0 -148.5 -64.5t-83.5 -155.5l-44 -231h-68z" />
    <glyph glyph-name="i" unicode="i" horiz-adv-x="296" 
d="M170 618l17 85h77l-17 -85h-77zM73 86q0 2 5 37l64 324h-90l11 56h158l-74 -373q-3 -16 -3 -29q0 -28 13 -37.5t35 -9.5l25 2l-11 -56q-21 -2 -35 -2q-98 0 -98 88z" />
    <glyph glyph-name="j" unicode="j" horiz-adv-x="276" 
d="M175 618l16 85h77l-17 -85h-76zM56 -18l90 465h-90l11 56h158l-101 -519q-9 -48 -28 -84t-40 -55.5t-47 -31.5t-45.5 -15.5t-39.5 -3.5l-40 3l12 57q8 -2 22 -2q18 0 35.5 4.5t39 17t38.5 40.5t25 68z" />
    <glyph glyph-name="k" unicode="k" horiz-adv-x="534" 
d="M34 0l127 647h-90l11 56h158l-78 -396h69l152 140h-68l11 56h210l-11 -56h-62l-179 -165v-2q13 -10 26 -37l65 -145q10 -23 21.5 -33.5t37.5 -10.5l28 2l-11 -56l-13 -1q-14 -1 -23 -1q-25 0 -42.5 6t-30 20t-18.5 25.5t-17 35.5l-65 143q-6 14 -15.5 18.5t-28.5 4.5h-46
l-50 -251h-68z" />
    <glyph glyph-name="l" unicode="l" horiz-adv-x="274" 
d="M52 88q0 15 5 38l101 521h-90l11 56h158l-110 -569q-4 -24 -4 -33q0 -20 7.5 -30.5t16.5 -12.5t24 -2l25 2l-11 -58q-19 -3 -35 -3q-98 0 -98 91z" />
    <glyph glyph-name="m" unicode="m" horiz-adv-x="981" 
d="M60 0l83 425q3 22 -18 22h-68l11 56h96q51 0 51 -41q0 -9 -5.5 -37t-11.5 -43h2q26 51 86 92t125 41q126 0 129 -130h2q31 56 87.5 93t119.5 37q67 0 103 -34.5t36 -96.5q0 -32 -23.5 -148.5t-23.5 -134.5q0 -29 12.5 -38t34.5 -9l26 2l-11 -56q-21 -2 -37 -2
q-96 0 -96 86q0 21 23.5 138t23.5 144q0 87 -88 87q-76 0 -135 -66.5t-74 -148.5l-46 -238h-68l58 303q9 41 9 67q0 83 -85 83q-76 0 -136.5 -66.5t-77.5 -151.5l-46 -235h-68z" />
    <glyph glyph-name="n" unicode="n" horiz-adv-x="654" 
d="M60 0l83 425q4 22 -18 22h-68l11 56h96q51 0 51 -41q0 -10 -5.5 -38t-11.5 -42h2q21 44 81.5 88.5t142.5 44.5q66 0 101.5 -33.5t35.5 -95.5q0 -34 -23.5 -151t-23.5 -134q0 -29 12.5 -38t35.5 -9l25 2l-11 -56q-20 -2 -37 -2q-96 0 -96 86q0 21 23.5 137.5t23.5 145.5
q0 84 -87 84q-80 0 -146.5 -65t-83.5 -155l-45 -231h-68z" />
    <glyph glyph-name="o" unicode="o" horiz-adv-x="624" 
d="M34 208q0 127 95 217t220 90q99 0 161.5 -61t62.5 -156q0 -128 -96 -219t-219 -91q-99 0 -161.5 61.5t-62.5 158.5zM104 210q0 -71 44.5 -116t115.5 -45q91 0 165 72.5t74 173.5q0 70 -45 114.5t-116 44.5q-93 0 -165.5 -72t-72.5 -172z" />
    <glyph glyph-name="p" unicode="p" horiz-adv-x="626" 
d="M21 -200l122 625q4 22 -18 22h-68l11 56h95q51 0 51 -40q0 -18 -13 -53h2q29 46 76.5 75.5t108.5 29.5q88 0 137 -54t49 -148q0 -139 -82 -232t-190 -93q-57 0 -99 25.5t-59 75.5h-2q-1 -22 -6 -48l-47 -241h-68zM170 194q0 -63 32 -104t94 -41q79 0 143.5 72t64.5 187
q0 68 -33.5 106.5t-93.5 38.5q-88 0 -147.5 -80.5t-59.5 -178.5z" />
    <glyph glyph-name="q" unicode="q" horiz-adv-x="600" 
d="M36 189q0 141 82.5 233.5t193.5 92.5q57 0 98.5 -26.5t57.5 -75.5h2q0 16 4 38l10 52h66l-127 -648h90l-11 -55h-158l48 242l13 48h-2q-26 -43 -72.5 -72.5t-108.5 -29.5q-89 0 -137.5 54t-48.5 147zM106 194q0 -68 34 -106.5t93 -38.5q89 0 148 81.5t59 180.5
q0 62 -31.5 102t-93.5 40q-79 0 -144 -72t-65 -187z" />
    <glyph glyph-name="r" unicode="r" horiz-adv-x="383" 
d="M60 0l82 425q4 22 -18 22h-68l11 56h96q51 0 51 -41q0 -10 -7 -42.5t-13 -49.5h2q29 59 77 98.5t107 39.5q18 0 30 -3l-13 -67q-14 2 -25 2q-51 0 -96.5 -41t-73 -96t-38.5 -113l-36 -190h-68z" />
    <glyph glyph-name="s" unicode="s" horiz-adv-x="474" 
d="M11 107l9 49h62l-7 -38q-4 -22 7.5 -37t33 -22t41 -9.5t39.5 -2.5q54 0 93 24t39 65q0 29 -25.5 50t-61.5 35t-72 29.5t-61.5 44.5t-25.5 70q0 69 60 109.5t142 40.5q67 0 112.5 -27.5t35.5 -74.5l-11 -54h-63l9 42q6 30 -24.5 42.5t-70.5 12.5q-48 0 -85 -22.5
t-37 -62.5q0 -29 25.5 -49.5t62 -33.5t72.5 -28t61.5 -43.5t25.5 -69.5q0 -69 -58.5 -114t-153.5 -45q-46 0 -87 11.5t-68 40t-19 67.5z" />
    <glyph glyph-name="t" unicode="t" horiz-adv-x="336" 
d="M81 138q0 24 6 55l49 254h-90l11 56h92l27 139h66l-27 -139h127l-11 -56h-127l-49 -258q-5 -21 -5 -44q0 -91 87 -91l28 2l-12 -58q-11 -2 -25 -2q-147 0 -147 142z" />
    <glyph glyph-name="u" unicode="u" horiz-adv-x="649" 
d="M76 117q0 29 8 67l50 263h-89l10 56h158l-58 -300q-9 -47 -9 -70q0 -40 20 -61t68 -21q80 0 144.5 68t81.5 153l33 175h-89l11 56h158l-73 -373q-3 -17 -3 -29q0 -28 13 -37.5t35 -9.5l25 2l-11 -56q-22 -2 -38 -2q-53 0 -75 31.5t-12 85.5h-2q-28 -48 -84.5 -87.5
t-133.5 -39.5q-61 0 -99.5 31.5t-38.5 97.5z" />
    <glyph glyph-name="v" unicode="v" horiz-adv-x="564" 
d="M188 0l-83 447h-66l10 56h206l-11 -56h-72l61 -337l2 -39h3q6 21 17 39l192 337h-73l11 56h211l-11 -56h-66l-258 -447h-73z" />
    <glyph glyph-name="w" unicode="w" horiz-adv-x="854" 
d="M162 0l-56 447h-64l10 56h206l-10 -56h-76l40 -338l-1 -39h3q6 21 15 39l203 392h67l49 -392l1 -39h2q6 21 15 39l171 338h-75l11 56h211l-11 -56h-65l-230 -447h-73l-51 377l-2 40h-2q-7 -22 -17 -40l-198 -377h-73z" />
    <glyph glyph-name="x" unicode="x" horiz-adv-x="543" 
d="M-26 0l10 56h75l168 207l-69 165q-5 12 -10 15.5t-17 3.5h-66l10 56h88q20 0 29 -7.5t18 -28.5l53 -130l10 -28h2q8 14 20 29l132 165h123l-11 -56h-80l-157 -190l68 -159q10 -23 22.5 -33.5t40.5 -10.5l35 2l-11 -56q-1 0 -15 -1t-24 -1q-27 0 -46 6t-31.5 20.5
t-18.5 26t-16 34.5l-39 99l-10 28h-2q-8 -13 -20 -29l-145 -183h-116z" />
    <glyph glyph-name="y" unicode="y" horiz-adv-x="577" 
d="M-18 -129q24 -21 62 -21q63 0 112 80l41 67l-92 450h-66l11 56h208l-11 -56h-73l65 -343l2 -36h2q7 17 18 36l198 343h-73l11 56h211l-11 -56h-66l-319 -540q-70 -117 -170 -117q-28 0 -51.5 7.5t-32.5 14.5l-10 8z" />
    <glyph glyph-name="z" unicode="z" horiz-adv-x="518" 
d="M-10 0l9 48l353 356l45 43v2q-18 -2 -49 -2h-195l-17 -89h-61l28 145h395l-10 -49l-353 -355q-10 -10 -21 -20.5t-18 -17t-7 -5.5v-2q20 2 50 2h220l17 89h62l-28 -145h-420z" />
    <glyph glyph-name="braceleft" unicode="{" horiz-adv-x="324" 
d="M76 30q0 19 7 56l17 92q3 17 3 30q0 34 -16.5 55t-32.5 25l-16 4l12 62q3 0 9 1.5t22 9t29.5 18.5t27 34t19.5 52l17 85q36 182 198 176l-11 -56q-14 1 -28.5 -2.5t-35 -14t-37 -38.5t-24.5 -70l-20 -101q-6 -29 -18.5 -52.5t-27 -36t-28 -21t-22.5 -11.5l-9 -3v-2
q6 -3 16 -9.5t26 -32.5t16 -59q0 -13 -3 -29l-21 -106q-5 -28 -5 -45q0 -84 83 -81l-12 -56q-6 -1 -15 -1q-15 0 -31.5 4.5t-38.5 16t-36 39t-14 67.5z" />
    <glyph glyph-name="bar" unicode="|" horiz-adv-x="319" 
d="M132 -157v945h63v-945h-63z" />
    <glyph glyph-name="braceright" unicode="}" horiz-adv-x="324" 
d="M-38 -96l10 56q14 -1 29 2.5t35.5 14.5t37 38.5t24.5 69.5l21 112q9 48 35.5 79.5t47.5 39.5l22 8v2l-6 3t-14 10.5t-17.5 19t-13.5 28t-6 37.5q0 12 3 29l18 96q5 21 5 44q0 84 -82 81l11 56h29.5t35 -8.5t34.5 -21t26 -38t10 -58.5q0 -19 -7 -56l-15 -80q-3 -18 -3 -31
q0 -34 16.5 -55t33.5 -25l16 -4l-13 -62q-3 0 -9 -1.5t-22 -8.5t-29.5 -18.5t-27 -34t-19.5 -52.5l-19 -96q-12 -59 -36 -98t-54.5 -54.5t-55 -20.5t-51.5 -3z" />
    <glyph glyph-name="asciitilde" unicode="~" horiz-adv-x="593" 
d="M67 209q0 79 34 117t93 38q30 0 54 -10.5t39.5 -26t30 -31t33.5 -26t42 -10.5q40 0 55.5 31t15.5 69h59q0 -79 -34 -117t-93 -38q-30 0 -54 10.5t-39.5 26t-30 31t-33.5 26t-42 10.5q-40 0 -55.5 -31t-15.5 -69h-59z" />
    <glyph glyph-name="uni00A0" unicode="&#xa0;" horiz-adv-x="277" 
 />
    <glyph glyph-name="exclamdown" unicode="&#xa1;" horiz-adv-x="227" 
d="M98 424l17 79h78l-16 -79h-79zM-18 -200l105 519h63l-98 -519h-70z" />
    <glyph glyph-name="cent" unicode="&#xa2;" horiz-adv-x="553" 
d="M200 -13l16 87q-76 11 -119.5 66.5t-43.5 145.5q0 80 32.5 156.5t96 130t143.5 58.5l16 84h57l-17 -86q38 -6 67.5 -23t45.5 -37.5t26.5 -40t13.5 -32.5l3 -13l-63 -24q-1 4 -2.5 11.5t-11 26t-22.5 33t-38 26t-56 11.5q-97 0 -158 -82.5t-61 -197.5q0 -69 33.5 -109.5
t101.5 -40.5q31 0 60 11t48 26.5t34 31.5t22 27l7 11l60 -25q-3 -6 -8.5 -15.5t-26 -34t-44 -43.5t-61.5 -36t-79 -19l-16 -84h-56z" />
    <glyph glyph-name="sterling" unicode="&#xa3;" horiz-adv-x="608" 
d="M-9 0l11 59h88l52 267h-68l11 55h67l31 155q14 76 79 127.5t151 51.5q45 0 83.5 -15t55.5 -30l16 -15l-48 -45q-4 5 -13 11.5t-37 18t-58 11.5q-63 0 -107 -36t-54 -89l-28 -145h189l-11 -55h-189l-52 -267h291l24 118h63l-34 -177h-513z" />
    <glyph glyph-name="yen" unicode="&#xa5;" horiz-adv-x="628" 
d="M218 0l42 211h-163l9 51h163l8 39l-19 49h-135l11 51h106l-117 302h76l94 -250l28 -89h2q30 48 59 89l191 250h84l-235 -302h105l-10 -51h-133l-37 -49l-8 -39h161l-9 -51h-161l-42 -211h-70z" />
    <glyph glyph-name="section" unicode="&#xa7;" horiz-adv-x="404" 
d="M97 85l17 432q1 84 54 141t140 57q33 0 62 -11t42 -22l13 -11l-42 -43q-28 27 -76 27q-59 0 -95 -39t-38 -98l-18 -433h-59zM-7 -18l41 43q29 -27 77 -27q59 0 95 39t38 98l18 433h59l-17 -432q-1 -84 -54 -141t-140 -57q-33 0 -62 11t-42 22z" />
    <glyph glyph-name="dieresis" unicode="&#xa8;" horiz-adv-x="504" 
d="M249 785l17 86h70l-18 -86h-69zM66 785l17 86h69l-17 -86h-69z" />
    <glyph glyph-name="copyright" unicode="&#xa9;" horiz-adv-x="821" 
d="M67 352q0 151 103.5 257t249.5 106q149 0 253.5 -106t104.5 -257q0 -153 -104 -258.5t-254 -105.5q-147 0 -250 106t-103 258zM125 352q0 -131 85 -220.5t210 -89.5q127 0 213 89.5t86 220.5q0 130 -86.5 219.5t-212.5 89.5q-124 0 -209.5 -89.5t-85.5 -219.5zM224 350
q0 84 56 145t150 61q31 0 59 -9.5t46 -23t32 -27.5t20 -24l6 -9l-46 -31q-5 8 -14 19.5t-39 30.5t-62 19q-69 0 -109 -44t-40 -106t39.5 -106t109.5 -44q21 0 40.5 7t32.5 17.5t23 20.5t14 17l5 7l46 -31q-2 -4 -6.5 -10t-19.5 -22t-32.5 -28.5t-45.5 -22.5t-59 -10
q-95 0 -150.5 60t-55.5 144z" />
    <glyph glyph-name="ordfeminine" unicode="&#xaa;" horiz-adv-x="431" 
d="M212 382q-36 0 -65 21.5t-29 61.5q0 122 208 122h19q2 7 2 8q6 34 -8.5 52.5t-48.5 18.5q-20 0 -42.5 -7t-35.5 -14l-12 -7l-19 41q50 34 118 34q105 0 105 -93q0 -17 -5 -39l-38 -193h-53l10 50h-2q-4 -6 -12.5 -15.5t-35.5 -25t-56 -15.5zM228 429q38 0 69.5 37.5
t39.5 78.5h-13q-148 0 -148 -74q0 -42 52 -42zM77 264l9 47h263l-9 -47h-263z" />
    <glyph glyph-name="guillemotleft" unicode="&#xab;" horiz-adv-x="525" 
d="M350 77l-128 207l206 204h79l-215 -209l127 -202h-69zM174 77l-128 207l192 204h78l-200 -209l127 -202h-69z" />
    <glyph glyph-name="logicalnot" unicode="&#xac;" horiz-adv-x="630" 
d="M78 342v58h466v-242h-61v184h-405z" />
    <glyph glyph-name="uni00AD" unicode="&#xad;" horiz-adv-x="493" 
d="M96 253l11 62h284l-11 -62h-284z" />
    <glyph glyph-name="registered" unicode="&#xae;" horiz-adv-x="821" 
d="M67 352q0 151 103.5 257t249.5 106q149 0 253.5 -106t104.5 -257q0 -153 -104 -258.5t-254 -105.5q-147 0 -250 106t-103 258zM125 352q0 -131 85 -220.5t210 -89.5q127 0 213 89.5t86 220.5q0 130 -86.5 219.5t-212.5 89.5q-124 0 -209.5 -89.5t-85.5 -219.5zM301 157
v390h139q53 0 85.5 -32t32.5 -84q0 -41 -22 -68.5t-52 -34.5v-2q4 -5 13 -22l76 -147h-63l-77 158h-75v-158h-57zM358 359h73q32 0 50.5 19t18.5 53q0 33 -18.5 51t-50.5 18h-73v-141z" />
    <glyph glyph-name="macron" unicode="&#xaf;" horiz-adv-x="504" 
d="M72 785l10 55h247l-10 -55h-247z" />
    <glyph glyph-name="degree" unicode="&#xb0;" horiz-adv-x="383" 
d="M227 436q-55 0 -90 34t-35 87q0 61 49.5 109t111.5 48q55 0 90 -34.5t35 -86.5q0 -61 -50.5 -109t-110.5 -48zM230 492q38 0 68 30t30 69q0 29 -19 48t-49 19q-38 0 -68 -30t-30 -69q0 -29 18.5 -48t49.5 -19z" />
    <glyph glyph-name="plusminus" unicode="&#xb1;" horiz-adv-x="606" 
d="M40 255v58h231v255h61v-255h230v-58h-230v-255h-61v255h-231zM58 -104h486v-58h-486v58z" />
    <glyph glyph-name="twosuperior" unicode="&#xb2;" horiz-adv-x="423" 
d="M92 423q1 55 30 97.5t69.5 69t81 49.5t68.5 52t28 64q0 27 -18.5 44.5t-49.5 17.5q-24 0 -48.5 -12.5t-37.5 -24.5l-13 -12l-32 38q6 7 18 17.5t47 27.5t69 17q57 0 90 -30t33 -79q0 -44 -24.5 -79t-61 -58t-74 -43.5t-69 -48t-40.5 -59.5h176l11 55h49l-19 -103h-283z
" />
    <glyph glyph-name="threesuperior" unicode="&#xb3;" horiz-adv-x="402" 
d="M233 413q-42 0 -78.5 16.5t-51.5 32.5l-15 17l39 36q4 -6 12 -14t35.5 -22t58.5 -14q42 0 74.5 30.5t32.5 74.5q0 31 -25 49.5t-59 18.5h-31l-9 30l129 124l25 20v2q-13 -3 -29 -3h-117l-11 -55h-50l20 102h266l-7 -36l-147 -141q38 -6 70 -33t32 -78q0 -62 -48.5 -109.5
t-115.5 -47.5z" />
    <glyph glyph-name="acute" unicode="&#xb4;" horiz-adv-x="504" 
d="M93 752l122 119h91l-137 -119h-76z" />
    <glyph glyph-name="mu" unicode="&#xb5;" horiz-adv-x="586" 
d="M74 -46l-30 -154h-63l137 703h68l-58 -299q-8 -35 -8 -69q0 -83 88 -83q82 0 147 67t81 153l45 231h68l-98 -503h-67l14 72l13 47h-2q-26 -48 -84 -89.5t-135 -41.5q-73 0 -105 43h-2q-4 -52 -9 -77z" />
    <glyph glyph-name="mu" unicode="&#x3bc;" horiz-adv-x="586" 
d="M74 -46l-30 -154h-63l137 703h68l-58 -299q-8 -35 -8 -69q0 -83 88 -83q82 0 147 67t81 153l45 231h68l-98 -503h-67l14 72l13 47h-2q-26 -48 -84 -89.5t-135 -41.5q-73 0 -105 43h-2q-4 -52 -9 -77z" />
    <glyph glyph-name="paragraph" unicode="&#xb6;" horiz-adv-x="576" 
d="M214 -50l57 291q-80 0 -139 57.5t-59 142.5q0 105 85 183.5t190 78.5h251l-12 -62h-181l-134 -691h-58zM334 -50l122 631h57l-122 -631h-57z" />
    <glyph glyph-name="periodcentered" unicode="&#xb7;" horiz-adv-x="278" 
d="M89 246l16 83h80l-16 -83h-80z" />
    <glyph glyph-name="cedilla" unicode="&#xb8;" horiz-adv-x="504" 
d="M138 -94l50 114l38 -7l-1 -8l-26 -63q27 -4 45 -21t18 -45q0 -42 -35.5 -64t-79.5 -22q-14 0 -26.5 1.5t-18.5 2.5l-6 2l9 44q17 -5 41 -5q23 0 41.5 9.5t18.5 30.5q0 31 -54 31h-14z" />
    <glyph glyph-name="onesuperior" unicode="&#xb9;" horiz-adv-x="399" 
d="M93 423l9 48h105l53 277l9 36h-2q-10 -13 -26 -26l-55 -46l-29 39l129 107h52l-76 -387h103l-10 -48h-262z" />
    <glyph glyph-name="ordmasculine" unicode="&#xba;" horiz-adv-x="478" 
d="M259 383q-63 0 -102 38.5t-39 99.5q0 78 59.5 135.5t136.5 57.5q63 0 102.5 -38.5t39.5 -98.5q0 -80 -60 -137t-137 -57zM264 434q52 0 94.5 41t42.5 99q0 40 -25.5 65t-66.5 25q-53 0 -94.5 -41t-41.5 -98q0 -41 25 -66t66 -25zM82 264l9 47h302l-9 -47h-302z" />
    <glyph glyph-name="guillemotright" unicode="&#xbb;" horiz-adv-x="527" 
d="M206 77l200 209l-127 202h69l128 -207l-191 -204h-79zM16 77l214 209l-127 202h69l128 -207l-205 -204h-79z" />
    <glyph glyph-name="onequarter" unicode="&#xbc;" horiz-adv-x="939" 
d="M722 0l23 115h-211l7 37l266 283h55l-53 -273h65l-9 -47h-65l-23 -115h-55zM608 162h146l31 161l12 43h-2q-13 -20 -29 -36l-158 -166v-2zM269 0h-62l472 703h62zM54 268l9 48h105l53 277l9 36h-2q-10 -13 -26 -26l-55 -46l-29 39l129 107h52l-76 -387h103l-10 -48h-262z
" />
    <glyph glyph-name="onehalf" unicode="&#xbd;" horiz-adv-x="919" 
d="M533 0q1 55 30 97.5t69.5 69t81 49.5t68.5 52t28 64q0 27 -18.5 44.5t-49.5 17.5q-24 0 -49 -12t-37 -24l-13 -13l-32 38q6 7 18 17.5t47 27.5t69 17q57 0 90 -30t33 -79q0 -44 -24.5 -79t-61 -58t-74 -43.5t-69 -48t-40.5 -59.5h176l11 55h49l-19 -103h-283zM262 0h-62
l472 703h62zM46 268l9 48h105l53 277l9 36h-2q-10 -13 -26 -26l-55 -46l-29 39l129 107h52l-76 -387h103l-10 -48h-262z" />
    <glyph glyph-name="threequarters" unicode="&#xbe;" horiz-adv-x="958" 
d="M737 0l23 115h-211l7 37l266 283h55l-53 -273h65l-9 -47h-65l-23 -115h-55zM623 162h146l31 161l12 43h-2q-13 -20 -29 -36l-158 -166v-2zM202 258q-42 0 -78.5 16.5t-51.5 33.5l-15 16l39 36q4 -6 12 -14t35.5 -22t58.5 -14q42 0 74.5 30.5t32.5 74.5q0 31 -25 49.5
t-59 18.5h-31l-9 30l129 124l25 20v2q-13 -3 -29 -3h-117l-11 -55h-50l20 102h266l-7 -36l-147 -141q38 -6 70 -33t32 -78q0 -62 -48.5 -109.5t-115.5 -47.5zM284 0h-62l472 703h62z" />
    <glyph glyph-name="questiondown" unicode="&#xbf;" horiz-adv-x="459" 
d="M254 424l16 79h79l-16 -79h-79zM-9 -58q0 49 22 89.5t55 68.5t67 53.5t61.5 57.5t35.5 68l9 40h67l-9 -43q-9 -46 -37 -84t-60.5 -64t-64 -51.5t-52.5 -57.5t-21 -70q0 -41 29.5 -67.5t80.5 -26.5q31 0 63.5 10.5t48.5 20.5l17 11l29 -55q-8 -6 -23 -14.5t-58.5 -23
t-83.5 -14.5q-80 0 -128 41.5t-48 110.5z" />
    <glyph glyph-name="Agrave" unicode="&#xc0;" horiz-adv-x="715" 
d="M-46 0l11 58h71l362 645h78l111 -645h71l-11 -58h-222l11 58h81l-31 181h-274l-101 -181h80l-12 -58h-225zM243 298h235l-48 288l-4 45h-2q-7 -22 -19 -45zM424 752l-90 119h84l75 -119h-69z" />
    <glyph glyph-name="Aacute" unicode="&#xc1;" horiz-adv-x="715" 
d="M-46 0l11 58h71l362 645h78l111 -645h71l-11 -58h-222l11 58h81l-31 181h-274l-101 -181h80l-12 -58h-225zM243 298h235l-48 288l-4 45h-2q-7 -22 -19 -45zM396 752l122 119h91l-137 -119h-76z" />
    <glyph glyph-name="Acircumflex" unicode="&#xc2;" horiz-adv-x="715" 
d="M-46 0l11 58h71l362 645h78l111 -645h71l-11 -58h-222l11 58h81l-31 181h-274l-101 -181h80l-12 -58h-225zM243 298h235l-48 288l-4 45h-2q-7 -22 -19 -45zM318 752l108 119h81l60 -119h-66l-38 81h-2l-70 -81h-73z" />
    <glyph glyph-name="Atilde" unicode="&#xc3;" horiz-adv-x="715" 
d="M-46 0l11 58h71l362 645h78l111 -645h71l-11 -58h-222l11 58h81l-31 181h-274l-101 -181h80l-12 -58h-225zM243 298h235l-48 288l-4 45h-2q-7 -22 -19 -45zM296 755q11 56 38.5 86.5t67.5 30.5q23 0 40 -11t25 -24t20 -24t25 -11q36 0 50 67h58q-10 -57 -38 -87t-68 -30
q-23 0 -40 11t-25 23.5t-20 23.5t-25 11q-37 0 -50 -66h-58z" />
    <glyph glyph-name="Adieresis" unicode="&#xc4;" horiz-adv-x="715" 
d="M-46 0l11 58h71l362 645h78l111 -645h71l-11 -58h-222l11 58h81l-31 181h-274l-101 -181h80l-12 -58h-225zM243 298h235l-48 288l-4 45h-2q-7 -22 -19 -45zM510 785l17 86h70l-18 -86h-69zM327 785l17 86h69l-17 -86h-69z" />
    <glyph glyph-name="Aring" unicode="&#xc5;" horiz-adv-x="715" 
d="M-46 0l11 58h71l362 645h78l111 -645h71l-11 -58h-222l11 58h81l-31 181h-274l-101 -181h80l-12 -58h-225zM243 298h235l-48 288l-4 45h-2q-7 -22 -19 -45zM448 736q-31 0 -52 18.5t-21 47.5q0 36 29 61t64 25q32 0 53 -18t21 -48q0 -36 -29 -61t-65 -25zM451 775
q19 0 31.5 13.5t12.5 33.5q0 28 -30 28q-17 0 -30 -13.5t-13 -33.5q0 -28 29 -28z" />
    <glyph glyph-name="AE" unicode="&#xc6;" horiz-adv-x="928" 
d="M-42 0l12 58h64l355 587h-78l11 58h611l-29 -146h-62l17 86h-271l-51 -259h264l-12 -60h-264l-51 -264h290l17 87h62l-29 -147h-510l11 58h88l52 267h-186l-160 -267h78l-12 -58h-217zM304 383h163l51 260h-57z" />
    <glyph glyph-name="Ccedilla" unicode="&#xc7;" horiz-adv-x="743" 
d="M285 -94l37 85q-119 14 -189 96t-70 206q0 114 59.5 212t157 154t207.5 56q36 0 76 -6t83 -20t67 -43t16 -69l-15 -77h-67l11 58q5 26 -11 45.5t-45 29.5t-58.5 14.5t-58.5 4.5q-141 0 -245.5 -105.5t-104.5 -248.5q0 -110 64 -178.5t172 -68.5q70 0 138.5 25t77.5 71
l11 55h67l-14 -74q-10 -48 -60 -81t-107.5 -46t-113.5 -13h-5l-18 -46q27 -4 44.5 -21t17.5 -45q0 -42 -35 -64t-79 -22q-14 0 -27 1.5t-19 2.5l-6 2l9 44q17 -5 41 -5q60 0 60 40q0 31 -53 31h-15z" />
    <glyph glyph-name="Egrave" unicode="&#xc8;" horiz-adv-x="627" 
d="M-2 0l12 58h91l114 587h-92l12 58h496l-29 -146h-63l17 86h-271l-50 -259h265l-12 -60h-265l-52 -264h290l18 91h63l-30 -151h-514zM387 752l-90 119h84l75 -119h-69z" />
    <glyph glyph-name="Eacute" unicode="&#xc9;" horiz-adv-x="627" 
d="M358 752l122 119h91l-137 -119h-76zM-2 0l12 58h91l114 587h-92l12 58h496l-29 -146h-63l17 86h-271l-50 -259h265l-12 -60h-265l-52 -264h290l18 91h63l-30 -151h-514z" />
    <glyph glyph-name="Ecircumflex" unicode="&#xca;" horiz-adv-x="627" 
d="M281 752l108 119h81l60 -119h-66l-38 81h-2l-70 -81h-73zM-2 0l12 58h91l114 587h-92l12 58h496l-29 -146h-63l17 86h-271l-50 -259h265l-12 -60h-265l-52 -264h290l18 91h63l-30 -151h-514z" />
    <glyph glyph-name="Edieresis" unicode="&#xcb;" horiz-adv-x="627" 
d="M473 785l17 86h70l-18 -86h-69zM290 785l17 86h69l-17 -86h-69zM-2 0l12 58h91l114 587h-92l12 58h496l-29 -146h-63l17 86h-271l-50 -259h265l-12 -60h-265l-52 -264h290l18 91h63l-30 -151h-514z" />
    <glyph glyph-name="Igrave" unicode="&#xcc;" horiz-adv-x="364" 
d="M-1 0l11 58h91l114 587h-91l11 58h254l-11 -58h-93l-114 -587h92l-11 -58h-253zM247 752l-90 119h84l75 -119h-69z" />
    <glyph glyph-name="Iacute" unicode="&#xcd;" horiz-adv-x="364" 
d="M-1 0l11 58h91l114 587h-91l11 58h254l-11 -58h-93l-114 -587h92l-11 -58h-253zM219 752l122 119h91l-137 -119h-76z" />
    <glyph glyph-name="Icircumflex" unicode="&#xce;" horiz-adv-x="364" 
d="M-1 0l11 58h91l114 587h-91l11 58h254l-11 -58h-93l-114 -587h92l-11 -58h-253zM141 752l108 119h81l60 -119h-66l-38 81h-2l-70 -81h-73z" />
    <glyph glyph-name="Idieresis" unicode="&#xcf;" horiz-adv-x="364" 
d="M-1 0l11 58h91l114 587h-91l11 58h254l-11 -58h-93l-114 -587h92l-11 -58h-253zM334 785l17 86h70l-18 -86h-69zM151 785l17 86h69l-17 -86h-69z" />
    <glyph glyph-name="Eth" unicode="&#xd0;" horiz-adv-x="787" 
d="M-1 0l11 58h91l52 265h-78l11 60h78l52 262h-92l11 58h305q144 0 225 -71.5t81 -201.5q0 -180 -118 -305t-299 -125h-330zM171 60h150q152 0 252.5 104.5t100.5 261.5q0 104 -63.5 160.5t-175.5 56.5h-149l-52 -260h170l-12 -60h-169z" />
    <glyph glyph-name="Ntilde" unicode="&#xd1;" horiz-adv-x="833" 
d="M-2 0l12 58h91l114 587h-92l12 58h157l285 -558l14 -41h2q2 28 6 46l98 495h-93l11 58h255l-11 -58h-92l-126 -645h-67l-286 559l-13 41h-2q-2 -28 -6 -46l-96 -496h93l-12 -58h-254zM360 755q11 56 38.5 86.5t67.5 30.5q23 0 40 -11t25 -24t20 -24t25 -11q36 0 50 67h58
q-10 -57 -38 -87t-68 -30q-23 0 -40 11t-25 23.5t-20 23.5t-25 11q-37 0 -50 -66h-58z" />
    <glyph glyph-name="Ograve" unicode="&#xd2;" horiz-adv-x="826" 
d="M61 292q0 112 61 210t159.5 155.5t207.5 57.5q133 0 216.5 -83t83.5 -213q0 -113 -61.5 -213.5t-160.5 -159t-207 -58.5q-133 0 -216 85.5t-83 218.5zM132 294q0 -107 65.5 -174.5t168.5 -67.5q86 0 167 48.5t132.5 133.5t51.5 182q0 104 -65.5 169.5t-169.5 65.5
q-135 0 -242.5 -106.5t-107.5 -250.5zM480 752l-90 119h84l75 -119h-69z" />
    <glyph glyph-name="Oacute" unicode="&#xd3;" horiz-adv-x="826" 
d="M451 752l122 119h91l-137 -119h-76zM61 292q0 112 61 210t159.5 155.5t207.5 57.5q133 0 216.5 -83t83.5 -213q0 -113 -61.5 -213.5t-160.5 -159t-207 -58.5q-133 0 -216 85.5t-83 218.5zM132 294q0 -107 65.5 -174.5t168.5 -67.5q86 0 167 48.5t132.5 133.5t51.5 182
q0 104 -65.5 169.5t-169.5 65.5q-135 0 -242.5 -106.5t-107.5 -250.5z" />
    <glyph glyph-name="Ocircumflex" unicode="&#xd4;" horiz-adv-x="826" 
d="M374 752l108 119h81l60 -119h-66l-38 81h-2l-70 -81h-73zM61 292q0 112 61 210t159.5 155.5t207.5 57.5q133 0 216.5 -83t83.5 -213q0 -113 -61.5 -213.5t-160.5 -159t-207 -58.5q-133 0 -216 85.5t-83 218.5zM132 294q0 -107 65.5 -174.5t168.5 -67.5q86 0 167 48.5
t132.5 133.5t51.5 182q0 104 -65.5 169.5t-169.5 65.5q-135 0 -242.5 -106.5t-107.5 -250.5z" />
    <glyph glyph-name="Otilde" unicode="&#xd5;" horiz-adv-x="826" 
d="M61 292q0 112 61 210t159.5 155.5t207.5 57.5q133 0 216.5 -83t83.5 -213q0 -113 -61.5 -213.5t-160.5 -159t-207 -58.5q-133 0 -216 85.5t-83 218.5zM132 294q0 -107 65.5 -174.5t168.5 -67.5q86 0 167 48.5t132.5 133.5t51.5 182q0 104 -65.5 169.5t-169.5 65.5
q-135 0 -242.5 -106.5t-107.5 -250.5zM352 755q11 56 38.5 86.5t67.5 30.5q23 0 40 -11t25 -24t20 -24t25 -11q36 0 50 67h58q-10 -57 -38 -87t-68 -30q-23 0 -40 11t-25 23.5t-20 23.5t-25 11q-37 0 -50 -66h-58z" />
    <glyph glyph-name="Odieresis" unicode="&#xd6;" horiz-adv-x="826" 
d="M566 785l17 86h70l-18 -86h-69zM383 785l17 86h69l-17 -86h-69zM61 292q0 112 61 210t159.5 155.5t207.5 57.5q133 0 216.5 -83t83.5 -213q0 -113 -61.5 -213.5t-160.5 -159t-207 -58.5q-133 0 -216 85.5t-83 218.5zM132 294q0 -107 65.5 -174.5t168.5 -67.5
q86 0 167 48.5t132.5 133.5t51.5 182q0 104 -65.5 169.5t-169.5 65.5q-135 0 -242.5 -106.5t-107.5 -250.5z" />
    <glyph glyph-name="multiply" unicode="&#xd7;" horiz-adv-x="606" 
d="M46 41l216 243l-216 243l41 41l214 -241l214 241l41 -41l-217 -243l217 -243l-41 -41l-214 241l-214 -241z" />
    <glyph glyph-name="Oslash" unicode="&#xd8;" horiz-adv-x="827" 
d="M72 7l67 73q-78 83 -78 212q0 111 60.5 209.5t158 156t203.5 57.5q109 0 187 -56l63 69l39 -32l-63 -69q80 -83 80 -208q0 -113 -61 -213.5t-159 -159t-203 -58.5q-112 0 -190 58l-64 -70zM188 132l435 476q-59 42 -140 42q-135 0 -242.5 -106t-107.5 -250q0 -98 55 -162
zM223 97q60 -44 144 -44q134 0 242 108.5t108 254.5q0 95 -57 158z" />
    <glyph glyph-name="Ugrave" unicode="&#xd9;" horiz-adv-x="795" 
d="M112 188q0 24 10 84l73 373h-92l11 58h254l-11 -58h-92l-73 -374q-9 -57 -9 -75q0 -67 44.5 -105.5t122.5 -38.5q91 0 150 47q67 52 87 150l78 396h-92l11 58h254l-11 -58h-92l-80 -405q-27 -136 -123 -200q-78 -52 -184 -52t-171 54.5t-65 145.5zM463 752l-90 119h84
l75 -119h-69z" />
    <glyph glyph-name="Uacute" unicode="&#xda;" horiz-adv-x="795" 
d="M434 752l122 119h91l-137 -119h-76zM112 188q0 24 10 84l73 373h-92l11 58h254l-11 -58h-92l-73 -374q-9 -57 -9 -75q0 -67 44.5 -105.5t122.5 -38.5q91 0 150 47q67 52 87 150l78 396h-92l11 58h254l-11 -58h-92l-80 -405q-27 -136 -123 -200q-78 -52 -184 -52
t-171 54.5t-65 145.5z" />
    <glyph glyph-name="Ucircumflex" unicode="&#xdb;" horiz-adv-x="795" 
d="M357 752l108 119h81l60 -119h-66l-38 81h-2l-70 -81h-73zM112 188q0 24 10 84l73 373h-92l11 58h254l-11 -58h-92l-73 -374q-9 -57 -9 -75q0 -67 44.5 -105.5t122.5 -38.5q91 0 150 47q67 52 87 150l78 396h-92l11 58h254l-11 -58h-92l-80 -405q-27 -136 -123 -200
q-78 -52 -184 -52t-171 54.5t-65 145.5z" />
    <glyph glyph-name="Udieresis" unicode="&#xdc;" horiz-adv-x="795" 
d="M549 785l17 86h70l-18 -86h-69zM366 785l17 86h69l-17 -86h-69zM112 188q0 24 10 84l73 373h-92l11 58h254l-11 -58h-92l-73 -374q-9 -57 -9 -75q0 -67 44.5 -105.5t122.5 -38.5q91 0 150 47q67 52 87 150l78 396h-92l11 58h254l-11 -58h-92l-80 -405q-27 -136 -123 -200
q-78 -52 -184 -52t-171 54.5t-65 145.5z" />
    <glyph glyph-name="Yacute" unicode="&#xdd;" horiz-adv-x="644" 
d="M137 0l12 58h92l48 244l-141 343h-69l12 58h219l-12 -58h-78l102 -256l9 -27h2q9 14 19 27l204 256h-79l11 58h225l-12 -58h-69l-273 -343l-48 -244h92l-12 -58h-254zM359 752l122 119h91l-137 -119h-76z" />
    <glyph glyph-name="Thorn" unicode="&#xde;" horiz-adv-x="645" 
d="M-2 0l12 58h91l114 587h-92l12 58h254l-12 -58h-92l-17 -81h173q85 0 135 -44.5t50 -121.5q0 -104 -74.5 -169t-177.5 -65h-183l-21 -106h93l-12 -58h-253zM202 222h167q78 0 131.5 48t53.5 129q0 52 -34 79.5t-96 27.5h-167z" />
    <glyph glyph-name="germandbls" unicode="&#xdf;" horiz-adv-x="583" 
d="M35 0l104 539q16 81 81 128.5t142 47.5q74 0 117.5 -37t43.5 -94q0 -33 -15.5 -61.5t-38 -48t-45 -37t-38 -36.5t-15.5 -39q0 -21 24 -45t52.5 -44t52.5 -53t24 -69q0 -65 -54.5 -111.5t-126.5 -46.5q-43 0 -81 8t-55 16l-17 8l12 63q54 -34 137 -34q43 0 78.5 25
t35.5 71q0 28 -24 55.5t-53 46.5t-53 47.5t-24 58.5q0 34 24 65t52.5 51t52.5 48t24 57q0 31 -23.5 53t-68.5 22q-53 0 -98.5 -34.5t-56.5 -93.5l-102 -526h-68z" />
    <glyph glyph-name="agrave" unicode="&#xe0;" horiz-adv-x="547" 
d="M5 114q0 57 32.5 97.5t87.5 60.5t108.5 28t112.5 8h33q8 39 8 57q0 90 -103 90q-37 0 -74.5 -11.5t-57.5 -23.5l-19 -12l-21 55q9 6 24.5 14.5t63.5 23t95 14.5q75 0 118 -35t43 -105q0 -32 -25 -143.5t-25 -130.5q0 -28 12.5 -37.5t34.5 -9.5l26 2l-11 -56
q-20 -2 -38 -2q-46 0 -70.5 24.5t-20.5 73.5h-2q1 0 -7 -11t-24 -27t-37 -32t-52.5 -27t-64.5 -11q-63 0 -105 33.5t-42 92.5zM74 124q0 -35 23.5 -57.5t71.5 -22.5q66 0 121.5 59.5t73.5 131.5l5 22h-29q-266 0 -266 -133zM293 584l-90 119h84l75 -119h-69z" />
    <glyph glyph-name="aacute" unicode="&#xe1;" horiz-adv-x="547" 
d="M5 114q0 57 32.5 97.5t87.5 60.5t108.5 28t112.5 8h33q8 39 8 57q0 90 -103 90q-37 0 -74.5 -11.5t-57.5 -23.5l-19 -12l-21 55q9 6 24.5 14.5t63.5 23t95 14.5q75 0 118 -35t43 -105q0 -32 -25 -143.5t-25 -130.5q0 -28 12.5 -37.5t34.5 -9.5l26 2l-11 -56
q-20 -2 -38 -2q-46 0 -70.5 24.5t-20.5 73.5h-2q1 0 -7 -11t-24 -27t-37 -32t-52.5 -27t-64.5 -11q-63 0 -105 33.5t-42 92.5zM74 124q0 -35 23.5 -57.5t71.5 -22.5q66 0 121.5 59.5t73.5 131.5l5 22h-29q-266 0 -266 -133zM265 584l122 119h91l-137 -119h-76z" />
    <glyph glyph-name="acircumflex" unicode="&#xe2;" horiz-adv-x="547" 
d="M5 114q0 57 32.5 97.5t87.5 60.5t108.5 28t112.5 8h33q8 39 8 57q0 90 -103 90q-37 0 -74.5 -11.5t-57.5 -23.5l-19 -12l-21 55q9 6 24.5 14.5t63.5 23t95 14.5q75 0 118 -35t43 -105q0 -32 -25 -143.5t-25 -130.5q0 -28 12.5 -37.5t34.5 -9.5l26 2l-11 -56
q-20 -2 -38 -2q-46 0 -70.5 24.5t-20.5 73.5h-2q1 0 -7 -11t-24 -27t-37 -32t-52.5 -27t-64.5 -11q-63 0 -105 33.5t-42 92.5zM74 124q0 -35 23.5 -57.5t71.5 -22.5q66 0 121.5 59.5t73.5 131.5l5 22h-29q-266 0 -266 -133zM188 584l108 119h81l60 -119h-66l-38 81h-2
l-70 -81h-73z" />
    <glyph glyph-name="atilde" unicode="&#xe3;" horiz-adv-x="547" 
d="M5 114q0 57 32.5 97.5t87.5 60.5t108.5 28t112.5 8h33q8 39 8 57q0 90 -103 90q-37 0 -74.5 -11.5t-57.5 -23.5l-19 -12l-21 55q9 6 24.5 14.5t63.5 23t95 14.5q75 0 118 -35t43 -105q0 -32 -25 -143.5t-25 -130.5q0 -28 12.5 -37.5t34.5 -9.5l26 2l-11 -56
q-20 -2 -38 -2q-46 0 -70.5 24.5t-20.5 73.5h-2q1 0 -7 -11t-24 -27t-37 -32t-52.5 -27t-64.5 -11q-63 0 -105 33.5t-42 92.5zM74 124q0 -35 23.5 -57.5t71.5 -22.5q66 0 121.5 59.5t73.5 131.5l5 22h-29q-266 0 -266 -133zM165 587q11 56 38.5 86.5t67.5 30.5q23 0 40 -11
t25 -24t20 -24t25 -11q36 0 50 67h58q-10 -57 -38 -87t-68 -30q-23 0 -40 11t-25 23.5t-20 23.5t-25 11q-37 0 -50 -66h-58z" />
    <glyph glyph-name="adieresis" unicode="&#xe4;" horiz-adv-x="547" 
d="M5 114q0 57 32.5 97.5t87.5 60.5t108.5 28t112.5 8h33q8 39 8 57q0 90 -103 90q-37 0 -74.5 -11.5t-57.5 -23.5l-19 -12l-21 55q9 6 24.5 14.5t63.5 23t95 14.5q75 0 118 -35t43 -105q0 -32 -25 -143.5t-25 -130.5q0 -28 12.5 -37.5t34.5 -9.5l26 2l-11 -56
q-20 -2 -38 -2q-46 0 -70.5 24.5t-20.5 73.5h-2q1 0 -7 -11t-24 -27t-37 -32t-52.5 -27t-64.5 -11q-63 0 -105 33.5t-42 92.5zM74 124q0 -35 23.5 -57.5t71.5 -22.5q66 0 121.5 59.5t73.5 131.5l5 22h-29q-266 0 -266 -133zM380 617l17 86h70l-18 -86h-69zM197 617l17 86h69
l-17 -86h-69z" />
    <glyph glyph-name="aring" unicode="&#xe5;" horiz-adv-x="547" 
d="M5 114q0 57 32.5 97.5t87.5 60.5t108.5 28t112.5 8h33q8 39 8 57q0 90 -103 90q-37 0 -74.5 -11.5t-57.5 -23.5l-19 -12l-21 55q9 6 24.5 14.5t63.5 23t95 14.5q75 0 118 -35t43 -105q0 -32 -25 -143.5t-25 -130.5q0 -28 12.5 -37.5t34.5 -9.5l26 2l-11 -56
q-20 -2 -38 -2q-46 0 -70.5 24.5t-20.5 73.5h-2q1 0 -7 -11t-24 -27t-37 -32t-52.5 -27t-64.5 -11q-63 0 -105 33.5t-42 92.5zM74 124q0 -35 23.5 -57.5t71.5 -22.5q66 0 121.5 59.5t73.5 131.5l5 22h-29q-266 0 -266 -133zM318 568q-31 0 -52 18.5t-21 47.5q0 36 29 61
t64 25q32 0 53 -18t21 -48q0 -36 -29 -61t-65 -25zM321 607q19 0 31.5 13.5t12.5 33.5q0 28 -30 28q-17 0 -30 -13.5t-13 -33.5q0 -28 29 -28z" />
    <glyph glyph-name="ae" unicode="&#xe6;" horiz-adv-x="867" 
d="M7 117q0 46 21.5 81t53 55t76 32t82.5 15.5t81 3.5h55q7 38 7 60q0 91 -106 91q-36 0 -73 -11.5t-56 -23.5l-19 -12l-21 55q9 6 24.5 14.5t61.5 23t90 14.5q135 0 154 -97h2q79 97 201 97q90 0 137 -49.5t47 -133.5q0 -16 -3.5 -35.5t-6.5 -30.5l-3 -12h-379
q-5 -22 -5 -47q0 -73 40 -116t114 -43q40 0 81 15t62 31l21 15l21 -55q-9 -7 -25.5 -18t-65.5 -29.5t-96 -18.5q-80 0 -134 37t-72 100h-2q-6 -14 -20 -33t-39.5 -44.5t-66.5 -42.5t-88 -17q-64 0 -107.5 34.5t-43.5 94.5zM447 304h306q3 20 3 36q0 59 -32.5 88.5
t-82.5 29.5q-65 0 -116.5 -40t-77.5 -114zM77 123q0 -34 25 -56t71 -22q67 0 120 58.5t69 129.5l5 20h-59q-231 0 -231 -130z" />
    <glyph glyph-name="ccedilla" unicode="&#xe7;" horiz-adv-x="554" 
d="M182 -94l37 86q-85 13 -134.5 69.5t-49.5 145.5q0 127 95.5 217.5t222.5 90.5q28 0 57 -6t56.5 -18.5t42.5 -35t10 -51.5l-10 -53h-63l7 37q5 32 -30 49t-79 17q-91 0 -165 -71.5t-74 -171.5q0 -75 46 -118.5t120 -43.5q47 0 91 17.5t65 35.5l21 17l22 -56q-3 -3 -9 -8
t-26 -18t-42 -23t-56.5 -18t-70.5 -8h-4l-19 -46q27 -4 45 -21t18 -45q0 -42 -35.5 -64t-79.5 -22q-14 0 -27 1.5t-19 2.5l-6 2l10 44q16 -5 40 -5q61 0 61 40q0 31 -54 31h-14z" />
    <glyph glyph-name="egrave" unicode="&#xe8;" horiz-adv-x="553" 
d="M35 200q0 126 84.5 220.5t209.5 94.5q90 0 135.5 -50t45.5 -132q0 -17 -3.5 -37.5t-6.5 -32.5l-4 -12h-386q-5 -21 -5 -46q0 -68 42 -112t119 -44q40 0 81.5 15t62.5 30l21 16l21 -56q-9 -7 -26 -18t-66.5 -29.5t-96.5 -18.5q-103 0 -165.5 58.5t-62.5 153.5zM122 301
h315q4 18 4 38q0 58 -31.5 88.5t-83.5 30.5q-65 0 -121.5 -41.5t-82.5 -115.5zM330 584l-90 119h84l75 -119h-69z" />
    <glyph glyph-name="eacute" unicode="&#xe9;" horiz-adv-x="553" 
d="M302 584l122 119h91l-137 -119h-76zM35 200q0 126 84.5 220.5t209.5 94.5q90 0 135.5 -50t45.5 -132q0 -17 -3.5 -37.5t-6.5 -32.5l-4 -12h-386q-5 -21 -5 -46q0 -68 42 -112t119 -44q40 0 81.5 15t62.5 30l21 16l21 -56q-9 -7 -26 -18t-66.5 -29.5t-96.5 -18.5
q-103 0 -165.5 58.5t-62.5 153.5zM122 301h315q4 18 4 38q0 58 -31.5 88.5t-83.5 30.5q-65 0 -121.5 -41.5t-82.5 -115.5z" />
    <glyph glyph-name="ecircumflex" unicode="&#xea;" horiz-adv-x="553" 
d="M224 584l108 119h81l60 -119h-66l-38 81h-2l-70 -81h-73zM35 200q0 126 84.5 220.5t209.5 94.5q90 0 135.5 -50t45.5 -132q0 -17 -3.5 -37.5t-6.5 -32.5l-4 -12h-386q-5 -21 -5 -46q0 -68 42 -112t119 -44q40 0 81.5 15t62.5 30l21 16l21 -56q-9 -7 -26 -18t-66.5 -29.5
t-96.5 -18.5q-103 0 -165.5 58.5t-62.5 153.5zM122 301h315q4 18 4 38q0 58 -31.5 88.5t-83.5 30.5q-65 0 -121.5 -41.5t-82.5 -115.5z" />
    <glyph glyph-name="edieresis" unicode="&#xeb;" horiz-adv-x="553" 
d="M417 617l17 86h70l-18 -86h-69zM234 617l17 86h69l-17 -86h-69zM35 200q0 126 84.5 220.5t209.5 94.5q90 0 135.5 -50t45.5 -132q0 -17 -3.5 -37.5t-6.5 -32.5l-4 -12h-386q-5 -21 -5 -46q0 -68 42 -112t119 -44q40 0 81.5 15t62.5 30l21 16l21 -56q-9 -7 -26 -18
t-66.5 -29.5t-96.5 -18.5q-103 0 -165.5 58.5t-62.5 153.5zM122 301h315q4 18 4 38q0 58 -31.5 88.5t-83.5 30.5q-65 0 -121.5 -41.5t-82.5 -115.5z" />
    <glyph glyph-name="igrave" unicode="&#xec;" horiz-adv-x="296" 
d="M74 86q0 9 4 37l64 324h-90l11 56h158l-74 -373q-3 -16 -3 -29q0 -28 13 -37.5t35 -9.5l25 2l-11 -56q-21 -2 -35 -2q-97 0 -97 88zM180 584l-90 119h84l75 -119h-69z" />
    <glyph glyph-name="iacute" unicode="&#xed;" horiz-adv-x="296" 
d="M151 584l122 119h91l-137 -119h-76zM74 86q0 9 4 37l64 324h-90l11 56h158l-74 -373q-3 -16 -3 -29q0 -28 13 -37.5t35 -9.5l25 2l-11 -56q-21 -2 -35 -2q-97 0 -97 88z" />
    <glyph glyph-name="icircumflex" unicode="&#xee;" horiz-adv-x="296" 
d="M74 584l108 119h81l60 -119h-66l-38 81h-2l-70 -81h-73zM74 86q0 9 4 37l64 324h-90l11 56h158l-74 -373q-3 -16 -3 -29q0 -28 13 -37.5t35 -9.5l25 2l-11 -56q-21 -2 -35 -2q-97 0 -97 88z" />
    <glyph glyph-name="idieresis" unicode="&#xef;" horiz-adv-x="296" 
d="M74 86q0 9 4 37l64 324h-90l11 56h158l-74 -373q-3 -16 -3 -29q0 -28 13 -37.5t35 -9.5l25 2l-11 -56q-21 -2 -35 -2q-97 0 -97 88zM253 617l18 86h69l-17 -86h-70zM95 617l18 86h69l-17 -86h-70z" />
    <glyph glyph-name="eth" unicode="&#xf0;" horiz-adv-x="593" 
d="M34 187q0 108 78 194t205 86q44 0 79.5 -14.5t48.5 -28.5l13 -15h2q-16 100 -95 165l-190 -79l-5 45l152 64q-61 35 -135 55l29 53q106 -29 177 -79l146 60l6 -45l-114 -47q103 -98 103 -248q0 -56 -17.5 -116.5t-51.5 -117.5t-94 -94t-135 -37q-97 0 -149.5 57
t-52.5 142zM104 189q0 -60 34 -100t98 -40q93 0 156 79.5t63 162.5q0 53 -36.5 85.5t-100.5 32.5q-89 0 -151.5 -65t-62.5 -155z" />
    <glyph glyph-name="ntilde" unicode="&#xf1;" horiz-adv-x="654" 
d="M60 0l83 425q4 22 -18 22h-68l11 56h96q51 0 51 -41q0 -10 -5.5 -38t-11.5 -42h2q21 44 81.5 88.5t142.5 44.5q66 0 101.5 -33.5t35.5 -95.5q0 -34 -23.5 -151t-23.5 -134q0 -29 12.5 -38t35.5 -9l25 2l-11 -56q-20 -2 -37 -2q-96 0 -96 86q0 21 23.5 137.5t23.5 145.5
q0 84 -87 84q-80 0 -146.5 -65t-83.5 -155l-45 -231h-68zM249 587q11 56 38.5 86.5t67.5 30.5q23 0 40 -11t25 -24t20 -24t25 -11q36 0 50 67h58q-10 -57 -38 -87t-68 -30q-23 0 -40 11t-25 23.5t-20 23.5t-25 11q-37 0 -50 -66h-58z" />
    <glyph glyph-name="ograve" unicode="&#xf2;" horiz-adv-x="624" 
d="M34 208q0 127 95 217t220 90q99 0 161.5 -61t62.5 -156q0 -128 -96 -219t-219 -91q-99 0 -161.5 61.5t-62.5 158.5zM104 210q0 -71 44.5 -116t115.5 -45q91 0 165 72.5t74 173.5q0 70 -45 114.5t-116 44.5q-93 0 -165.5 -72t-72.5 -172zM346 584l-90 119h84l75 -119h-69z
" />
    <glyph glyph-name="oacute" unicode="&#xf3;" horiz-adv-x="624" 
d="M318 584l122 119h91l-137 -119h-76zM34 208q0 127 95 217t220 90q99 0 161.5 -61t62.5 -156q0 -128 -96 -219t-219 -91q-99 0 -161.5 61.5t-62.5 158.5zM104 210q0 -71 44.5 -116t115.5 -45q91 0 165 72.5t74 173.5q0 70 -45 114.5t-116 44.5q-93 0 -165.5 -72
t-72.5 -172z" />
    <glyph glyph-name="ocircumflex" unicode="&#xf4;" horiz-adv-x="624" 
d="M240 584l108 119h81l60 -119h-66l-38 81h-2l-70 -81h-73zM34 208q0 127 95 217t220 90q99 0 161.5 -61t62.5 -156q0 -128 -96 -219t-219 -91q-99 0 -161.5 61.5t-62.5 158.5zM104 210q0 -71 44.5 -116t115.5 -45q91 0 165 72.5t74 173.5q0 70 -45 114.5t-116 44.5
q-93 0 -165.5 -72t-72.5 -172z" />
    <glyph glyph-name="otilde" unicode="&#xf5;" horiz-adv-x="624" 
d="M34 208q0 127 95 217t220 90q99 0 161.5 -61t62.5 -156q0 -128 -96 -219t-219 -91q-99 0 -161.5 61.5t-62.5 158.5zM104 210q0 -71 44.5 -116t115.5 -45q91 0 165 72.5t74 173.5q0 70 -45 114.5t-116 44.5q-93 0 -165.5 -72t-72.5 -172zM218 587q11 56 38.5 86.5
t67.5 30.5q23 0 40 -11t25 -24t20 -24t25 -11q36 0 50 67h58q-10 -57 -38 -87t-68 -30q-23 0 -40 11t-25 23.5t-20 23.5t-25 11q-37 0 -50 -66h-58z" />
    <glyph glyph-name="odieresis" unicode="&#xf6;" horiz-adv-x="624" 
d="M432 617l17 86h70l-18 -86h-69zM249 617l17 86h69l-17 -86h-69zM34 208q0 127 95 217t220 90q99 0 161.5 -61t62.5 -156q0 -128 -96 -219t-219 -91q-99 0 -161.5 61.5t-62.5 158.5zM104 210q0 -71 44.5 -116t115.5 -45q91 0 165 72.5t74 173.5q0 70 -45 114.5t-116 44.5
q-93 0 -165.5 -72t-72.5 -172z" />
    <glyph glyph-name="divide" unicode="&#xf7;" horiz-adv-x="606" 
d="M264 433v74h74v-74h-74zM56 255v58h490v-58h-490zM264 61v74h74v-74h-74z" />
    <glyph glyph-name="oslash" unicode="&#xf8;" horiz-adv-x="626" 
d="M48 -2l49 54q-61 63 -61 156q0 126 94 216.5t215 90.5q81 0 140 -40l52 56l33 -30l-52 -57q57 -64 57 -146q0 -127 -95 -218.5t-214 -91.5q-75 0 -134 36l-52 -56zM144 103l296 322q-44 29 -96 29q-93 0 -165.5 -72t-72.5 -172q0 -62 38 -107zM177 73q41 -24 89 -24
q91 0 165 72.5t74 173.5q0 53 -35 98z" />
    <glyph glyph-name="ugrave" unicode="&#xf9;" horiz-adv-x="649" 
d="M76 117q0 29 8 67l50 263h-89l10 56h158l-58 -300q-9 -47 -9 -70q0 -40 20 -61t68 -21q80 0 144.5 68t81.5 153l33 175h-89l11 56h158l-73 -373q-3 -17 -3 -29q0 -28 13 -37.5t35 -9.5l25 2l-11 -56q-22 -2 -38 -2q-53 0 -75 31.5t-12 85.5h-2q-28 -48 -84.5 -87.5
t-133.5 -39.5q-61 0 -99.5 31.5t-38.5 97.5zM336 584l-90 119h84l75 -119h-69z" />
    <glyph glyph-name="uacute" unicode="&#xfa;" horiz-adv-x="649" 
d="M308 584l122 119h91l-137 -119h-76zM76 117q0 29 8 67l50 263h-89l10 56h158l-58 -300q-9 -47 -9 -70q0 -40 20 -61t68 -21q80 0 144.5 68t81.5 153l33 175h-89l11 56h158l-73 -373q-3 -17 -3 -29q0 -28 13 -37.5t35 -9.5l25 2l-11 -56q-22 -2 -38 -2q-53 0 -75 31.5
t-12 85.5h-2q-28 -48 -84.5 -87.5t-133.5 -39.5q-61 0 -99.5 31.5t-38.5 97.5z" />
    <glyph glyph-name="ucircumflex" unicode="&#xfb;" horiz-adv-x="649" 
d="M230 584l108 119h81l60 -119h-66l-38 81h-2l-70 -81h-73zM76 117q0 29 8 67l50 263h-89l10 56h158l-58 -300q-9 -47 -9 -70q0 -40 20 -61t68 -21q80 0 144.5 68t81.5 153l33 175h-89l11 56h158l-73 -373q-3 -17 -3 -29q0 -28 13 -37.5t35 -9.5l25 2l-11 -56
q-22 -2 -38 -2q-53 0 -75 31.5t-12 85.5h-2q-28 -48 -84.5 -87.5t-133.5 -39.5q-61 0 -99.5 31.5t-38.5 97.5z" />
    <glyph glyph-name="udieresis" unicode="&#xfc;" horiz-adv-x="649" 
d="M422 617l17 86h70l-18 -86h-69zM239 617l17 86h69l-17 -86h-69zM76 117q0 29 8 67l50 263h-89l10 56h158l-58 -300q-9 -47 -9 -70q0 -40 20 -61t68 -21q80 0 144.5 68t81.5 153l33 175h-89l11 56h158l-73 -373q-3 -17 -3 -29q0 -28 13 -37.5t35 -9.5l25 2l-11 -56
q-22 -2 -38 -2q-53 0 -75 31.5t-12 85.5h-2q-28 -48 -84.5 -87.5t-133.5 -39.5q-61 0 -99.5 31.5t-38.5 97.5z" />
    <glyph glyph-name="yacute" unicode="&#xfd;" horiz-adv-x="577" 
d="M-18 -129q24 -21 62 -21q63 0 112 80l41 67l-92 450h-66l11 56h208l-11 -56h-73l65 -343l2 -36h2q7 17 18 36l198 343h-73l11 56h211l-11 -56h-66l-319 -540q-70 -117 -170 -117q-28 0 -51.5 7.5t-32.5 14.5l-10 8zM297 584l122 119h91l-137 -119h-76z" />
    <glyph glyph-name="thorn" unicode="&#xfe;" horiz-adv-x="601" 
d="M-4 -200l164 847h-86l11 56h154l-48 -246l-11 -42h2q27 42 74.5 71t106.5 29q88 0 137 -54t49 -148q0 -140 -82 -232.5t-190 -92.5q-56 0 -98.5 26t-59.5 75h-2q-1 -22 -6 -48l-48 -241h-67zM145 194q0 -63 32 -104t94 -41q79 0 143 72t64 187q0 68 -33.5 106.5
t-92.5 38.5q-88 0 -147.5 -80.5t-59.5 -178.5z" />
    <glyph glyph-name="ydieresis" unicode="&#xff;" horiz-adv-x="577" 
d="M-18 -129q24 -21 62 -21q63 0 112 80l41 67l-92 450h-66l11 56h208l-11 -56h-73l65 -343l2 -36h2q7 17 18 36l198 343h-73l11 56h211l-11 -56h-66l-319 -540q-70 -117 -170 -117q-28 0 -51.5 7.5t-32.5 14.5l-10 8zM412 617l17 86h70l-18 -86h-69zM229 617l17 86h69
l-17 -86h-69z" />
    <glyph glyph-name="Amacron" unicode="&#x100;" horiz-adv-x="715" 
d="M-46 0l11 58h71l362 645h78l111 -645h71l-11 -58h-222l11 58h81l-31 181h-274l-101 -181h80l-12 -58h-225zM243 298h235l-48 288l-4 45h-2q-7 -22 -19 -45zM330 785l10 55h247l-10 -55h-247z" />
    <glyph glyph-name="amacron" unicode="&#x101;" horiz-adv-x="547" 
d="M5 114q0 57 32.5 97.5t87.5 60.5t108.5 28t112.5 8h33q8 39 8 57q0 90 -103 90q-37 0 -74.5 -11.5t-57.5 -23.5l-19 -12l-21 55q9 6 24.5 14.5t63.5 23t95 14.5q75 0 118 -35t43 -105q0 -32 -25 -143.5t-25 -130.5q0 -28 12.5 -37.5t34.5 -9.5l26 2l-11 -56
q-20 -2 -38 -2q-46 0 -70.5 24.5t-20.5 73.5h-2q1 0 -7 -11t-24 -27t-37 -32t-52.5 -27t-64.5 -11q-63 0 -105 33.5t-42 92.5zM74 124q0 -35 23.5 -57.5t71.5 -22.5q66 0 121.5 59.5t73.5 131.5l5 22h-29q-266 0 -266 -133zM199 617l10 55h247l-10 -55h-247z" />
    <glyph glyph-name="Abreve" unicode="&#x102;" horiz-adv-x="715" 
d="M-46 0l11 58h71l362 645h78l111 -645h71l-11 -58h-222l11 58h81l-31 181h-274l-101 -181h80l-12 -58h-225zM243 298h235l-48 288l-4 45h-2q-7 -22 -19 -45zM451 749q-49 0 -80 30t-21 77l3 15h57l-3 -13q-6 -31 8 -46.5t40 -15.5t46 15.5t26 46.5l3 13h57l-3 -15
q-9 -54 -46 -80.5t-87 -26.5z" />
    <glyph glyph-name="abreve" unicode="&#x103;" horiz-adv-x="547" 
d="M5 114q0 57 32.5 97.5t87.5 60.5t108.5 28t112.5 8h33q8 39 8 57q0 90 -103 90q-37 0 -74.5 -11.5t-57.5 -23.5l-19 -12l-21 55q9 6 24.5 14.5t63.5 23t95 14.5q75 0 118 -35t43 -105q0 -32 -25 -143.5t-25 -130.5q0 -28 12.5 -37.5t34.5 -9.5l26 2l-11 -56
q-20 -2 -38 -2q-46 0 -70.5 24.5t-20.5 73.5h-2q1 0 -7 -11t-24 -27t-37 -32t-52.5 -27t-64.5 -11q-63 0 -105 33.5t-42 92.5zM74 124q0 -35 23.5 -57.5t71.5 -22.5q66 0 121.5 59.5t73.5 131.5l5 22h-29q-266 0 -266 -133zM320 581q-49 0 -80 30t-21 77l3 15h57l-3 -13
q-6 -31 8 -46.5t40 -15.5t46 15.5t26 46.5l3 13h57l-3 -15q-9 -54 -46 -80.5t-87 -26.5z" />
    <glyph glyph-name="Aogonek" unicode="&#x104;" horiz-adv-x="715" 
d="M475 -129q0 69 89 129h-139l11 58h81l-31 181h-274l-101 -181h80l-12 -58h-225l11 58h71l362 645h78l111 -645h71l-11 -58h-5q-17 0 -61 -40.5t-44 -74.5q0 -17 13 -28t24.5 -13.5t18.5 -2.5l-24 -53q-15 2 -33 7.5t-39.5 26t-21.5 49.5zM243 298h235l-48 288l-4 45h-2
q-7 -22 -19 -45z" />
    <glyph glyph-name="aogonek" unicode="&#x105;" horiz-adv-x="547" 
d="M297 -129q0 71 93 131q-59 17 -51 94h-2q1 0 -7 -11t-24 -27t-37 -32t-52.5 -27t-64.5 -11q-63 0 -105 33.5t-42 92.5q0 57 32.5 97.5t87.5 60.5t108.5 28t112.5 8h33q8 39 8 57q0 90 -103 90q-37 0 -74.5 -11.5t-57.5 -23.5l-19 -12l-21 55q9 6 24.5 14.5t63.5 23
t95 14.5q75 0 118 -35t43 -105q0 -32 -25 -143.5t-25 -130.5q0 -28 12.5 -37.5t34.5 -9.5l26 2l-11 -56q-5 0 -9 -1q-24 -8 -62 -45.5t-38 -68.5q0 -17 13 -28t24.5 -13.5t18.5 -2.5l-24 -53q-15 2 -33 7.5t-39.5 26t-21.5 49.5zM74 124q0 -35 23.5 -57.5t71.5 -22.5
q66 0 121.5 59.5t73.5 131.5l5 22h-29q-266 0 -266 -133z" />
    <glyph glyph-name="Cacute" unicode="&#x106;" horiz-adv-x="743" 
d="M438 752l122 119h91l-137 -119h-76zM63 293q0 114 59.5 212t157 154t207.5 56q36 0 76 -6t83 -20t67 -43t16 -69l-15 -77h-67l11 58q5 26 -11 45.5t-45 29.5t-58.5 14.5t-58.5 4.5q-141 0 -245.5 -105.5t-104.5 -248.5q0 -110 64 -178.5t172 -68.5q70 0 138.5 25t77.5 71
l11 55h67l-14 -74q-10 -48 -60 -81t-107.5 -46t-113.5 -13q-140 0 -223.5 84.5t-83.5 220.5z" />
    <glyph glyph-name="cacute" unicode="&#x107;" horiz-adv-x="554" 
d="M304 584l122 119h91l-137 -119h-76zM35 207q0 127 95 217.5t222 90.5q39 0 77.5 -10t67.5 -36.5t22 -64.5l-10 -53h-63l7 37q5 32 -30 49t-79 17q-91 0 -165 -71.5t-74 -171.5q0 -75 46 -118.5t120 -43.5q47 0 91 17.5t65 35.5l21 17l22 -56q-3 -3 -9 -8t-26 -18t-42 -23
t-56.5 -18t-70.5 -8q-104 0 -167.5 59.5t-63.5 159.5z" />
    <glyph glyph-name="Ccircumflex" unicode="&#x108;" horiz-adv-x="743" 
d="M360 752l108 119h81l60 -119h-66l-38 81h-2l-70 -81h-73zM63 293q0 114 59.5 212t157 154t207.5 56q36 0 76 -6t83 -20t67 -43t16 -69l-15 -77h-67l11 58q5 26 -11 45.5t-45 29.5t-58.5 14.5t-58.5 4.5q-141 0 -245.5 -105.5t-104.5 -248.5q0 -110 64 -178.5t172 -68.5
q70 0 138.5 25t77.5 71l11 55h67l-14 -74q-10 -48 -60 -81t-107.5 -46t-113.5 -13q-140 0 -223.5 84.5t-83.5 220.5z" />
    <glyph glyph-name="ccircumflex" unicode="&#x109;" horiz-adv-x="554" 
d="M227 584l108 119h81l60 -119h-66l-38 81h-2l-70 -81h-73zM35 207q0 127 95 217.5t222 90.5q39 0 77.5 -10t67.5 -36.5t22 -64.5l-10 -53h-63l7 37q5 32 -30 49t-79 17q-91 0 -165 -71.5t-74 -171.5q0 -75 46 -118.5t120 -43.5q47 0 91 17.5t65 35.5l21 17l22 -56
q-3 -3 -9 -8t-26 -18t-42 -23t-56.5 -18t-70.5 -8q-104 0 -167.5 59.5t-63.5 159.5z" />
    <glyph glyph-name="Cdotaccent" unicode="&#x10a;" horiz-adv-x="743" 
d="M63 293q0 114 59.5 212t157 154t207.5 56q36 0 76 -6t83 -20t67 -43t16 -69l-15 -77h-67l11 58q5 26 -11 45.5t-45 29.5t-58.5 14.5t-58.5 4.5q-141 0 -245.5 -105.5t-104.5 -248.5q0 -110 64 -178.5t172 -68.5q70 0 138.5 25t77.5 71l11 55h67l-14 -74q-10 -48 -60 -81
t-107.5 -46t-113.5 -13q-140 0 -223.5 84.5t-83.5 220.5zM460 786l17 85h71l-16 -85h-72z" />
    <glyph glyph-name="cdotaccent" unicode="&#x10b;" horiz-adv-x="554" 
d="M35 207q0 127 95 217.5t222 90.5q39 0 77.5 -10t67.5 -36.5t22 -64.5l-10 -53h-63l7 37q5 32 -30 49t-79 17q-91 0 -165 -71.5t-74 -171.5q0 -75 46 -118.5t120 -43.5q47 0 91 17.5t65 35.5l21 17l22 -56q-3 -3 -9 -8t-26 -18t-42 -23t-56.5 -18t-70.5 -8
q-104 0 -167.5 59.5t-63.5 159.5zM326 618l17 85h71l-16 -85h-72z" />
    <glyph glyph-name="Ccaron" unicode="&#x10c;" horiz-adv-x="743" 
d="M451 752l-60 119h66l38 -80h2l70 80h73l-108 -119h-81zM63 293q0 114 59.5 212t157 154t207.5 56q36 0 76 -6t83 -20t67 -43t16 -69l-15 -77h-67l11 58q5 26 -11 45.5t-45 29.5t-58.5 14.5t-58.5 4.5q-141 0 -245.5 -105.5t-104.5 -248.5q0 -110 64 -178.5t172 -68.5
q70 0 138.5 25t77.5 71l11 55h67l-14 -74q-10 -48 -60 -81t-107.5 -46t-113.5 -13q-140 0 -223.5 84.5t-83.5 220.5z" />
    <glyph glyph-name="ccaron" unicode="&#x10d;" horiz-adv-x="554" 
d="M318 584l-60 119h66l38 -80h2l70 80h73l-108 -119h-81zM35 207q0 127 95 217.5t222 90.5q39 0 77.5 -10t67.5 -36.5t22 -64.5l-10 -53h-63l7 37q5 32 -30 49t-79 17q-91 0 -165 -71.5t-74 -171.5q0 -75 46 -118.5t120 -43.5q47 0 91 17.5t65 35.5l21 17l22 -56
q-3 -3 -9 -8t-26 -18t-42 -23t-56.5 -18t-70.5 -8q-104 0 -167.5 59.5t-63.5 159.5z" />
    <glyph glyph-name="Dcaron" unicode="&#x10e;" horiz-adv-x="779" 
d="M410 752l-60 119h66l38 -80h2l70 80h73l-108 -119h-81zM-1 0l11 58h91l114 587h-91l11 58h289q92 0 158 -24q156 -60 156 -253q0 -123 -63 -230t-168 -156q-83 -40 -194 -40h-314zM171 60h134q101 0 172 35q85 44 137.5 132.5t52.5 192.5q0 152 -115 201q-52 22 -134 22
h-133z" />
    <glyph glyph-name="dcaron" unicode="&#x10f;" horiz-adv-x="625" 
d="M654 703h65q1 -5 1 -21q0 -39 -22.5 -75t-61.5 -59l-29 29q50 45 50 97q0 12 -3 29zM36 190q0 140 82 232.5t193 92.5q55 0 97 -26t58 -75h2q1 21 4 42l37 191h-90l12 56h158l-112 -573q-3 -17 -3 -29q0 -28 13 -37.5t35 -9.5l25 2l-11 -56q-21 -2 -36 -2q-47 0 -72.5 25
t-18.5 72h-2q-28 -45 -77 -76t-108 -31q-89 0 -137.5 54t-48.5 148zM106 194q0 -68 33.5 -106.5t93.5 -38.5q89 0 148 81.5t59 180.5q0 62 -32 102t-94 40q-79 0 -143.5 -72t-64.5 -187z" />
    <glyph glyph-name="Dcroat" unicode="&#x110;" horiz-adv-x="787" 
d="M-1 0l11 58h91l52 265h-78l11 60h78l52 262h-92l11 58h305q144 0 225 -71.5t81 -201.5q0 -180 -118 -305t-299 -125h-330zM171 60h150q152 0 252.5 104.5t100.5 261.5q0 104 -63.5 160.5t-175.5 56.5h-149l-52 -260h170l-12 -60h-169z" />
    <glyph glyph-name="dcroat" unicode="&#x111;" horiz-adv-x="624" 
d="M36 190q0 140 82 232.5t193 92.5q55 0 97 -26t58 -75h2q1 21 4 42l22 111h-152l10 51h152l17 85h68l-17 -85h79l-9 -51h-80l-85 -437q-3 -17 -3 -29q0 -28 13 -37.5t35 -9.5l25 2l-11 -56q-21 -2 -36 -2q-47 0 -72.5 25t-18.5 72h-2q-28 -45 -77 -76t-108 -31
q-89 0 -137.5 54t-48.5 148zM106 194q0 -68 33.5 -106.5t93.5 -38.5q89 0 148 81.5t59 180.5q0 62 -32 102t-94 40q-79 0 -143.5 -72t-64.5 -187z" />
    <glyph glyph-name="Emacron" unicode="&#x112;" horiz-adv-x="627" 
d="M-2 0l12 58h91l114 587h-92l12 58h496l-29 -146h-63l17 86h-271l-50 -259h265l-12 -60h-265l-52 -264h290l18 91h63l-30 -151h-514zM293 785l10 55h247l-10 -55h-247z" />
    <glyph glyph-name="emacron" unicode="&#x113;" horiz-adv-x="553" 
d="M35 200q0 126 84.5 220.5t209.5 94.5q90 0 135.5 -50t45.5 -132q0 -17 -3.5 -37.5t-6.5 -32.5l-4 -12h-386q-5 -21 -5 -46q0 -68 42 -112t119 -44q40 0 81.5 15t62.5 30l21 16l21 -56q-9 -7 -26 -18t-66.5 -29.5t-96.5 -18.5q-103 0 -165.5 58.5t-62.5 153.5zM122 301
h315q4 18 4 38q0 58 -31.5 88.5t-83.5 30.5q-65 0 -121.5 -41.5t-82.5 -115.5zM236 617l10 55h247l-10 -55h-247z" />
    <glyph glyph-name="Ebreve" unicode="&#x114;" horiz-adv-x="627" 
d="M-2 0l12 58h91l114 587h-92l12 58h496l-29 -146h-63l17 86h-271l-50 -259h265l-12 -60h-265l-52 -264h290l18 91h63l-30 -151h-514zM414 749q-49 0 -80 30t-21 77l3 15h57l-3 -13q-6 -31 8 -46.5t40 -15.5t46 15.5t26 46.5l3 13h57l-3 -15q-9 -54 -46 -80.5t-87 -26.5z
" />
    <glyph glyph-name="ebreve" unicode="&#x115;" horiz-adv-x="553" 
d="M35 200q0 126 84.5 220.5t209.5 94.5q90 0 135.5 -50t45.5 -132q0 -17 -3.5 -37.5t-6.5 -32.5l-4 -12h-386q-5 -21 -5 -46q0 -68 42 -112t119 -44q40 0 81.5 15t62.5 30l21 16l21 -56q-9 -7 -26 -18t-66.5 -29.5t-96.5 -18.5q-103 0 -165.5 58.5t-62.5 153.5zM122 301
h315q4 18 4 38q0 58 -31.5 88.5t-83.5 30.5q-65 0 -121.5 -41.5t-82.5 -115.5zM357 581q-49 0 -80 30t-21 77l3 15h57l-3 -13q-6 -31 8 -46.5t40 -15.5t46 15.5t26 46.5l3 13h57l-3 -15q-9 -54 -46 -80.5t-87 -26.5z" />
    <glyph glyph-name="Edotaccent" unicode="&#x116;" horiz-adv-x="627" 
d="M-2 0l12 58h91l114 587h-92l12 58h496l-29 -146h-63l17 86h-271l-50 -259h265l-12 -60h-265l-52 -264h290l18 91h63l-30 -151h-514zM380 786l17 85h71l-16 -85h-72z" />
    <glyph glyph-name="edotaccent" unicode="&#x117;" horiz-adv-x="553" 
d="M35 200q0 126 84.5 220.5t209.5 94.5q90 0 135.5 -50t45.5 -132q0 -17 -3.5 -37.5t-6.5 -32.5l-4 -12h-386q-5 -21 -5 -46q0 -68 42 -112t119 -44q40 0 81.5 15t62.5 30l21 16l21 -56q-9 -7 -26 -18t-66.5 -29.5t-96.5 -18.5q-103 0 -165.5 58.5t-62.5 153.5zM122 301
h315q4 18 4 38q0 58 -31.5 88.5t-83.5 30.5q-65 0 -121.5 -41.5t-82.5 -115.5zM324 618l17 85h71l-16 -85h-72z" />
    <glyph glyph-name="Eogonek" unicode="&#x118;" horiz-adv-x="627" 
d="M-2 0l12 58h91l114 587h-92l12 58h496l-29 -146h-63l17 86h-271l-50 -259h265l-12 -60h-265l-52 -264h290l18 91h63l-30 -151h-5q-17 0 -61 -41t-44 -74q0 -17 13.5 -28t24.5 -13.5t18 -2.5l-24 -53q-10 1 -22.5 5t-30 12.5t-29.5 25.5t-12 40q0 69 89 129h-431z" />
    <glyph glyph-name="eogonek" unicode="&#x119;" horiz-adv-x="553" 
d="M35 200q0 126 84 220.5t208 94.5q90 0 136.5 -50t46.5 -132q0 -17 -3.5 -37.5t-6.5 -32.5l-4 -12h-386q-5 -21 -5 -46q0 -68 42 -112t119 -44q40 0 81.5 15t62.5 30l21 16l21 -56q-40 -29 -96 -52q-29 -12 -65 -46.5t-36 -70.5q0 -17 13.5 -28t24.5 -13.5t18 -2.5
l-24 -53q-10 1 -22.5 5t-30 12.5t-29.5 25.5t-12 40q0 62 73 117q-105 0 -168 58.5t-63 153.5zM122 301h315q4 18 4 38q0 58 -31.5 88.5t-83.5 30.5q-65 0 -121.5 -41.5t-82.5 -115.5z" />
    <glyph glyph-name="Ecaron" unicode="&#x11a;" horiz-adv-x="627" 
d="M372 752l-60 119h66l38 -80h2l70 80h73l-108 -119h-81zM-2 0l12 58h91l114 587h-92l12 58h496l-29 -146h-63l17 86h-271l-50 -259h265l-12 -60h-265l-52 -264h290l18 91h63l-30 -151h-514z" />
    <glyph glyph-name="ecaron" unicode="&#x11b;" horiz-adv-x="553" 
d="M315 584l-60 119h66l38 -80h2l70 80h73l-108 -119h-81zM35 200q0 126 84.5 220.5t209.5 94.5q90 0 135.5 -50t45.5 -132q0 -17 -3.5 -37.5t-6.5 -32.5l-4 -12h-386q-5 -21 -5 -46q0 -68 42 -112t119 -44q40 0 81.5 15t62.5 30l21 16l21 -56q-9 -7 -26 -18t-66.5 -29.5
t-96.5 -18.5q-103 0 -165.5 58.5t-62.5 153.5zM122 301h315q4 18 4 38q0 58 -31.5 88.5t-83.5 30.5q-65 0 -121.5 -41.5t-82.5 -115.5z" />
    <glyph glyph-name="Gcircumflex" unicode="&#x11c;" horiz-adv-x="771" 
d="M371 752l108 119h81l60 -119h-66l-38 81h-2l-70 -81h-73zM62 291q0 173 125.5 298.5t302.5 125.5q61 0 120.5 -14.5t100 -47t32.5 -76.5l-15 -77h-67l10 53q7 33 -23 56.5t-71.5 33t-85.5 9.5q-147 0 -251.5 -107t-104.5 -249q0 -109 67.5 -177t181.5 -68q73 0 144.5 25
t81.5 77l22 110h-147l11 58h214l-37 -185q-10 -52 -62 -87t-111 -48t-120 -13q-146 0 -232 83.5t-86 219.5z" />
    <glyph glyph-name="gcircumflex" unicode="&#x11d;" horiz-adv-x="613" 
d="M224 584l108 119h81l60 -119h-66l-38 81h-2l-70 -81h-73zM39 -117q56 -33 132 -33q181 0 211 181q4 20 8 36t6 23l3 6h-2q-61 -93 -168 -93q-89 0 -140 54.5t-51 145.5q0 74 29.5 143.5t92 119t143.5 49.5q61 0 105 -24.5t55 -67.5h2q-1 7 2 23q5 29 21 43t47 14h91
l-10 -56h-62q-22 0 -27 -21l-81 -419q-22 -112 -97 -164.5t-173 -52.5q-93 0 -169 42zM108 207q0 -67 35 -105t98 -38t109 44t66 103t20 120q0 123 -129 123q-90 0 -144.5 -75t-54.5 -172z" />
    <glyph glyph-name="Gbreve" unicode="&#x11e;" horiz-adv-x="771" 
d="M62 291q0 173 125.5 298.5t302.5 125.5q61 0 120.5 -14.5t100 -47t32.5 -76.5l-15 -77h-67l10 53q7 33 -23 56.5t-71.5 33t-85.5 9.5q-147 0 -251.5 -107t-104.5 -249q0 -109 67.5 -177t181.5 -68q73 0 144.5 25t81.5 77l22 110h-147l11 58h214l-37 -185q-10 -52 -62 -87
t-111 -48t-120 -13q-146 0 -232 83.5t-86 219.5zM503 749q-49 0 -80 30t-21 77l3 15h57l-3 -13q-6 -31 8 -46.5t40 -15.5t46 15.5t26 46.5l3 13h57l-3 -15q-9 -54 -46 -80.5t-87 -26.5z" />
    <glyph glyph-name="gbreve" unicode="&#x11f;" horiz-adv-x="613" 
d="M39 -117q56 -33 132 -33q181 0 211 181q4 20 8 36t6 23l3 6h-2q-61 -93 -168 -93q-89 0 -140 54.5t-51 145.5q0 74 29.5 143.5t92 119t143.5 49.5q61 0 105 -24.5t55 -67.5h2q-1 7 2 23q5 29 21 43t47 14h91l-10 -56h-62q-22 0 -27 -21l-81 -419q-22 -112 -97 -164.5
t-173 -52.5q-93 0 -169 42zM108 207q0 -67 35 -105t98 -38t109 44t66 103t20 120q0 123 -129 123q-90 0 -144.5 -75t-54.5 -172zM357 581q-49 0 -80 30t-21 77l3 15h57l-3 -13q-6 -31 8 -46.5t40 -15.5t46 15.5t26 46.5l3 13h57l-3 -15q-9 -54 -46 -80.5t-87 -26.5z" />
    <glyph glyph-name="Gdotaccent" unicode="&#x120;" horiz-adv-x="771" 
d="M62 291q0 173 125.5 298.5t302.5 125.5q61 0 120.5 -14.5t100 -47t32.5 -76.5l-15 -77h-67l10 53q7 33 -23 56.5t-71.5 33t-85.5 9.5q-147 0 -251.5 -107t-104.5 -249q0 -109 67.5 -177t181.5 -68q73 0 144.5 25t81.5 77l22 110h-147l11 58h214l-37 -185q-10 -52 -62 -87
t-111 -48t-120 -13q-146 0 -232 83.5t-86 219.5zM470 786l17 85h71l-16 -85h-72z" />
    <glyph glyph-name="gdotaccent" unicode="&#x121;" horiz-adv-x="613" 
d="M39 -117q56 -33 132 -33q181 0 211 181q4 20 8 36t6 23l3 6h-2q-61 -93 -168 -93q-89 0 -140 54.5t-51 145.5q0 74 29.5 143.5t92 119t143.5 49.5q61 0 105 -24.5t55 -67.5h2q-1 7 2 23q5 29 21 43t47 14h91l-10 -56h-62q-22 0 -27 -21l-81 -419q-22 -112 -97 -164.5
t-173 -52.5q-93 0 -169 42zM108 207q0 -67 35 -105t98 -38t109 44t66 103t20 120q0 123 -129 123q-90 0 -144.5 -75t-54.5 -172zM323 618l17 85h71l-16 -85h-72z" />
    <glyph glyph-name="Gcommaaccent" unicode="&#x122;" horiz-adv-x="771" 
d="M301 -62h65q1 -5 1 -21q0 -39 -22.5 -75t-61.5 -59l-29 29q50 45 50 97q0 13 -3 29zM62 291q0 173 125.5 298.5t302.5 125.5q61 0 120.5 -14.5t100 -47t32.5 -76.5l-15 -77h-67l10 53q7 33 -23 56.5t-71.5 33t-85.5 9.5q-147 0 -251.5 -107t-104.5 -249q0 -109 67.5 -177
t181.5 -68q73 0 144.5 25t81.5 77l22 110h-147l11 58h214l-37 -185q-10 -52 -62 -87t-111 -48t-120 -13q-146 0 -232 83.5t-86 219.5z" />
    <glyph glyph-name="gcommaaccent" unicode="&#x123;" horiz-adv-x="613" 
d="M374 577h-65q-1 5 -1 21q0 39 22.5 75t61.5 59l29 -29q-50 -45 -50 -97q0 -12 3 -29zM39 -117q56 -33 132 -33q181 0 211 181q4 20 8 36t6 23l3 6h-2q-61 -93 -168 -93q-89 0 -140 54.5t-51 145.5q0 74 29.5 143.5t92 119t143.5 49.5q61 0 105 -24.5t55 -67.5h2
q-1 7 2 23q5 29 21 43t47 14h91l-10 -56h-62q-22 0 -27 -21l-81 -419q-22 -112 -97 -164.5t-173 -52.5q-93 0 -169 42zM108 207q0 -67 35 -105t98 -38t109 44t66 103t20 120q0 123 -129 123q-90 0 -144.5 -75t-54.5 -172z" />
    <glyph glyph-name="Hcircumflex" unicode="&#x124;" horiz-adv-x="841" 
d="M382 752l108 119h81l60 -119h-66l-38 81h-2l-70 -81h-73zM-1 0l11 58h91l114 587h-91l11 58h254l-11 -58h-92l-51 -263h406l51 263h-92l12 58h254l-12 -58h-92l-114 -587h92l-12 -58h-254l12 58h92l51 264h-406l-52 -264h92l-11 -58h-253z" />
    <glyph glyph-name="hcircumflex" unicode="&#x125;" horiz-adv-x="628" 
d="M87 752l108 119h81l60 -119h-66l-38 81h-2l-70 -81h-73zM35 0l125 647h-86l11 56h154l-52 -273l-13 -45h2q22 43 82 86.5t138 43.5q67 0 103 -33.5t36 -96.5q0 -33 -23.5 -150t-23.5 -134q0 -29 12.5 -38t35.5 -9l25 2l-11 -56q-20 -2 -37 -2q-96 0 -96 86
q0 21 23.5 137.5t23.5 145.5q0 42 -22.5 63t-62.5 21q-83 0 -148.5 -64.5t-83.5 -155.5l-44 -231h-68z" />
    <glyph glyph-name="Hbar" unicode="&#x126;" horiz-adv-x="840" 
d="M-2 0l12 58h91l85 437h-84l10 48h84l19 102h-92l12 58h254l-12 -58h-92l-19 -102h406l20 102h-92l11 58h255l-12 -58h-92l-20 -102h84l-9 -48h-84l-86 -437h93l-12 -58h-254l11 58h92l52 262h-407l-51 -262h92l-12 -58h-253zM233 374h407l23 121h-407z" />
    <glyph glyph-name="hbar" unicode="&#x127;" horiz-adv-x="627" 
d="M34 0l110 567h-76l10 51h76l17 85h68l-17 -85h153l-10 -51h-153l-26 -137l-13 -45h2q22 43 82 86.5t138 43.5q67 0 103 -33.5t36 -96.5q0 -33 -23.5 -150t-23.5 -134q0 -29 12.5 -38t35.5 -9l25 2l-11 -56q-20 -2 -37 -2q-96 0 -96 86q0 21 23.5 137.5t23.5 145.5
q0 42 -22.5 63t-62.5 21q-83 0 -148.5 -64.5t-83.5 -155.5l-44 -231h-68z" />
    <glyph glyph-name="Itilde" unicode="&#x128;" horiz-adv-x="364" 
d="M-1 0l11 58h91l114 587h-91l11 58h254l-11 -58h-93l-114 -587h92l-11 -58h-253zM119 755q11 56 38.5 86.5t67.5 30.5q23 0 40 -11t25 -24t20 -24t25 -11q36 0 50 67h58q-10 -57 -38 -87t-68 -30q-23 0 -40 11t-25 23.5t-20 23.5t-25 11q-37 0 -50 -66h-58z" />
    <glyph glyph-name="itilde" unicode="&#x129;" horiz-adv-x="296" 
d="M74 86q0 9 4 37l64 324h-90l11 56h158l-74 -373q-3 -16 -3 -29q0 -28 13 -37.5t35 -9.5l25 2l-11 -56q-21 -2 -35 -2q-97 0 -97 88zM52 587q11 56 38.5 86.5t67.5 30.5q23 0 40 -11t25 -24t20 -24t25 -11q36 0 50 67h58q-10 -57 -38 -87t-68 -30q-23 0 -40 11t-25 23.5
t-20 23.5t-25 11q-37 0 -50 -66h-58z" />
    <glyph glyph-name="Imacron" unicode="&#x12a;" horiz-adv-x="364" 
d="M-1 0l11 58h91l114 587h-91l11 58h254l-11 -58h-93l-114 -587h92l-11 -58h-253zM153 785l10 55h247l-10 -55h-247z" />
    <glyph glyph-name="imacron" unicode="&#x12b;" horiz-adv-x="296" 
d="M74 86q0 9 4 37l64 324h-90l11 56h158l-74 -373q-3 -16 -3 -29q0 -28 13 -37.5t35 -9.5l25 2l-11 -56q-21 -2 -35 -2q-97 0 -97 88zM86 617l10 55h247l-10 -55h-247z" />
    <glyph glyph-name="Ibreve" unicode="&#x12c;" horiz-adv-x="364" 
d="M-1 0l11 58h91l114 587h-91l11 58h254l-11 -58h-93l-114 -587h92l-11 -58h-253zM274 749q-49 0 -80 30t-21 77l3 15h57l-3 -13q-6 -31 8 -46.5t40 -15.5t46 15.5t26 46.5l3 13h57l-3 -15q-9 -54 -46 -80.5t-87 -26.5z" />
    <glyph glyph-name="ibreve" unicode="&#x12d;" horiz-adv-x="296" 
d="M74 86q0 9 4 37l64 324h-90l11 56h158l-74 -373q-3 -16 -3 -29q0 -28 13 -37.5t35 -9.5l25 2l-11 -56q-21 -2 -35 -2q-97 0 -97 88zM207 581q-49 0 -80 30t-21 77l3 15h57l-3 -13q-6 -31 8 -46.5t40 -15.5t46 15.5t26 46.5l3 13h57l-3 -15q-9 -54 -46 -80.5t-87 -26.5z
" />
    <glyph glyph-name="Iogonek" unicode="&#x12e;" horiz-adv-x="364" 
d="M-1 0l11 58h91l114 587h-91l11 58h254l-11 -58h-93l-114 -587h92l-11 -58h-5q-18 0 -62 -40.5t-44 -74.5q0 -17 13.5 -28t24.5 -13.5t18 -2.5l-24 -53q-10 1 -22.5 5t-30 12.5t-29.5 25.5t-12 40q0 69 89 129h-169z" />
    <glyph glyph-name="iogonek" unicode="&#x12f;" horiz-adv-x="297" 
d="M36 -129q0 69 94 132q-56 17 -56 83q0 14 5 37l63 324h-90l12 56h158l-74 -373q-3 -16 -3 -29q0 -28 13 -37.5t35 -9.5l25 2l-11 -56q-5 0 -9 -1q-23 -7 -61.5 -45t-38.5 -69q0 -17 13.5 -28t24.5 -13.5t18 -2.5l-24 -53q-10 1 -22.5 5t-30 12.5t-29.5 25.5t-12 40z
M171 618l17 85h77l-17 -85h-77z" />
    <glyph glyph-name="Idotaccent" unicode="&#x130;" horiz-adv-x="364" 
d="M-1 0l11 58h91l114 587h-91l11 58h254l-11 -58h-93l-114 -587h92l-11 -58h-253zM241 786l17 85h71l-16 -85h-72z" />
    <glyph glyph-name="dotlessi" unicode="&#x131;" horiz-adv-x="296" 
d="M74 86q0 9 4 37l64 324h-90l11 56h158l-74 -373q-3 -16 -3 -29q0 -28 13 -37.5t35 -9.5l25 2l-11 -56q-21 -2 -35 -2q-97 0 -97 88z" />
    <glyph glyph-name="IJ" unicode="&#x132;" horiz-adv-x="702" 
d="M297 -4l11 61q146 -2 179 164l82 424h-94l12 58h254l-12 -58h-90l-82 -420q-14 -72 -41 -120t-64 -70.5t-73 -31t-82 -7.5zM-1 0l12 58h91l113 587h-92l12 58h254l-12 -58h-92l-113 -587h81l-12 -58h-242z" />
    <glyph glyph-name="ij" unicode="&#x133;" horiz-adv-x="563" 
d="M170 618l17 85h77l-17 -85h-77zM73 86q0 2 5 37l64 324h-90l11 56h158l-74 -373q-3 -16 -3 -29q0 -28 13 -37.5t35 -9.5l25 2l-11 -56q-21 -2 -35 -2q-98 0 -98 88zM462 618l16 85h77l-17 -85h-76zM343 -18l90 465h-90l11 56h158l-101 -519q-9 -48 -28 -84t-40 -55.5
t-47 -31.5t-45.5 -15.5t-39.5 -3.5l-40 3l12 57q8 -2 22 -2q18 0 35.5 4.5t39 17t38.5 40.5t25 68z" />
    <glyph glyph-name="Jcircumflex" unicode="&#x134;" horiz-adv-x="542" 
d="M343 752l108 119h81l60 -119h-66l-38 81h-2l-70 -81h-73zM3 147q0 16 3 35.5t6 31.5l3 11h68q-11 -38 -11 -69q0 -104 103 -104q53 0 96.5 34.5t58.5 109.5l86 449h-108l12 58h260l-12 -58h-82l-88 -455q-20 -104 -83.5 -153t-141.5 -49q-73 0 -121.5 39.5t-48.5 119.5z
" />
    <glyph glyph-name="jcircumflex" unicode="&#x135;" horiz-adv-x="276" 
d="M60 584l108 119h81l60 -119h-65l-39 81h-2l-70 -81h-73zM56 -18l90 465h-90l11 56h158l-101 -519q-9 -48 -28 -84t-40 -55.5t-47 -31.5t-45.5 -15.5t-39.5 -3.5l-40 3l12 57q8 -2 22 -2q18 0 35.5 4.5t39 17t38.5 40.5t25 68z" />
    <glyph glyph-name="Kcommaaccent" unicode="&#x136;" horiz-adv-x="670" 
d="M243 -62h65q1 -5 1 -21q0 -39 -22.5 -75t-61.5 -59l-29 29q50 45 50 97q0 13 -3 29zM-1 0l11 58h91l114 587h-91l11 58h248l-11 -58h-87l-48 -248h98l220 248h-64l12 58h217l-11 -58h-72l-247 -275v-2q12 -8 25 -39l91 -227q9 -24 20.5 -35t38.5 -11l29 2l-11 -58
q-1 0 -15.5 -1t-22.5 -1q-48 0 -70.5 21.5t-40.5 67.5l-84 217q-14 33 -52 33h-73l-54 -279h91l-11 -58h-252z" />
    <glyph glyph-name="kcommaaccent" unicode="&#x137;" horiz-adv-x="534" 
d="M176 -62h65q1 -5 1 -21q0 -39 -22.5 -75t-61.5 -59l-29 29q50 45 50 97q0 13 -3 29zM34 0l127 647h-90l11 56h158l-78 -396h69l152 140h-68l11 56h210l-11 -56h-62l-179 -165v-2q13 -10 26 -37l65 -145q10 -23 21.5 -33.5t37.5 -10.5l28 2l-11 -56l-13 -1q-14 -1 -23 -1
q-25 0 -42.5 6t-30 20t-18.5 25.5t-17 35.5l-65 143q-6 14 -15.5 18.5t-28.5 4.5h-46l-50 -251h-68z" />
    <glyph glyph-name="kgreenlandic" unicode="&#x138;" horiz-adv-x="560" 
d="M60 0l87 447h-90l11 56h158l-38 -195h71l151 139h-68l11 56h208l-11 -56h-63l-178 -166v-2q14 -9 26 -36l66 -145q10 -23 21.5 -33.5t37.5 -10.5l28 2l-11 -56q-1 0 -14 -1t-21 -1q-32 0 -54 13t-31 28t-23 46l-65 143q-6 14 -15.5 18.5t-29.5 4.5h-47l-50 -251h-67z" />
    <glyph glyph-name="Lacute" unicode="&#x139;" horiz-adv-x="590" 
d="M218 752l122 119h91l-137 -119h-76zM-1 0l11 58h91l114 585h-92l12 60h254l-12 -60h-92l-113 -583h280l24 117h63l-35 -177h-505z" />
    <glyph glyph-name="lacute" unicode="&#x13a;" horiz-adv-x="274" 
d="M162 752l122 119h91l-137 -119h-76zM52 88q0 15 5 38l101 521h-90l11 56h158l-110 -569q-4 -24 -4 -33q0 -20 7.5 -30.5t16.5 -12.5t24 -2l25 2l-11 -58q-19 -3 -35 -3q-98 0 -98 91z" />
    <glyph glyph-name="Lcommaaccent" unicode="&#x13b;" horiz-adv-x="590" 
d="M232 -62h65q1 -5 1 -21q0 -39 -22.5 -75t-61.5 -59l-29 29q50 45 50 97q0 13 -3 29zM-1 0l11 58h91l114 585h-92l12 60h254l-12 -60h-92l-113 -583h280l24 117h63l-35 -177h-505z" />
    <glyph glyph-name="lcommaaccent" unicode="&#x13c;" horiz-adv-x="274" 
d="M60 -62h65q1 -5 1 -21q0 -39 -22.5 -75t-61.5 -59l-29 29q50 45 50 97q0 13 -3 29zM52 88q0 15 5 38l101 521h-90l11 56h158l-110 -569q-4 -24 -4 -33q0 -20 7.5 -30.5t16.5 -12.5t24 -2l25 2l-11 -58q-19 -3 -35 -3q-98 0 -98 91z" />
    <glyph glyph-name="Lcaron" unicode="&#x13d;" horiz-adv-x="590" 
d="M232 -62h65q1 -5 1 -21q0 -39 -22.5 -75t-61.5 -59l-29 29q50 45 50 97q0 13 -3 29zM-1 0l11 58h91l114 585h-92l12 60h254l-12 -60h-92l-113 -583h280l24 117h63l-35 -177h-505z" />
    <glyph glyph-name="lcaron" unicode="&#x13e;" horiz-adv-x="274" 
d="M304 703h65q1 -5 1 -21q0 -39 -22.5 -75t-61.5 -59l-29 29q50 45 50 97q0 12 -3 29zM52 88q0 15 5 38l101 521h-90l11 56h158l-110 -569q-4 -24 -4 -33q0 -20 7.5 -30.5t16.5 -12.5t24 -2l25 2l-11 -58q-19 -3 -35 -3q-98 0 -98 91z" />
    <glyph glyph-name="Ldot" unicode="&#x13f;" horiz-adv-x="590" 
d="M-1 0l11 58h91l114 585h-92l12 60h254l-12 -60h-92l-113 -583h280l24 117h63l-35 -177h-505zM348 331l16 83h80l-16 -83h-80z" />
    <glyph glyph-name="ldot" unicode="&#x140;" horiz-adv-x="321" 
d="M52 88q0 15 5 38l101 521h-90l11 56h158l-110 -569q-4 -24 -4 -33q0 -20 7.5 -30.5t16.5 -12.5t24 -2l25 2l-11 -58q-19 -3 -35 -3q-98 0 -98 91zM250 331l16 83h80l-16 -83h-80z" />
    <glyph glyph-name="Lslash" unicode="&#x141;" horiz-adv-x="592" 
d="M-1 0l12 58h91l46 238l-97 -46l14 67l96 45l55 281h-92l12 60h254l-12 -60h-92l-48 -244l240 114l-13 -68l-239 -113l-54 -272h283l23 117h62l-35 -177h-506z" />
    <glyph glyph-name="lslash" unicode="&#x142;" horiz-adv-x="274" 
d="M57 123l45 233l-92 -47l12 67l93 48l44 223h-90l11 56h158l-47 -241l102 53l-13 -67l-102 -53l-51 -264q-9 -45 3.5 -60.5t38.5 -15.5l17 1l-12 -58q-12 -2 -25 -2q-19 0 -35 4t-34.5 17.5t-23 38.5t0.5 67z" />
    <glyph glyph-name="Nacute" unicode="&#x143;" horiz-adv-x="833" 
d="M460 752l122 119h91l-137 -119h-76zM-2 0l12 58h91l114 587h-92l12 58h157l285 -558l14 -41h2q2 28 6 46l98 495h-93l11 58h255l-11 -58h-92l-126 -645h-67l-286 559l-13 41h-2q-2 -28 -6 -46l-96 -496h93l-12 -58h-254z" />
    <glyph glyph-name="nacute" unicode="&#x144;" horiz-adv-x="654" 
d="M349 584l122 119h91l-137 -119h-76zM60 0l83 425q4 22 -18 22h-68l11 56h96q51 0 51 -41q0 -10 -5.5 -38t-11.5 -42h2q21 44 81.5 88.5t142.5 44.5q66 0 101.5 -33.5t35.5 -95.5q0 -34 -23.5 -151t-23.5 -134q0 -29 12.5 -38t35.5 -9l25 2l-11 -56q-20 -2 -37 -2
q-96 0 -96 86q0 21 23.5 137.5t23.5 145.5q0 84 -87 84q-80 0 -146.5 -65t-83.5 -155l-45 -231h-68z" />
    <glyph glyph-name="Ncommaaccent" unicode="&#x145;" horiz-adv-x="833" 
d="M316 -62h65q1 -5 1 -21q0 -39 -22.5 -75t-61.5 -59l-29 29q50 45 50 97q0 13 -3 29zM-2 0l12 58h91l114 587h-92l12 58h157l285 -558l14 -41h2q2 28 6 46l98 495h-93l11 58h255l-11 -58h-92l-126 -645h-67l-286 559l-13 41h-2q-2 -28 -6 -46l-96 -496h93l-12 -58h-254z
" />
    <glyph glyph-name="ncommaaccent" unicode="&#x146;" horiz-adv-x="654" 
d="M260 -62h65q1 -5 1 -21q0 -39 -22.5 -75t-61.5 -59l-29 29q50 45 50 97q0 13 -3 29zM60 0l83 425q4 22 -18 22h-68l11 56h96q51 0 51 -41q0 -10 -5.5 -38t-11.5 -42h2q21 44 81.5 88.5t142.5 44.5q66 0 101.5 -33.5t35.5 -95.5q0 -34 -23.5 -151t-23.5 -134
q0 -29 12.5 -38t35.5 -9l25 2l-11 -56q-20 -2 -37 -2q-96 0 -96 86q0 21 23.5 137.5t23.5 145.5q0 84 -87 84q-80 0 -146.5 -65t-83.5 -155l-45 -231h-68z" />
    <glyph glyph-name="Ncaron" unicode="&#x147;" horiz-adv-x="833" 
d="M473 752l-60 119h66l38 -80h2l70 80h73l-108 -119h-81zM-2 0l12 58h91l114 587h-92l12 58h157l285 -558l14 -41h2q2 28 6 46l98 495h-93l11 58h255l-11 -58h-92l-126 -645h-67l-286 559l-13 41h-2q-2 -28 -6 -46l-96 -496h93l-12 -58h-254z" />
    <glyph glyph-name="ncaron" unicode="&#x148;" horiz-adv-x="654" 
d="M362 584l-60 119h66l38 -80h2l70 80h73l-108 -119h-81zM60 0l83 425q4 22 -18 22h-68l11 56h96q51 0 51 -41q0 -10 -5.5 -38t-11.5 -42h2q21 44 81.5 88.5t142.5 44.5q66 0 101.5 -33.5t35.5 -95.5q0 -34 -23.5 -151t-23.5 -134q0 -29 12.5 -38t35.5 -9l25 2l-11 -56
q-20 -2 -37 -2q-96 0 -96 86q0 21 23.5 137.5t23.5 145.5q0 84 -87 84q-80 0 -146.5 -65t-83.5 -155l-45 -231h-68z" />
    <glyph glyph-name="napostrophe" unicode="&#x149;" horiz-adv-x="654" 
d="M132 710h65q1 -5 1 -21q0 -39 -22.5 -75t-61.5 -59l-29 29q50 45 50 97q0 13 -3 29zM60 0l83 425q4 22 -18 22h-68l11 56h96q51 0 51 -41q0 -10 -5.5 -38t-11.5 -42h2q21 44 81.5 88.5t142.5 44.5q66 0 101.5 -33.5t35.5 -95.5q0 -34 -23.5 -151t-23.5 -134
q0 -29 12.5 -38t35.5 -9l25 2l-11 -56q-20 -2 -37 -2q-96 0 -96 86q0 21 23.5 137.5t23.5 145.5q0 84 -87 84q-80 0 -146.5 -65t-83.5 -155l-45 -231h-68z" />
    <glyph glyph-name="Eng" unicode="&#x14a;" horiz-adv-x="832" 
d="M-2 0l12 58h91l114 587h-92l12 58h158l284 -558l14 -41h2q3 28 6 46l98 495h-93l11 58h255l-11 -58h-92l-121 -617q-14 -71 -40.5 -119t-63 -72t-73.5 -33t-85 -9l12 62q143 0 176 146l-284 556l-13 41h-2q-3 -28 -6 -46l-96 -496h93l-12 -58h-254z" />
    <glyph glyph-name="eng" unicode="&#x14b;" horiz-adv-x="630" 
d="M60 0l83 425q4 22 -18 22h-68l11 56h96q51 0 51 -41q0 -10 -5.5 -38t-11.5 -42h2q21 44 81.5 88.5t142.5 44.5q66 0 101.5 -33.5t35.5 -95.5q0 -32 -11 -85l-62 -321q-12 -59 -37 -100t-56.5 -59t-56.5 -24.5t-50 -6.5l-41 3l12 57q8 -2 22 -2q18 0 35.5 4.5t39 17
t39 40.5t25.5 68l60 311q10 56 10 78q0 84 -87 84q-80 0 -146.5 -65t-83.5 -155l-45 -231h-68z" />
    <glyph glyph-name="Omacron" unicode="&#x14c;" horiz-adv-x="826" 
d="M385 785l10 55h247l-10 -55h-247zM61 292q0 112 61 210t159.5 155.5t207.5 57.5q133 0 216.5 -83t83.5 -213q0 -113 -61.5 -213.5t-160.5 -159t-207 -58.5q-133 0 -216 85.5t-83 218.5zM132 294q0 -107 65.5 -174.5t168.5 -67.5q86 0 167 48.5t132.5 133.5t51.5 182
q0 104 -65.5 169.5t-169.5 65.5q-135 0 -242.5 -106.5t-107.5 -250.5z" />
    <glyph glyph-name="omacron" unicode="&#x14d;" horiz-adv-x="624" 
d="M252 617l10 55h247l-10 -55h-247zM34 208q0 127 95 217t220 90q99 0 161.5 -61t62.5 -156q0 -128 -96 -219t-219 -91q-99 0 -161.5 61.5t-62.5 158.5zM104 210q0 -71 44.5 -116t115.5 -45q91 0 165 72.5t74 173.5q0 70 -45 114.5t-116 44.5q-93 0 -165.5 -72t-72.5 -172z
" />
    <glyph glyph-name="Obreve" unicode="&#x14e;" horiz-adv-x="826" 
d="M61 292q0 112 61 210t159.5 155.5t207.5 57.5q133 0 216.5 -83t83.5 -213q0 -113 -61.5 -213.5t-160.5 -159t-207 -58.5q-133 0 -216 85.5t-83 218.5zM132 294q0 -107 65.5 -174.5t168.5 -67.5q86 0 167 48.5t132.5 133.5t51.5 182q0 104 -65.5 169.5t-169.5 65.5
q-135 0 -242.5 -106.5t-107.5 -250.5zM507 749q-49 0 -80 30t-21 77l3 15h57l-3 -13q-6 -31 8 -46.5t40 -15.5t46 15.5t26 46.5l3 13h57l-3 -15q-9 -54 -46 -80.5t-87 -26.5z" />
    <glyph glyph-name="obreve" unicode="&#x14f;" horiz-adv-x="624" 
d="M34 208q0 127 95 217t220 90q99 0 161.5 -61t62.5 -156q0 -128 -96 -219t-219 -91q-99 0 -161.5 61.5t-62.5 158.5zM104 210q0 -71 44.5 -116t115.5 -45q91 0 165 72.5t74 173.5q0 70 -45 114.5t-116 44.5q-93 0 -165.5 -72t-72.5 -172zM373 581q-49 0 -80 30t-21 77
l3 15h57l-3 -13q-6 -31 8 -46.5t40 -15.5t46 15.5t26 46.5l3 13h57l-3 -15q-9 -54 -46 -80.5t-87 -26.5z" />
    <glyph glyph-name="Ohungarumlaut" unicode="&#x150;" horiz-adv-x="826" 
d="M521 752l93 119h85l-110 -119h-68zM384 752l89 119h75l-91 -119h-73zM61 292q0 112 61 210t159.5 155.5t207.5 57.5q133 0 216.5 -83t83.5 -213q0 -113 -61.5 -213.5t-160.5 -159t-207 -58.5q-133 0 -216 85.5t-83 218.5zM132 294q0 -107 65.5 -174.5t168.5 -67.5
q86 0 167 48.5t132.5 133.5t51.5 182q0 104 -65.5 169.5t-169.5 65.5q-135 0 -242.5 -106.5t-107.5 -250.5z" />
    <glyph glyph-name="ohungarumlaut" unicode="&#x151;" horiz-adv-x="624" 
d="M387 584l93 119h85l-110 -119h-68zM250 584l89 119h75l-91 -119h-73zM34 208q0 127 95 217t220 90q99 0 161.5 -61t62.5 -156q0 -128 -96 -219t-219 -91q-99 0 -161.5 61.5t-62.5 158.5zM104 210q0 -71 44.5 -116t115.5 -45q91 0 165 72.5t74 173.5q0 70 -45 114.5
t-116 44.5q-93 0 -165.5 -72t-72.5 -172z" />
    <glyph glyph-name="OE" unicode="&#x152;" horiz-adv-x="965" 
d="M62 287q0 113 58 211.5t155 156.5t207 58q25 0 70.5 -5t62.5 -5h355l-29 -146h-62l17 86h-272l-50 -259h264l-12 -60h-264l-51 -264h290l17 87h62l-29 -147h-362q-14 0 -56.5 -5t-64.5 -5q-139 0 -222.5 83t-83.5 214zM134 284q0 -104 63 -168t172 -64q17 0 35 2t28 4
l9 2l113 583q-31 8 -69 8q-143 0 -247 -108t-104 -259z" />
    <glyph glyph-name="oe" unicode="&#x153;" horiz-adv-x="1014" 
d="M35 208q0 126 94.5 216.5t216.5 90.5q75 0 128.5 -37t76.5 -99h2q39 62 100.5 99t134.5 37q90 0 136.5 -50t46.5 -132q0 -17 -3.5 -38t-7.5 -33l-3 -12h-386q-5 -21 -5 -46q0 -67 42 -111t119 -44q40 0 81 15t62 30l21 16l22 -56q-9 -7 -25.5 -18t-65.5 -29.5t-97 -18.5
q-79 0 -134.5 36.5t-76.5 101.5h-2q-42 -63 -110 -100.5t-140 -37.5q-101 0 -164 61.5t-63 158.5zM584 301h314q4 18 4 38q0 58 -31.5 88.5t-83.5 30.5q-65 0 -121 -41.5t-82 -115.5zM105 210q0 -71 44.5 -116t115.5 -45q91 0 165 72.5t74 173.5q0 70 -45 114.5t-116 44.5
q-93 0 -165.5 -72t-72.5 -172z" />
    <glyph glyph-name="Racute" unicode="&#x154;" horiz-adv-x="693" 
d="M367 752l122 119h91l-137 -119h-76zM-2 0l12 58h91l114 587h-92l12 58h300q85 0 130 -24q74 -41 74 -140q0 -86 -55.5 -151t-142.5 -78v-3q14 -17 19 -31l69 -174q9 -24 20.5 -35t38.5 -11l28 2l-11 -58l-15 -1q-14 -1 -23 -1q-48 0 -70 22t-39 67l-65 168
q-10 26 -25 34.5t-44 8.5h-106l-47 -240h91l-12 -58h-252zM230 358h163q70 0 122 49t52 124q0 65 -44 92q-33 20 -102 20h-136z" />
    <glyph glyph-name="racute" unicode="&#x155;" horiz-adv-x="383" 
d="M205 584l122 119h91l-137 -119h-76zM60 0l82 425q4 22 -18 22h-68l11 56h96q51 0 51 -41q0 -10 -7 -42.5t-13 -49.5h2q29 59 77 98.5t107 39.5q18 0 30 -3l-13 -67q-14 2 -25 2q-51 0 -96.5 -41t-73 -96t-38.5 -113l-36 -190h-68z" />
    <glyph glyph-name="Rcommaaccent" unicode="&#x156;" horiz-adv-x="693" 
d="M262 -62h65q1 -5 1 -21q0 -39 -22.5 -75t-61.5 -59l-29 29q50 45 50 97q0 13 -3 29zM-2 0l12 58h91l114 587h-92l12 58h300q85 0 130 -24q74 -41 74 -140q0 -86 -55.5 -151t-142.5 -78v-3q14 -17 19 -31l69 -174q9 -24 20.5 -35t38.5 -11l28 2l-11 -58l-15 -1
q-14 -1 -23 -1q-48 0 -70 22t-39 67l-65 168q-10 26 -25 34.5t-44 8.5h-106l-47 -240h91l-12 -58h-252zM230 358h163q70 0 122 49t52 124q0 65 -44 92q-33 20 -102 20h-136z" />
    <glyph glyph-name="rcommaaccent" unicode="&#x157;" horiz-adv-x="383" 
d="M48 -62h65q1 -5 1 -21q0 -39 -22.5 -75t-61.5 -59l-29 29q50 45 50 97q0 13 -3 29zM60 0l82 425q4 22 -18 22h-68l11 56h96q51 0 51 -41q0 -10 -7 -42.5t-13 -49.5h2q29 59 77 98.5t107 39.5q18 0 30 -3l-13 -67q-14 2 -25 2q-51 0 -96.5 -41t-73 -96t-38.5 -113
l-36 -190h-68z" />
    <glyph glyph-name="Rcaron" unicode="&#x158;" horiz-adv-x="693" 
d="M380 752l-60 119h66l38 -80h2l70 80h73l-108 -119h-81zM-2 0l12 58h91l114 587h-92l12 58h300q85 0 130 -24q74 -41 74 -140q0 -86 -55.5 -151t-142.5 -78v-3q14 -17 19 -31l69 -174q9 -24 20.5 -35t38.5 -11l28 2l-11 -58l-15 -1q-14 -1 -23 -1q-48 0 -70 22t-39 67
l-65 168q-10 26 -25 34.5t-44 8.5h-106l-47 -240h91l-12 -58h-252zM230 358h163q70 0 122 49t52 124q0 65 -44 92q-33 20 -102 20h-136z" />
    <glyph glyph-name="rcaron" unicode="&#x159;" horiz-adv-x="383" 
d="M219 584l-60 119h66l38 -80h2l70 80h73l-108 -119h-81zM60 0l82 425q4 22 -18 22h-68l11 56h96q51 0 51 -41q0 -10 -7 -42.5t-13 -49.5h2q29 59 77 98.5t107 39.5q18 0 30 -3l-13 -67q-14 2 -25 2q-51 0 -96.5 -41t-73 -96t-38.5 -113l-36 -190h-68z" />
    <glyph glyph-name="Sacute" unicode="&#x15a;" horiz-adv-x="574" 
d="M320 752l122 119h91l-137 -119h-76zM35 134l12 66h67l-11 -58q-9 -46 34.5 -68t108.5 -22q76 0 128 41t52 108q0 34 -17.5 59.5t-45 40.5t-60.5 28t-66.5 27t-61 32.5t-45 50t-17.5 74.5q0 92 75.5 147t181.5 55q32 0 65 -7t62.5 -20.5t45.5 -36.5t10 -51l-14 -70h-67
l10 51q5 25 -15.5 41.5t-48 22.5t-58.5 6q-72 0 -122.5 -37.5t-50.5 -97.5q0 -31 17 -54.5t44.5 -37.5t61 -26.5t67 -27t61 -34t44.5 -52.5t17 -77q0 -97 -76.5 -158t-185.5 -61q-36 0 -72 7.5t-69.5 23.5t-50.5 46t-10 69z" />
    <glyph glyph-name="sacute" unicode="&#x15b;" horiz-adv-x="474" 
d="M250 584l122 119h91l-137 -119h-76zM11 107l9 49h62l-7 -38q-4 -22 7.5 -37t33 -22t41 -9.5t39.5 -2.5q54 0 93 24t39 65q0 29 -25.5 50t-61.5 35t-72 29.5t-61.5 44.5t-25.5 70q0 69 60 109.5t142 40.5q67 0 112.5 -27.5t35.5 -74.5l-11 -54h-63l9 42q6 30 -24.5 42.5
t-70.5 12.5q-48 0 -85 -22.5t-37 -62.5q0 -29 25.5 -49.5t62 -33.5t72.5 -28t61.5 -43.5t25.5 -69.5q0 -69 -58.5 -114t-153.5 -45q-46 0 -87 11.5t-68 40t-19 67.5z" />
    <glyph glyph-name="Scircumflex" unicode="&#x15c;" horiz-adv-x="574" 
d="M243 752l108 119h81l60 -119h-66l-38 81h-2l-70 -81h-73zM35 134l12 66h67l-11 -58q-9 -46 34.5 -68t108.5 -22q76 0 128 41t52 108q0 34 -17.5 59.5t-45 40.5t-60.5 28t-66.5 27t-61 32.5t-45 50t-17.5 74.5q0 92 75.5 147t181.5 55q32 0 65 -7t62.5 -20.5t45.5 -36.5
t10 -51l-14 -70h-67l10 51q5 25 -15.5 41.5t-48 22.5t-58.5 6q-72 0 -122.5 -37.5t-50.5 -97.5q0 -31 17 -54.5t44.5 -37.5t61 -26.5t67 -27t61 -34t44.5 -52.5t17 -77q0 -97 -76.5 -158t-185.5 -61q-36 0 -72 7.5t-69.5 23.5t-50.5 46t-10 69z" />
    <glyph glyph-name="scircumflex" unicode="&#x15d;" horiz-adv-x="474" 
d="M173 584l108 119h81l60 -119h-66l-38 81h-2l-70 -81h-73zM11 107l9 49h62l-7 -38q-4 -22 7.5 -37t33 -22t41 -9.5t39.5 -2.5q54 0 93 24t39 65q0 29 -25.5 50t-61.5 35t-72 29.5t-61.5 44.5t-25.5 70q0 69 60 109.5t142 40.5q67 0 112.5 -27.5t35.5 -74.5l-11 -54h-63
l9 42q6 30 -24.5 42.5t-70.5 12.5q-48 0 -85 -22.5t-37 -62.5q0 -29 25.5 -49.5t62 -33.5t72.5 -28t61.5 -43.5t25.5 -69.5q0 -69 -58.5 -114t-153.5 -45q-46 0 -87 11.5t-68 40t-19 67.5z" />
    <glyph glyph-name="Scedilla" unicode="&#x15e;" horiz-adv-x="574" 
d="M163 -94l37 84q-47 5 -85 19t-63.5 47t-16.5 78l12 66h67l-11 -58q-9 -46 34.5 -68t108.5 -22q76 0 128 41t52 108q0 34 -17.5 59.5t-45 40.5t-60.5 28t-66.5 27t-61 32.5t-45 50t-17.5 74.5q0 92 75.5 147t181.5 55q32 0 65 -7t62.5 -20.5t45.5 -36.5t10 -51l-14 -70
h-67l10 51q5 25 -15.5 41.5t-48 22.5t-58.5 6q-72 0 -122.5 -37.5t-50.5 -97.5q0 -31 17 -54.5t44.5 -37.5t61 -26.5t67 -27t61 -34t44.5 -52.5t17 -77q0 -96 -74 -156.5t-182 -62.5l-18 -46q27 -4 44.5 -21t17.5 -45q0 -42 -35 -64t-79 -22q-14 0 -27 1.5t-19 2.5l-6 2
l9 44q17 -5 41 -5q60 0 60 40q0 31 -53 31h-15z" />
    <glyph glyph-name="scedilla" unicode="&#x15f;" horiz-adv-x="474" 
d="M119 -94l36 83q-67 7 -110.5 36.5t-33.5 81.5l9 49h62l-7 -38q-4 -22 7.5 -37t33 -22t41 -9.5t39.5 -2.5q54 0 93 24t39 65q0 29 -25.5 50t-61.5 35t-72 29.5t-61.5 44.5t-25.5 70q0 69 60 109.5t142 40.5q67 0 112.5 -27.5t35.5 -74.5l-11 -54h-63l9 42q6 30 -24.5 42.5
t-70.5 12.5q-48 0 -85 -22.5t-37 -62.5q0 -29 25.5 -49.5t62 -33.5t72.5 -28t61.5 -43.5t25.5 -69.5q0 -66 -54 -110.5t-144 -48.5l-19 -46q27 -4 44.5 -21t17.5 -45q0 -42 -35 -64t-79 -22q-14 0 -27 1.5t-19 2.5l-6 2l10 44q16 -5 40 -5q61 0 61 40q0 31 -54 31h-14z" />
    <glyph glyph-name="Scaron" unicode="&#x160;" horiz-adv-x="574" 
d="M334 752l-60 119h66l38 -80h2l70 80h73l-108 -119h-81zM35 134l12 66h67l-11 -58q-9 -46 34.5 -68t108.5 -22q76 0 128 41t52 108q0 34 -17.5 59.5t-45 40.5t-60.5 28t-66.5 27t-61 32.5t-45 50t-17.5 74.5q0 92 75.5 147t181.5 55q32 0 65 -7t62.5 -20.5t45.5 -36.5
t10 -51l-14 -70h-67l10 51q5 25 -15.5 41.5t-48 22.5t-58.5 6q-72 0 -122.5 -37.5t-50.5 -97.5q0 -31 17 -54.5t44.5 -37.5t61 -26.5t67 -27t61 -34t44.5 -52.5t17 -77q0 -97 -76.5 -158t-185.5 -61q-36 0 -72 7.5t-69.5 23.5t-50.5 46t-10 69z" />
    <glyph glyph-name="scaron" unicode="&#x161;" horiz-adv-x="474" 
d="M264 584l-60 119h66l38 -80h2l70 80h73l-108 -119h-81zM11 107l9 49h62l-7 -38q-4 -22 7.5 -37t33 -22t41 -9.5t39.5 -2.5q54 0 93 24t39 65q0 29 -25.5 50t-61.5 35t-72 29.5t-61.5 44.5t-25.5 70q0 69 60 109.5t142 40.5q67 0 112.5 -27.5t35.5 -74.5l-11 -54h-63l9 42
q6 30 -24.5 42.5t-70.5 12.5q-48 0 -85 -22.5t-37 -62.5q0 -29 25.5 -49.5t62 -33.5t72.5 -28t61.5 -43.5t25.5 -69.5q0 -69 -58.5 -114t-153.5 -45q-46 0 -87 11.5t-68 40t-19 67.5z" />
    <glyph glyph-name="Tcommaaccent" unicode="&#x162;" horiz-adv-x="655" 
d="M141 0l11 58h92l115 585h-197l-22 -114h-64l35 174h589l-34 -174h-63l22 114h-196l-115 -585h92l-11 -58h-106l-23 -58q27 -4 44.5 -21t17.5 -45q0 -42 -35.5 -64t-78.5 -22q-14 0 -27 1.5t-19 2.5l-6 2l9 44q17 -5 41 -5q23 0 41.5 9.5t18.5 30.5q0 31 -53 31h-15l40 94
h-103z" />
    <glyph glyph-name="tcommaaccent" unicode="&#x163;" horiz-adv-x="335" 
d="M88 -94l49 111q-56 34 -56 121q0 20 5 55l50 254h-90l11 56h91l27 139h67l-27 -139h126l-11 -56h-127l-49 -258q-4 -23 -4 -44q0 -91 86 -91l29 2l-12 -58q-12 -2 -26 -2q-31 0 -53 5l-24 -59q27 -4 44.5 -21t17.5 -45q0 -42 -35 -64t-79 -22q-14 0 -27 1.5t-19 2.5l-6 2
l9 44q17 -5 41 -5q60 0 60 40q0 31 -53 31h-15z" />
    <glyph glyph-name="Tcaron" unicode="&#x164;" horiz-adv-x="655" 
d="M376 752l-60 119h66l38 -80h2l70 80h73l-108 -119h-81zM141 0l11 58h92l115 585h-197l-22 -114h-64l35 174h589l-34 -174h-63l22 114h-196l-115 -585h92l-11 -58h-254z" />
    <glyph glyph-name="tcaron" unicode="&#x165;" horiz-adv-x="336" 
d="M346 710h65q1 -5 1 -21q0 -39 -22.5 -75t-61.5 -59l-29 29q50 45 50 97q0 13 -3 29zM81 138q0 24 6 55l49 254h-90l11 56h92l27 139h66l-27 -139h127l-11 -56h-127l-49 -258q-5 -21 -5 -44q0 -91 87 -91l28 2l-12 -58q-11 -2 -25 -2q-147 0 -147 142z" />
    <glyph glyph-name="Tbar" unicode="&#x166;" horiz-adv-x="655" 
d="M141 0l11 58h92l53 267h-187l11 55h186l52 263h-197l-22 -114h-64l35 174h589l-34 -174h-63l22 114h-196l-52 -263h188l-11 -55h-187l-53 -267h92l-11 -58h-254z" />
    <glyph glyph-name="tbar" unicode="&#x167;" horiz-adv-x="335" 
d="M81 138q0 24 6 55l17 87h-85l10 55h85l22 114h-90l11 54h91l27 139h67l-27 -139h127l-11 -54h-127l-22 -114h121l-11 -55h-120l-17 -91q-5 -21 -5 -44q0 -91 86 -91l29 2l-12 -58q-11 -2 -26 -2q-146 0 -146 142z" />
    <glyph glyph-name="Utilde" unicode="&#x168;" horiz-adv-x="795" 
d="M112 188q0 24 10 84l73 373h-92l11 58h254l-11 -58h-92l-73 -374q-9 -57 -9 -75q0 -67 44.5 -105.5t122.5 -38.5q91 0 150 47q67 52 87 150l78 396h-92l11 58h254l-11 -58h-92l-80 -405q-27 -136 -123 -200q-78 -52 -184 -52t-171 54.5t-65 145.5zM335 755
q11 56 38.5 86.5t67.5 30.5q23 0 40 -11t25 -24t20 -24t25 -11q36 0 50 67h58q-10 -57 -38 -87t-68 -30q-23 0 -40 11t-25 23.5t-20 23.5t-25 11q-37 0 -50 -66h-58z" />
    <glyph glyph-name="utilde" unicode="&#x169;" horiz-adv-x="649" 
d="M76 117q0 29 8 67l50 263h-89l10 56h158l-58 -300q-9 -47 -9 -70q0 -40 20 -61t68 -21q80 0 144.5 68t81.5 153l33 175h-89l11 56h158l-73 -373q-3 -17 -3 -29q0 -28 13 -37.5t35 -9.5l25 2l-11 -56q-22 -2 -38 -2q-53 0 -75 31.5t-12 85.5h-2q-28 -48 -84.5 -87.5
t-133.5 -39.5q-61 0 -99.5 31.5t-38.5 97.5zM208 587q11 56 38.5 86.5t67.5 30.5q23 0 40 -11t25 -24t20 -24t25 -11q36 0 50 67h58q-10 -57 -38 -87t-68 -30q-23 0 -40 11t-25 23.5t-20 23.5t-25 11q-37 0 -50 -66h-58z" />
    <glyph glyph-name="Umacron" unicode="&#x16a;" horiz-adv-x="795" 
d="M112 188q0 24 10 84l73 373h-92l11 58h254l-11 -58h-92l-73 -374q-9 -57 -9 -75q0 -67 44.5 -105.5t122.5 -38.5q91 0 150 47q67 52 87 150l78 396h-92l11 58h254l-11 -58h-92l-80 -405q-27 -136 -123 -200q-78 -52 -184 -52t-171 54.5t-65 145.5zM368 785l10 55h247
l-10 -55h-247z" />
    <glyph glyph-name="umacron" unicode="&#x16b;" horiz-adv-x="649" 
d="M76 117q0 29 8 67l50 263h-89l10 56h158l-58 -300q-9 -47 -9 -70q0 -40 20 -61t68 -21q80 0 144.5 68t81.5 153l33 175h-89l11 56h158l-73 -373q-3 -17 -3 -29q0 -28 13 -37.5t35 -9.5l25 2l-11 -56q-22 -2 -38 -2q-53 0 -75 31.5t-12 85.5h-2q-28 -48 -84.5 -87.5
t-133.5 -39.5q-61 0 -99.5 31.5t-38.5 97.5zM242 617l10 55h247l-10 -55h-247z" />
    <glyph glyph-name="Ubreve" unicode="&#x16c;" horiz-adv-x="795" 
d="M112 188q0 24 10 84l73 373h-92l11 58h254l-11 -58h-92l-73 -374q-9 -57 -9 -75q0 -67 44.5 -105.5t122.5 -38.5q91 0 150 47q67 52 87 150l78 396h-92l11 58h254l-11 -58h-92l-80 -405q-27 -136 -123 -200q-78 -52 -184 -52t-171 54.5t-65 145.5zM490 749q-49 0 -80 30
t-21 77l3 15h57l-3 -13q-6 -31 8 -46.5t40 -15.5t46 15.5t26 46.5l3 13h57l-3 -15q-9 -54 -46 -80.5t-87 -26.5z" />
    <glyph glyph-name="ubreve" unicode="&#x16d;" horiz-adv-x="649" 
d="M76 117q0 29 8 67l50 263h-89l10 56h158l-58 -300q-9 -47 -9 -70q0 -40 20 -61t68 -21q80 0 144.5 68t81.5 153l33 175h-89l11 56h158l-73 -373q-3 -17 -3 -29q0 -28 13 -37.5t35 -9.5l25 2l-11 -56q-22 -2 -38 -2q-53 0 -75 31.5t-12 85.5h-2q-28 -48 -84.5 -87.5
t-133.5 -39.5q-61 0 -99.5 31.5t-38.5 97.5zM363 581q-49 0 -80 30t-21 77l3 15h57l-3 -13q-6 -31 8 -46.5t40 -15.5t46 15.5t26 46.5l3 13h57l-3 -15q-9 -54 -46 -80.5t-87 -26.5z" />
    <glyph glyph-name="Uring" unicode="&#x16e;" horiz-adv-x="795" 
d="M487 736q-31 0 -52 18.5t-21 47.5q0 36 29 61t64 25q32 0 53 -18t21 -48q0 -36 -29 -61t-65 -25zM490 775q19 0 31.5 13.5t12.5 33.5q0 28 -30 28q-17 0 -30 -13.5t-13 -33.5q0 -28 29 -28zM112 188q0 24 10 84l73 373h-92l11 58h254l-11 -58h-92l-73 -374q-9 -57 -9 -75
q0 -67 44.5 -105.5t122.5 -38.5q91 0 150 47q67 52 87 150l78 396h-92l11 58h254l-11 -58h-92l-80 -405q-27 -136 -123 -200q-78 -52 -184 -52t-171 54.5t-65 145.5z" />
    <glyph glyph-name="uring" unicode="&#x16f;" horiz-adv-x="649" 
d="M360 568q-31 0 -52 18.5t-21 47.5q0 36 29 61t64 25q32 0 53 -18t21 -48q0 -36 -29 -61t-65 -25zM363 607q19 0 31.5 13.5t12.5 33.5q0 28 -30 28q-17 0 -30 -13.5t-13 -33.5q0 -28 29 -28zM76 117q0 29 8 67l50 263h-89l10 56h158l-58 -300q-9 -47 -9 -70q0 -40 20 -61
t68 -21q80 0 144.5 68t81.5 153l33 175h-89l11 56h158l-73 -373q-3 -17 -3 -29q0 -28 13 -37.5t35 -9.5l25 2l-11 -56q-22 -2 -38 -2q-53 0 -75 31.5t-12 85.5h-2q-28 -48 -84.5 -87.5t-133.5 -39.5q-61 0 -99.5 31.5t-38.5 97.5z" />
    <glyph glyph-name="Uhungarumlaut" unicode="&#x170;" horiz-adv-x="795" 
d="M112 188q0 24 10 84l73 373h-92l11 58h254l-11 -58h-92l-73 -374q-9 -57 -9 -75q0 -67 44.5 -105.5t122.5 -38.5q91 0 150 47q67 52 87 150l78 396h-92l11 58h254l-11 -58h-92l-80 -405q-27 -136 -123 -200q-78 -52 -184 -52t-171 54.5t-65 145.5zM504 752l93 119h85
l-110 -119h-68zM367 752l89 119h75l-91 -119h-73z" />
    <glyph glyph-name="uhungarumlaut" unicode="&#x171;" horiz-adv-x="649" 
d="M76 117q0 29 8 67l50 263h-89l10 56h158l-58 -300q-9 -47 -9 -70q0 -40 20 -61t68 -21q80 0 144.5 68t81.5 153l33 175h-89l11 56h158l-73 -373q-3 -17 -3 -29q0 -28 13 -37.5t35 -9.5l25 2l-11 -56q-22 -2 -38 -2q-53 0 -75 31.5t-12 85.5h-2q-28 -48 -84.5 -87.5
t-133.5 -39.5q-61 0 -99.5 31.5t-38.5 97.5zM377 584l93 119h85l-110 -119h-68zM240 584l89 119h75l-91 -119h-73z" />
    <glyph glyph-name="Uogonek" unicode="&#x172;" horiz-adv-x="795" 
d="M112 193q0 27 6 57l77 395h-92l11 58h254l-11 -58h-92l-77 -398q-5 -20 -5 -47q0 -70 44 -109t123 -39q91 0 154.5 52t82.5 145l78 396h-92l11 58h254l-11 -58h-92l-81 -407q-33 -171 -197 -235q-28 -11 -65.5 -46t-37.5 -72q0 -17 13.5 -28t25 -13.5t18.5 -2.5l-24 -53
q-10 1 -22.5 5t-30.5 12.5t-30 25.5t-12 40q0 62 74 118q-65 -4 -120 13.5t-94.5 66.5t-39.5 124z" />
    <glyph glyph-name="uogonek" unicode="&#x173;" horiz-adv-x="649" 
d="M386 -129q0 69 94 132q-33 10 -44 40.5t-2 71.5h-2q-28 -48 -84.5 -87.5t-133.5 -39.5q-61 0 -99.5 31.5t-38.5 97.5q0 29 8 67l50 263h-89l10 56h158l-58 -300q-9 -47 -9 -70q0 -40 20 -61t68 -21q80 0 144.5 68t81.5 153l33 175h-89l11 56h158l-73 -373q-3 -17 -3 -29
q0 -28 13 -37.5t35 -9.5l25 2l-11 -56q-5 0 -10 -1q-24 -7 -62.5 -44.5t-38.5 -69.5q0 -17 13.5 -28t25 -13.5t18.5 -2.5l-24 -53q-10 1 -22.5 5t-30.5 12.5t-30 25.5t-12 40z" />
    <glyph glyph-name="Wcircumflex" unicode="&#x174;" horiz-adv-x="999" 
d="M460 752l108 119h81l60 -119h-66l-38 81h-2l-70 -81h-73zM194 0l-37 645h-72l12 58h224l-12 -58h-84l26 -517l-2 -46h3q9 24 19 46l273 575h65l50 -575v-46h4q7 24 16 46l227 517h-84l11 58h229l-11 -58h-71l-290 -645h-82l-48 553v46h-3q-7 -25 -17 -46l-263 -553h-83z
" />
    <glyph glyph-name="wcircumflex" unicode="&#x175;" horiz-adv-x="854" 
d="M354 584l108 119h81l60 -119h-66l-38 81h-2l-70 -81h-73zM162 0l-56 447h-64l10 56h206l-10 -56h-76l40 -338l-1 -39h3q6 21 15 39l203 392h67l49 -392l1 -39h2q6 21 15 39l171 338h-75l11 56h211l-11 -56h-65l-230 -447h-73l-51 377l-2 40h-2q-7 -22 -17 -40l-198 -377
h-73z" />
    <glyph glyph-name="Ycircumflex" unicode="&#x176;" horiz-adv-x="644" 
d="M137 0l12 58h92l48 244l-141 343h-69l12 58h219l-12 -58h-78l102 -256l9 -27h2q9 14 19 27l204 256h-79l11 58h225l-12 -58h-69l-273 -343l-48 -244h92l-12 -58h-254zM282 752l108 119h81l60 -119h-66l-38 81h-2l-70 -81h-73z" />
    <glyph glyph-name="ycircumflex" unicode="&#x177;" horiz-adv-x="577" 
d="M-18 -129q24 -21 62 -21q63 0 112 80l41 67l-92 450h-66l11 56h208l-11 -56h-73l65 -343l2 -36h2q7 17 18 36l198 343h-73l11 56h211l-11 -56h-66l-319 -540q-70 -117 -170 -117q-28 0 -51.5 7.5t-32.5 14.5l-10 8zM220 584l108 119h81l60 -119h-66l-38 81h-2l-70 -81
h-73z" />
    <glyph glyph-name="Ydieresis" unicode="&#x178;" horiz-adv-x="644" 
d="M137 0l12 58h92l48 244l-141 343h-69l12 58h219l-12 -58h-78l102 -256l9 -27h2q9 14 19 27l204 256h-79l11 58h225l-12 -58h-69l-273 -343l-48 -244h92l-12 -58h-254zM474 785l17 86h70l-18 -86h-69zM291 785l17 86h69l-17 -86h-69z" />
    <glyph glyph-name="Zacute" unicode="&#x179;" horiz-adv-x="626" 
d="M345 752l122 119h91l-137 -119h-76zM2 0l10 49l489 561l35 33v2q-19 -2 -39 -2h-302l-22 -114h-64l35 174h493l-9 -49l-491 -561l-35 -33v-2q19 2 39 2h317l23 117h64l-35 -177h-508z" />
    <glyph glyph-name="zacute" unicode="&#x17a;" horiz-adv-x="518" 
d="M259 584l122 119h91l-137 -119h-76zM-10 0l9 48l353 356l45 43v2q-18 -2 -49 -2h-195l-17 -89h-61l28 145h395l-10 -49l-353 -355q-10 -10 -21 -20.5t-18 -17t-7 -5.5v-2q20 2 50 2h220l17 89h62l-28 -145h-420z" />
    <glyph glyph-name="Zdotaccent" unicode="&#x17b;" horiz-adv-x="626" 
d="M2 0l10 49l489 561l35 33v2q-19 -2 -39 -2h-302l-22 -114h-64l35 174h493l-9 -49l-491 -561l-35 -33v-2q19 2 39 2h317l23 117h64l-35 -177h-508zM367 786l17 85h71l-16 -85h-72z" />
    <glyph glyph-name="zdotaccent" unicode="&#x17c;" horiz-adv-x="518" 
d="M-10 0l9 48l353 356l45 43v2q-18 -2 -49 -2h-195l-17 -89h-61l28 145h395l-10 -49l-353 -355q-10 -10 -21 -20.5t-18 -17t-7 -5.5v-2q20 2 50 2h220l17 89h62l-28 -145h-420zM281 618l17 85h71l-16 -85h-72z" />
    <glyph glyph-name="Zcaron" unicode="&#x17d;" horiz-adv-x="626" 
d="M358 752l-60 119h66l38 -80h2l70 80h73l-108 -119h-81zM2 0l10 49l489 561l35 33v2q-19 -2 -39 -2h-302l-22 -114h-64l35 174h493l-9 -49l-491 -561l-35 -33v-2q19 2 39 2h317l23 117h64l-35 -177h-508z" />
    <glyph glyph-name="zcaron" unicode="&#x17e;" horiz-adv-x="518" 
d="M273 584l-60 119h66l38 -80h2l70 80h73l-108 -119h-81zM-10 0l9 48l353 356l45 43v2q-18 -2 -49 -2h-195l-17 -89h-61l28 145h395l-10 -49l-353 -355q-10 -10 -21 -20.5t-18 -17t-7 -5.5v-2q20 2 50 2h220l17 89h62l-28 -145h-420z" />
    <glyph glyph-name="longs" unicode="&#x17f;" horiz-adv-x="275" 
d="M59 0l87 448h-90l10 55h90l5 22q12 58 37.5 97.5t58.5 56.5t58 23t50 6l37 -3l-13 -58q-9 2 -25 2q-111 0 -135 -123l-102 -526h-68z" />
    <glyph glyph-name="florin" unicode="&#x192;" horiz-adv-x="480" 
d="M-100 -40q29 -6 61 -6q18 0 36 4.5t40.5 17t41.5 40t31 67.5l79 282h-89l11 57h94l33 114q16 56 43.5 94.5t60 55.5t58 23t51.5 6q20 0 43 -2t36 -4l13 -2l-11 -59q-45 7 -80 7q-110 0 -148 -129l-30 -104h125l-11 -57h-130l-84 -295q-13 -45 -34.5 -78.5t-43.5 -51.5
t-49 -29t-46 -14t-39 -3q-18 0 -36.5 2t-27.5 4l-10 1z" />
    <glyph glyph-name="Scommaaccent" unicode="&#x218;" horiz-adv-x="574" 
d="M183 -62h65q1 -5 1 -21q0 -39 -22.5 -75t-61.5 -59l-29 29q50 45 50 97q0 13 -3 29zM35 134l12 66h67l-11 -58q-9 -46 34.5 -68t108.5 -22q76 0 128 41t52 108q0 34 -17.5 59.5t-45 40.5t-60.5 28t-66.5 27t-61 32.5t-45 50t-17.5 74.5q0 92 75.5 147t181.5 55
q32 0 65 -7t62.5 -20.5t45.5 -36.5t10 -51l-14 -70h-67l10 51q5 25 -15.5 41.5t-48 22.5t-58.5 6q-72 0 -122.5 -37.5t-50.5 -97.5q0 -31 17 -54.5t44.5 -37.5t61 -26.5t67 -27t61 -34t44.5 -52.5t17 -77q0 -97 -76.5 -158t-185.5 -61q-36 0 -72 7.5t-69.5 23.5t-50.5 46
t-10 69z" />
    <glyph glyph-name="scommaaccent" unicode="&#x219;" horiz-adv-x="474" 
d="M134 -62h65q1 -5 1 -21q0 -39 -22.5 -75t-61.5 -59l-29 29q50 45 50 97q0 13 -3 29zM11 107l9 49h62l-7 -38q-4 -22 7.5 -37t33 -22t41 -9.5t39.5 -2.5q54 0 93 24t39 65q0 29 -25.5 50t-61.5 35t-72 29.5t-61.5 44.5t-25.5 70q0 69 60 109.5t142 40.5q67 0 112.5 -27.5
t35.5 -74.5l-11 -54h-63l9 42q6 30 -24.5 42.5t-70.5 12.5q-48 0 -85 -22.5t-37 -62.5q0 -29 25.5 -49.5t62 -33.5t72.5 -28t61.5 -43.5t25.5 -69.5q0 -69 -58.5 -114t-153.5 -45q-46 0 -87 11.5t-68 40t-19 67.5z" />
    <glyph glyph-name="uni021A" unicode="&#x21a;" horiz-adv-x="655" 
d="M222 -62h65q1 -5 1 -21q0 -39 -22.5 -75t-61.5 -59l-29 29q50 45 50 97q0 13 -3 29zM141 0l11 58h92l115 585h-197l-22 -114h-64l35 174h589l-34 -174h-63l22 114h-196l-115 -585h92l-11 -58h-254z" />
    <glyph glyph-name="uni021B" unicode="&#x21b;" horiz-adv-x="336" 
d="M108 -62h65q1 -5 1 -21q0 -39 -22.5 -75t-61.5 -59l-29 29q50 45 50 97q0 13 -3 29zM81 138q0 24 6 55l49 254h-90l11 56h92l27 139h66l-27 -139h127l-11 -56h-127l-49 -258q-5 -21 -5 -44q0 -91 87 -91l28 2l-12 -58q-11 -2 -25 -2q-147 0 -147 142z" />
    <glyph glyph-name="circumflex" unicode="&#x2c6;" horiz-adv-x="504" 
d="M57 752l108 119h81l60 -119h-66l-38 81h-2l-70 -81h-73z" />
    <glyph glyph-name="caron" unicode="&#x2c7;" horiz-adv-x="504" 
d="M148 752l-60 119h66l38 -80h2l70 80h73l-108 -119h-81z" />
    <glyph glyph-name="breve" unicode="&#x2d8;" horiz-adv-x="505" 
d="M188 749q-49 0 -80 30t-21 77l3 15h57l-3 -13q-6 -31 8 -46.5t40 -15.5t46 15.5t26 46.5l3 13h57l-3 -15q-9 -54 -46 -80.5t-87 -26.5z" />
    <glyph glyph-name="dotaccent" unicode="&#x2d9;" horiz-adv-x="505" 
d="M157 786l17 85h71l-16 -85h-72z" />
    <glyph glyph-name="ring" unicode="&#x2da;" horiz-adv-x="505" 
d="M187 736q-31 0 -52 18.5t-21 47.5q0 36 29 61t64 25q32 0 53 -18t21 -48q0 -36 -29 -61t-65 -25zM190 775q19 0 31.5 13.5t12.5 33.5q0 28 -30 28q-17 0 -30 -13.5t-13 -33.5q0 -28 29 -28z" />
    <glyph glyph-name="ogonek" unicode="&#x2db;" horiz-adv-x="504" 
d="M114 -129q0 79 119 147h52l-3 -18q-18 0 -62 -40.5t-44 -74.5q0 -17 13.5 -28t24.5 -13.5t18 -2.5l-24 -53q-10 1 -22.5 5t-30 12.5t-29.5 25.5t-12 40z" />
    <glyph glyph-name="tilde" unicode="&#x2dc;" horiz-adv-x="504" 
d="M34 755q11 56 38.5 86.5t67.5 30.5q23 0 40 -11t25 -24t20 -24t25 -11q36 0 50 67h58q-10 -57 -38 -87t-68 -30q-23 0 -40 11t-25 23.5t-20 23.5t-25 11q-37 0 -50 -66h-58z" />
    <glyph glyph-name="hungarumlaut" unicode="&#x2dd;" horiz-adv-x="504" 
d="M177 752l93 119h85l-110 -119h-68zM40 752l89 119h75l-91 -119h-73z" />
    <glyph glyph-name="uni1E9E" unicode="&#x1e9e;" horiz-adv-x="708" 
d="M-16 0l12 58h91l88 454q16 84 79.5 137.5t149.5 53.5h277l-9 -48l-185 -220l-19 -20v-2q71 -12 121.5 -54.5t50.5 -113.5q0 -107 -86 -179.5t-219 -72.5q-18 0 -36 1.5t-29 3t-21 3.5t-11 2l12 63q45 -9 84 -9q105 0 169 51t64 133q0 111 -186 124l8 41l176 213l22 22
l1 2q-14 -2 -27 -2h-162q-56 0 -100 -37t-54 -91l-100 -513h-161z" />
    <glyph glyph-name="thinspace" unicode="&#x2009;" horiz-adv-x="277" 
 />
    <glyph glyph-name="endash" unicode="&#x2013;" horiz-adv-x="714" 
d="M99 255l11 58h499l-10 -58h-500z" />
    <glyph glyph-name="emdash" unicode="&#x2014;" horiz-adv-x="914" 
d="M99 255l11 58h699l-10 -58h-700z" />
    <glyph glyph-name="quoteleft" unicode="&#x2018;" horiz-adv-x="225" 
d="M97 509l103 203h57l-83 -203h-77z" />
    <glyph glyph-name="quoteright" unicode="&#x2019;" horiz-adv-x="221" 
d="M100 509l83 203h77l-103 -203h-57z" />
    <glyph glyph-name="quotesinglbase" unicode="&#x201a;" horiz-adv-x="244" 
d="M-32 -122l84 204h76l-102 -204h-58z" />
    <glyph glyph-name="quotedblleft" unicode="&#x201c;" horiz-adv-x="353" 
d="M225 509l103 203h57l-84 -203h-76zM97 509l103 203h57l-83 -203h-77z" />
    <glyph glyph-name="quotedblright" unicode="&#x201d;" horiz-adv-x="348" 
d="M227 509l84 203h76l-103 -203h-57zM100 509l83 203h77l-103 -203h-57z" />
    <glyph glyph-name="quotedblbase" unicode="&#x201e;" horiz-adv-x="372" 
d="M179 82h77l-103 -204h-57zM52 82h76l-102 -204h-58z" />
    <glyph glyph-name="dagger" unicode="&#x2020;" horiz-adv-x="399" 
d="M98 -50l96 495h-117l11 58h117l38 200h67l-38 -200h121l-11 -58h-122l-96 -495h-66z" />
    <glyph glyph-name="daggerdbl" unicode="&#x2021;" horiz-adv-x="410" 
d="M103 -50l44 229h-117l11 58h117l41 208h-117l11 58h117l39 200h66l-38 -200h121l-11 -58h-122l-41 -208h122l-12 -58h-121l-44 -229h-66z" />
    <glyph glyph-name="bullet" unicode="&#x2022;" horiz-adv-x="406" 
d="M202 148q-59 0 -101 42t-42 101t42 101t101 42t100.5 -42t41.5 -101t-41.5 -101t-100.5 -42z" />
    <glyph glyph-name="ellipsis" unicode="&#x2026;" horiz-adv-x="715" 
d="M498 0l16 83h81l-17 -83h-80zM263 0l16 83h81l-17 -83h-80zM28 0l16 83h80l-16 -83h-80z" />
    <glyph glyph-name="perthousand" unicode="&#x2030;" horiz-adv-x="1058" 
d="M236 437q-57 0 -90 33.5t-33 89.5q0 59 50.5 107t114.5 48q55 0 88 -34t33 -88q0 -61 -50.5 -108.5t-112.5 -47.5zM14 0l665 703h77l-665 -703h-77zM242 493q39 0 68.5 30t29.5 70q0 28 -19 47t-49 19q-38 0 -68.5 -30.5t-30.5 -69.5q0 -28 19 -47t50 -19zM705 111
q0 59 50.5 107t113.5 48q56 0 89 -34t33 -88q0 -61 -50.5 -108.5t-113.5 -47.5q-56 0 -89 33.5t-33 89.5zM367 111q0 59 50.5 107t114.5 48q56 0 89 -34t33 -88q0 -61 -50.5 -108.5t-113.5 -47.5q-57 0 -90 33.5t-33 89.5zM765 110q0 -29 19 -47.5t49 -18.5q39 0 68.5 29.5
t29.5 69.5q0 29 -18.5 48t-48.5 19q-38 0 -68.5 -30t-30.5 -70zM427 110q0 -29 19 -47.5t50 -18.5q39 0 68.5 29.5t29.5 69.5q0 29 -19 48t-49 19q-38 0 -68.5 -30.5t-30.5 -69.5z" />
    <glyph glyph-name="guilsinglleft" unicode="&#x2039;" horiz-adv-x="341" 
d="M174 77l-128 207l192 204h78l-200 -209l127 -202h-69z" />
    <glyph glyph-name="guilsinglright" unicode="&#x203a;" horiz-adv-x="343" 
d="M22 77l200 209l-127 202h69l128 -207l-192 -204h-78z" />
    <glyph glyph-name="fraction" unicode="&#x2044;" horiz-adv-x="149" 
d="M-119 0h-62l472 703h62z" />
    <glyph glyph-name="zerosuperior" unicode="&#x2070;" horiz-adv-x="427" 
d="M242 413q-126 0 -126 142q0 36 6 75t20.5 82.5t36.5 77.5t57.5 56t78.5 22q126 0 126 -144q0 -45 -10.5 -95t-32 -100.5t-62.5 -83t-94 -32.5zM243 465q37 0 65.5 26.5t44 67.5t23.5 83t8 80q0 95 -71 95q-49 0 -82.5 -47t-46 -103t-12.5 -110q0 -92 71 -92z" />
    <glyph glyph-name="foursuperior" unicode="&#x2074;" horiz-adv-x="428" 
d="M281 423l23 115h-211l7 37l266 283h55l-53 -273h65l-9 -47h-65l-23 -115h-55zM167 585h146l31 161l12 43h-2q-13 -20 -29 -36l-158 -166v-2z" />
    <glyph glyph-name="fivesuperior" unicode="&#x2075;" horiz-adv-x="404" 
d="M227 413q-39 0 -73.5 15.5t-49.5 31.5l-15 16l37 36q5 -5 13.5 -13t35 -21.5t53.5 -13.5q48 0 82 32t34 77q0 37 -24 60t-64 23q-20 0 -40 -6t-30 -12l-11 -6l-31 12l67 214h223l-20 -102h-50l11 55h-127l-30 -100l-8 -21h1q23 11 59 11q58 0 94 -35.5t36 -90.5
q0 -65 -50.5 -113.5t-122.5 -48.5z" />
    <glyph glyph-name="sixsuperior" unicode="&#x2076;" horiz-adv-x="417" 
d="M246 413q-63 0 -98 42t-35 113q0 58 27 125.5t84.5 121t128.5 53.5q24 0 46.5 -5.5t32.5 -10.5l10 -6l-27 -44q-26 15 -64 15q-53 0 -96.5 -44t-65.5 -109h2q42 39 103 39q53 0 85.5 -31.5t32.5 -84.5q0 -78 -50.5 -126t-115.5 -48zM248 465q47 0 77 35.5t30 84.5
q0 33 -20 52t-55 19q-40 0 -75.5 -27.5t-35.5 -63.5q0 -40 21 -70t58 -30z" />
    <glyph glyph-name="sevensuperior" unicode="&#x2077;" horiz-adv-x="295" 
d="M83 423l257 367l18 21l1 2q-13 -2 -25 -2h-154l-11 -55h-50l20 102h293l-7 -37l-279 -398h-63z" />
    <glyph glyph-name="eightsuperior" unicode="&#x2078;" horiz-adv-x="415" 
d="M238 413q-58 0 -98 30.5t-40 84.5q0 77 98 141q-37 29 -37 72q0 59 47 93t106 34q53 0 88 -26.5t35 -71.5q0 -69 -81 -137q49 -33 49 -82q0 -56 -50.5 -97t-116.5 -41zM315 656q66 50 66 108q0 26 -21 40t-50 14q-36 0 -65 -20t-29 -55q0 -13 4.5 -23.5t17.5 -20t20 -14
t29.5 -15.5t27.5 -14zM239 463q41 0 75 25t34 62q0 14 -6 25t-19 20.5t-24 16t-31.5 16.5t-30.5 15q-80 -49 -80 -111q0 -32 24 -50.5t58 -18.5z" />
    <glyph glyph-name="ninesuperior" unicode="&#x2079;" horiz-adv-x="408" 
d="M191 413q-25 0 -47.5 5.5t-33.5 11.5l-10 5l28 44q25 -14 64 -14q53 0 96 44.5t65 108.5h-2q-43 -40 -103 -40q-53 0 -85 32t-32 85q0 77 50 125t115 48q64 0 99 -42t35 -113q0 -42 -16.5 -92.5t-45.5 -97.5t-76 -78.5t-101 -31.5zM262 625q40 0 75.5 28t35.5 64
q0 40 -20.5 70t-57.5 30q-47 0 -77.5 -36t-30.5 -84q0 -33 20.5 -52.5t54.5 -19.5z" />
    <glyph glyph-name="zeroinferior" unicode="&#x2080;" horiz-adv-x="402" 
d="M119 -167q-126 0 -126 142q0 36 6 75t20.5 82.5t36.5 77.5t57.5 56t78.5 22q126 0 126 -144q0 -45 -10.5 -95t-32 -100.5t-62.5 -83t-94 -32.5zM120 -115q37 0 65.5 26.5t44 67.5t23.5 83t8 80q0 95 -71 95q-49 0 -82.5 -47t-46 -103t-12.5 -110q0 -92 71 -92z" />
    <glyph glyph-name="oneinferior" unicode="&#x2081;" horiz-adv-x="319" 
d="M-49 -157l9 48h105l53 277l9 36h-2q-10 -13 -26 -26l-55 -46l-29 39l129 107h52l-76 -387h103l-10 -48h-262z" />
    <glyph glyph-name="twoinferior" unicode="&#x2082;" horiz-adv-x="366" 
d="M-47 -157q1 55 30 97.5t69.5 69t81 49.5t68.5 52t28 64q0 27 -18.5 44.5t-49.5 17.5q-24 0 -48.5 -12.5t-37.5 -24.5l-13 -12l-32 38q6 7 18 17.5t47 27.5t69 17q57 0 90 -30t33 -79q0 -44 -24.5 -79t-61 -58t-74 -43.5t-69 -48t-40.5 -59.5h176l11 55h49l-19 -103h-283z
" />
    <glyph glyph-name="threeinferior" unicode="&#x2083;" horiz-adv-x="370" 
d="M100 -168q-42 0 -78.5 16.5t-51.5 33.5l-15 16l39 36q4 -6 12 -14t35.5 -22t58.5 -14q42 0 74.5 30.5t32.5 74.5q0 31 -25 49.5t-59 18.5h-31l-9 30l129 124l25 20v2q-13 -3 -29 -3h-117l-11 -55h-50l20 102h266l-7 -36l-147 -141q38 -6 70 -33t32 -78
q0 -62 -48.5 -109.5t-115.5 -47.5z" />
    <glyph glyph-name="fourinferior" unicode="&#x2084;" horiz-adv-x="383" 
d="M147 -157l23 115h-211l7 37l266 283h55l-53 -273h65l-9 -47h-65l-23 -115h-55zM33 5h146l31 161l12 43h-2q-13 -20 -29 -36l-158 -166v-2z" />
    <glyph glyph-name="fiveinferior" unicode="&#x2085;" horiz-adv-x="366" 
d="M93 -167q-39 0 -73.5 15.5t-49.5 31.5l-15 16l37 36q5 -5 13.5 -13t35 -21.5t53.5 -13.5q48 0 82 32t34 77q0 37 -24 60t-64 23q-20 0 -40 -6t-30 -12l-11 -6l-31 12l67 214h223l-20 -102h-50l11 55h-127l-30 -100l-8 -21h1q23 11 59 11q58 0 94 -35.5t36 -90.5
q0 -65 -50.5 -113.5t-122.5 -48.5z" />
    <glyph glyph-name="sixinferior" unicode="&#x2086;" horiz-adv-x="384" 
d="M122 -167q-63 0 -98 42t-35 113q0 58 27 125.5t84.5 121t128.5 53.5q24 0 46.5 -5.5t32.5 -10.5l10 -6l-27 -44q-26 15 -64 15q-53 0 -96.5 -44t-65.5 -109h2q42 39 103 39q53 0 85.5 -31.5t32.5 -84.5q0 -78 -50.5 -126t-115.5 -48zM124 -115q47 0 77 35.5t30 84.5
q0 33 -20 52t-55 19q-40 0 -75.5 -27.5t-35.5 -63.5q0 -40 21 -70t58 -30z" />
    <glyph glyph-name="seveninferior" unicode="&#x2087;" horiz-adv-x="347" 
d="M-26 -158l257 367l18 21l1 2q-13 -2 -25 -2h-154l-11 -55h-50l20 102h293l-7 -37l-279 -398h-63z" />
    <glyph glyph-name="eightinferior" unicode="&#x2088;" horiz-adv-x="390" 
d="M115 -166q-58 0 -98 30.5t-40 84.5q0 77 98 141q-37 29 -37 72q0 59 47 93t106 34q53 0 88 -26.5t35 -71.5q0 -69 -81 -137q49 -33 49 -82q0 -56 -50.5 -97t-116.5 -41zM192 77q66 50 66 108q0 26 -21 40t-50 14q-36 0 -65 -20t-29 -55q0 -13 4.5 -23.5t17.5 -20t20 -14
t29.5 -15.5t27.5 -14zM116 -116q41 0 75 25t34 62q0 14 -6 25t-19 20.5t-24 16t-31.5 16.5t-30.5 15q-80 -49 -80 -111q0 -32 24 -50.5t58 -18.5z" />
    <glyph glyph-name="nineinferior" unicode="&#x2089;" horiz-adv-x="384" 
d="M66 -167q-25 0 -47.5 5.5t-32.5 11.5l-11 5l28 44q25 -14 64 -14q53 0 96 44.5t65 108.5h-2q-43 -40 -103 -40q-53 0 -85 32t-32 85q0 77 50 125t115 48q64 0 99 -42t35 -113q0 -42 -16.5 -92.5t-45.5 -97.5t-76 -78.5t-101 -31.5zM137 45q40 0 75.5 28t35.5 64
q0 39 -20.5 69.5t-57.5 30.5q-47 0 -77.5 -36t-30.5 -84q0 -33 20.5 -52.5t54.5 -19.5z" />
    <glyph glyph-name="Euro" unicode="&#x20ac;" horiz-adv-x="600" 
d="M43 257l10 50h55q1 45 15 101h-53l9 50h61q51 114 154 185.5t223 71.5q27 0 53 -3.5t38 -7.5l13 -3l-28 -60q-36 10 -78 10q-94 0 -174.5 -53t-123.5 -140h306l-20 -50h-307q-14 -52 -17 -101h287l-19 -50h-266q6 -90 62 -147.5t158 -57.5q22 0 45 3.5t35 6.5l12 4l3 -64
q-42 -14 -99 -14q-126 0 -205.5 74.5t-84.5 194.5h-64z" />
    <glyph glyph-name="trademark" unicode="&#x2122;" horiz-adv-x="1024" 
d="M512 265l35 438h51l116 -251l14 -41h2q5 22 14 41l115 251h51l35 -438h-56l-24 297l1 29h-2l-112 -244h-47l-112 244h-2l1 -29l-24 -297h-56zM262 265v386h-156v52h369v-52h-156v-386h-57z" />
    <glyph glyph-name="minus" unicode="&#x2212;" horiz-adv-x="606" 
d="M47 255v58h506v-58h-506z" />
    <glyph glyph-name="infinity" unicode="&#x221e;" horiz-adv-x="471" 
d="M244 176q-72 0 -122.5 51t-50.5 122q0 72 50.5 122t122.5 50q71 0 121.5 -50t50.5 -122q0 -71 -50.5 -122t-121.5 -51z" />
    <glyph glyph-name="approxequal" unicode="&#x2248;" horiz-adv-x="606" 
d="M89 321l-33 44q69 69 146 69q50 0 107.5 -35t90.5 -35q60 0 113 55l33 -43q-67 -69 -146 -69q-50 0 -107.5 35t-90.5 35q-57 0 -113 -56zM89 148l-33 43q69 69 146 69q50 0 107.5 -35t90.5 -35q59 0 113 56l33 -44q-67 -69 -146 -69q-50 0 -107.5 35t-90.5 35
q-58 0 -113 -55z" />
    <glyph glyph-name="notequal" unicode="&#x2260;" horiz-adv-x="606" 
d="M123 83l62 85h-119v58h159l86 116h-245v58h286l85 116l42 -29l-65 -87h118v-58h-158l-86 -116h244v-58h-284l-83 -114z" />
    <glyph glyph-name="lessequal" unicode="&#x2264;" horiz-adv-x="606" 
d="M56 259v50l452 202v-67l-368 -159v-2l368 -159v-67zM56 -104h452v-58h-452v58z" />
    <glyph glyph-name="greaterequal" unicode="&#x2265;" horiz-adv-x="606" 
d="M96 57v67l367 159v2l-367 159v67l452 -202v-50zM95 -104h451v-58h-451v58z" />
    <glyph glyph-name="commaaccent" horiz-adv-x="335" 
d="M65 -62h65q1 -5 1 -21q0 -39 -22.5 -75t-61.5 -59l-29 29q50 45 50 97q0 13 -3 29z" />
    <glyph glyph-name="apple" horiz-adv-x="1130" 
d="M110 -5v152l-126 72v278l126 71v151l265 142l134 -71l132 71l265 -142v-151l124 -71v-278l-124 -72v-152l-265 -141l-132 71l-134 -71zM150 30l238 -126l121 66l118 -66l238 126v139l114 64v249l-114 66v136l-238 126l-118 -64l-121 64l-238 -126v-136l-114 -66v-249
l114 -64v-139zM184 64v121l-99 60v225l99 58v123l215 114l110 -59l107 59l214 -114v-123l100 -58v-225l-100 -60v-121l-214 -114l-107 58l-110 -58zM385 91h60v217h218v53h-218v179h176q16 0 21.5 -6t5.5 -21v-38h56v64q0 29 -12.5 42t-43.5 13h-325v-54h62v-449z" />
    <glyph glyph-name="zero.tnum" 
d="M36 215q0 47 7 99.5t22 110t40.5 108.5t59.5 92t83 65.5t106 24.5q198 0 198 -228q0 -58 -9.5 -121.5t-33.5 -132t-59 -122t-91 -88.5t-125 -35q-198 0 -198 227zM107 215q0 -163 128 -163q52 0 95.5 30.5t70.5 77.5t45.5 107t26 115t7.5 104q0 165 -128 165
q-62 0 -111 -43t-77 -110.5t-42.5 -140.5t-14.5 -142z" />
    <glyph glyph-name="one.tnum" 
d="M52 0l11 60h158l99 508l10 44h-2q-14 -17 -36 -35l-96 -80l-38 48l192 158h64l-125 -643h154l-12 -60h-379z" />
    <glyph glyph-name="two.tnum" 
d="M0 0q1 60 27 110.5t66.5 87t89 69t97 62t88.5 60t65 69.5t25 83q0 50 -32 80t-90 30q-29 0 -58 -10t-50 -24t-37.5 -28t-24.5 -24l-9 -10l-48 38q4 5 11 13t30.5 29t48.5 37.5t63.5 29.5t77.5 13q90 0 141 -46.5t51 -122.5q0 -50 -22.5 -94t-60 -77.5t-82.5 -63.5
t-91.5 -58t-86.5 -56t-69 -63.5t-37 -73.5h323l20 98h63l-31 -158h-458z" />
    <glyph glyph-name="three.tnum" 
d="M6 84l45 47q2 -3 7 -8.5t21 -19t34 -24t45.5 -19t56.5 -8.5q79 0 139.5 53t60.5 128q0 60 -41.5 91.5t-106.5 31.5l-47 -3l-11 42l232 227l28 21v2q-20 -2 -33 -2h-229l-19 -96h-64l31 156h415l-9 -49l-254 -245q29 -1 57.5 -10t57.5 -27t47 -52t18 -80q0 -102 -79 -177
t-192 -75q-38 0 -74 10t-59.5 24t-41.5 28t-27 24z" />
    <glyph glyph-name="four.tnum" 
d="M-1 195l8 45l433 463h77l-87 -449h100l-12 -59h-100l-38 -195h-69l38 195h-350zM97 254h264l62 317l12 46h-2q-14 -21 -31 -39l-305 -322v-2z" />
    <glyph glyph-name="five.tnum" 
d="M14 80l45 44q6 -8 17.5 -20t51 -32t84.5 -20q83 0 147 57.5t64 137.5q0 62 -41.5 99t-109.5 37q-34 0 -68 -9.5t-51 -19.5l-17 -10l-43 17l105 342h344l-31 -156h-64l20 96h-219l-57 -183l-15 -42h2q44 26 111 26q91 0 148.5 -54.5t57.5 -141.5q0 -107 -85.5 -183.5
t-200.5 -76.5q-38 0 -72 9.5t-55.5 23t-37.5 27t-23 22.5z" />
    <glyph glyph-name="six.tnum" 
d="M44 240q0 67 25.5 146.5t72 154t123 124.5t166.5 50q36 0 69.5 -7.5t48.5 -14.5l15 -7l-34 -58q-41 23 -100 23q-104 0 -181.5 -84t-110.5 -199h2q33 38 83 60t103 22q87 0 138.5 -50.5t51.5 -133.5q0 -108 -73 -193t-187 -85q-99 0 -155.5 69t-56.5 183zM115 227
q0 -69 38.5 -122t104.5 -53q78 0 132 61.5t54 149.5q0 58 -35 92t-98 34q-68 0 -132 -47t-64 -115z" />
    <glyph glyph-name="seven.tnum" 
d="M66 0l422 613l25 30v2q-17 -2 -37 -2h-288l-19 -96h-64l31 156h471l-10 -48l-453 -655h-78z" />
    <glyph glyph-name="eight.tnum" 
d="M22 171q0 123 157 223q4 2 5 3q-67 48 -67 119q0 78 66.5 138.5t173.5 60.5q92 0 143 -41.5t51 -113.5q0 -39 -17 -78.5t-43.5 -70.5t-41.5 -45.5t-29 -26.5q80 -52 80 -128q0 -93 -78.5 -158t-187.5 -65q-93 0 -152.5 49t-59.5 134zM367 368q18 14 38.5 34t47 65
t26.5 88q0 45 -33.5 71t-90.5 26q-72 0 -119.5 -39.5t-47.5 -95.5q0 -19 8.5 -35.5t19 -28t32 -25t35.5 -20.5t42.5 -20.5t41.5 -19.5zM95 176q0 -57 40.5 -91t101.5 -34q73 0 131.5 44t58.5 113q0 23 -10.5 42.5t-33.5 35.5t-42.5 26.5t-54 26.5t-51.5 25
q-140 -80 -140 -188z" />
    <glyph glyph-name="nine.tnum" 
d="M26 17l32 58q40 -23 99 -23q104 0 181.5 84.5t110.5 199.5h-2q-33 -38 -83.5 -60t-103.5 -22q-87 0 -138 50t-51 133q0 108 73 193t187 85q99 0 155.5 -69t56.5 -183q0 -67 -25.5 -146.5t-72 -154t-123 -124.5t-166.5 -50q-36 0 -68.5 7t-47.5 15zM274 314q68 0 133 47.5
t65 114.5q0 69 -38 122t-104 53q-79 0 -133.5 -61.5t-54.5 -149.5q0 -58 35 -92t97 -34z" />
    <glyph glyph-name="hyphen.case" horiz-adv-x="489" 
d="M105 318l11 62h284l-12 -62h-283z" />
    <glyph glyph-name="parenleft.case" horiz-adv-x="306" 
d="M124 -65q-48 127 -48 266q0 312 203 559h66q-207 -261 -207 -561q0 -137 47 -264h-61z" />
    <glyph glyph-name="parenright.case" horiz-adv-x="307" 
d="M-18 -65q207 261 207 561q0 137 -47 264h61q49 -130 49 -266q0 -311 -204 -559h-66z" />
    <glyph glyph-name="bracketleft.case" horiz-adv-x="299" 
d="M35 -65l160 825h135l-11 -56h-72l-138 -713h72l-11 -56h-135z" />
    <glyph glyph-name="bracketright.case" horiz-adv-x="299" 
d="M2 -9h71l138 713h-72l11 56h135l-160 -825h-134z" />
    <glyph glyph-name="braceleft.case" horiz-adv-x="324" 
d="M82 61q0 19 7 56l17 91q3 18 3 31q0 34 -16.5 55t-32.5 25l-16 4l12 62q3 0 9 1.5t22 8.5t29.5 18.5t27 34t19.5 52.5l17 85q36 181 198 176l-11 -56q-10 1 -21 -0.5t-27.5 -8.5t-30.5 -19.5t-27 -37.5t-19 -59l-20 -101q-6 -29 -18.5 -52.5t-27 -36.5t-28 -21.5
t-22.5 -10.5l-9 -3v-2q6 -3 16 -9.5t26 -32.5t16 -59q0 -12 -3 -29l-21 -107q-5 -28 -5 -44q0 -84 83 -81l-12 -56q-6 -1 -15 -1q-15 0 -31.5 4.5t-38.5 16t-36 39t-14 67.5z" />
    <glyph glyph-name="braceright.case" horiz-adv-x="325" 
d="M-22 -10q11 -1 22.5 0.5t27.5 8.5t30 19.5t26.5 37.5t19.5 59l21 112q9 48 35.5 79.5t47.5 39.5l22 8v2l-6 3t-14 10.5t-17.5 19t-13.5 28t-6 37.5q0 13 3 29l18 96q5 21 5 44q0 84 -82 81l11 56h29.5t35 -8.5t34.5 -21t26 -38t10 -58.5q0 -14 -6 -56l-16 -80
q-3 -18 -3 -31q0 -34 16.5 -55t33.5 -25l16 -4l-12 -62q-4 0 -10 -1.5t-22 -8.5t-29.5 -18.5t-27 -34t-19.5 -52.5l-18 -96q-36 -177 -183 -177l-15 1z" />
    <glyph glyph-name="at.case" horiz-adv-x="754" 
d="M53 289q0 112 60.5 211.5t162.5 158.5t217 59q101 0 152.5 -44.5t51.5 -114.5q0 -23 -4 -39l-59 -306h71l-11 -56h-260q-79 0 -127 46.5t-48 115.5q0 88 71 155t174 67h126q1 12 1 21q0 40 -37.5 68t-108.5 28q-145 0 -253.5 -112.5t-108.5 -257.5q0 -109 66 -177.5
t178 -68.5l-12 -58q-132 0 -217 85t-85 219zM329 324q0 -48 31 -79t82 -31h124l53 275h-122q-66 0 -117 -50.5t-51 -114.5z" />
    <glyph glyph-name="guillemotleft.case" horiz-adv-x="527" 
d="M362 137l-128 207l206 204h79l-215 -209l127 -202h-69zM186 137l-128 207l192 204h78l-200 -209l127 -202h-69z" />
    <glyph glyph-name="guillemotright.case" horiz-adv-x="529" 
d="M219 137l200 209l-127 202h69l129 -207l-192 -204h-79zM29 137l214 209l-127 202h69l129 -207l-206 -204h-79z" />
    <glyph glyph-name="guilsinglleft.case" horiz-adv-x="343" 
d="M186 137l-128 207l192 204h78l-200 -209l127 -202h-69z" />
    <glyph glyph-name="guilsinglright.case" horiz-adv-x="344" 
d="M35 137l200 209l-127 202h69l128 -207l-192 -204h-78z" />
    <glyph glyph-name="endash.case" horiz-adv-x="707" 
d="M105 315l11 58h500l-11 -58h-500z" />
    <glyph glyph-name="emdash.case" horiz-adv-x="907" 
d="M105 315l11 58h700l-11 -58h-700z" />
    <glyph glyph-name="periodcentered.case" horiz-adv-x="270" 
d="M95 305l16 83h80l-16 -83h-80z" />
    <glyph glyph-name="questiondown.case" horiz-adv-x="440" 
d="M275 624l16 79h78l-16 -79h-78zM11 140q0 49 22 89.5t55 68.5t67 53.5t61.5 57.5t35.5 68l9 42h67l-9 -45q-10 -46 -38 -84t-60.5 -64t-63.5 -51.5t-52 -57.5t-21 -70q0 -41 29.5 -67.5t79.5 -26.5q32 0 64.5 10.5t48.5 20.5l17 11l29 -55q-8 -6 -23 -14.5t-58.5 -23
t-84.5 -14.5q-79 0 -127 41.5t-48 110.5z" />
    <glyph glyph-name="exclamdown.case" horiz-adv-x="292" 
d="M170 624l16 79h79l-16 -79h-79zM54 0l104 519h64l-98 -519h-70z" />
    <glyph glyph-name="bullet.case" horiz-adv-x="405" 
d="M212 209q-59 0 -101 42t-42 101t42 101t101 42t101 -42t42 -101t-42 -101t-101 -42z" />
    <glyph glyph-name="zero.p_osf" horiz-adv-x="601" 
d="M54 203q0 83 33.5 162t101 134.5t153.5 55.5q97 0 146.5 -61.5t49.5 -155.5q0 -82 -33 -161t-100.5 -134t-153.5 -55q-99 0 -148 60.5t-49 154.5zM124 206q0 -68 32.5 -112.5t96.5 -44.5q63 0 114 46t76 110.5t25 129.5q0 69 -32.5 114t-96.5 45q-63 0 -114 -46.5
t-76 -111.5t-25 -130z" />
    <glyph glyph-name="one.p_osf" horiz-adv-x="446" 
d="M7 0l11 58h156l69 357l11 53h-2q-18 -13 -44 -27l-114 -62l-24 52l202 112h63l-94 -485h139l-12 -58h-361z" />
    <glyph glyph-name="two.p_osf" horiz-adv-x="545" 
d="M12 0l9 48q208 124 298.5 202.5t90.5 154.5q0 44 -32.5 66.5t-82.5 22.5q-40 0 -82.5 -20t-65.5 -40l-23 -20l-32 50q4 4 11 10t29 21.5t45 27.5t57.5 22t67.5 10q88 0 133.5 -40t45.5 -103q0 -93 -83 -173t-265 -182v-2q20 3 57 3h251l-11 -58h-418z" />
    <glyph glyph-name="three.p_osf" horiz-adv-x="514" 
d="M-36 -38l45 44q2 -3 6 -8t18 -17.5t30 -22t43 -17.5t56 -8q71 0 130.5 48t59.5 122q0 51 -41 81.5t-116 30.5l-40 -2l-8 42l215 202q8 8 17.5 15.5t14.5 11.5l5 3v2q-21 -2 -53 -2h-189l-17 -90h-61l28 146h393l-8 -45l-249 -229q22 -1 44 -6t47.5 -17t44.5 -29
t31.5 -45.5t12.5 -63.5q0 -99 -78 -167.5t-184 -68.5q-39 0 -74 9.5t-56.5 22.5t-37.5 26t-23 22z" />
    <glyph glyph-name="four.p_osf" horiz-adv-x="573" 
d="M-20 38l8 44l419 461h75l-86 -448h107l-11 -57h-108l-30 -154h-67l30 154h-337zM76 95h252l58 297l16 65h-2q-23 -32 -46 -57l-278 -303v-2z" />
    <glyph glyph-name="five.p_osf" horiz-adv-x="516" 
d="M-30 -35l43 46q6 -8 17.5 -19.5t49.5 -30.5t79 -19q77 0 141 49.5t64 132.5q0 57 -41.5 89t-103.5 32q-32 0 -65 -8.5t-50 -17.5l-18 -9l-41 15l100 318h334l-29 -146h-61l17 90h-212l-53 -167l-14 -38h2q47 21 108 21q85 0 141.5 -46t56.5 -129q0 -109 -83.5 -178
t-192.5 -69q-57 0 -104 21t-66 42z" />
    <glyph glyph-name="six.p_osf" horiz-adv-x="586" 
d="M52 223q0 65 25 140t70.5 145t120.5 116.5t164 46.5q36 0 69 -7t48 -14l15 -7l-34 -54q-40 21 -98 21q-104 0 -180 -79.5t-108 -189.5h2q33 37 83 58t104 21q87 0 139 -47.5t52 -126.5q0 -101 -75 -179.5t-187 -78.5q-98 0 -154 64t-56 171zM122 211q0 -63 38.5 -112.5
t104.5 -49.5q79 0 133.5 56t54.5 137q0 55 -36 87t-101 32q-72 0 -133 -45t-61 -105z" />
    <glyph glyph-name="seven.p_osf" horiz-adv-x="515" 
d="M19 -116l400 572l26 31v2q-17 -2 -37 -2h-268l-17 -90h-62l28 146h447l-8 -45l-431 -614h-78z" />
    <glyph glyph-name="eight.p_osf" horiz-adv-x="583" 
d="M35 162q0 120 156 211q-66 47 -66 111q0 73 65 130.5t167 57.5q89 0 140 -39.5t51 -106.5q0 -101 -124 -208q78 -50 78 -120q0 -84 -77.5 -147t-181.5 -63q-90 0 -149 47t-59 127zM372 347q18 14 36.5 31t44 59t25.5 82q0 43 -33 67t-89 24q-69 0 -115 -36.5t-46 -87.5
q0 -17 8 -32.5t18.5 -26.5t31.5 -23.5t35.5 -19t42.5 -19t41 -18.5zM106 166q0 -53 40.5 -85t98.5 -32q67 0 126.5 43t59.5 104q0 21 -10 38.5t-33 33t-41 25t-53.5 25t-50.5 23.5q-137 -76 -137 -175z" />
    <glyph glyph-name="nine.p_osf" horiz-adv-x="578" 
d="M41 -46q40 -21 97 -21q104 0 180 79.5t108 189.5h-2q-70 -79 -187 -79q-86 0 -138 47.5t-52 126.5q0 100 75 179t186 79q99 0 154.5 -64t55.5 -171q0 -51 -15 -110t-47 -119t-76 -109t-107 -79.5t-135 -30.5q-36 0 -68.5 7t-46.5 14l-14 7zM252 182q72 0 134 44.5
t62 104.5q0 64 -38.5 113t-104.5 49q-79 0 -133 -55.5t-54 -137.5q0 -55 35.5 -86.5t98.5 -31.5z" />
    <glyph glyph-name="zero.t_osf" 
d="M36 203q0 83 33.5 162t101 134.5t153.5 55.5q97 0 146.5 -61.5t49.5 -155.5q0 -82 -33 -161t-100.5 -134t-153.5 -55q-99 0 -148 60.5t-49 154.5zM106 206q0 -68 32.5 -112.5t96.5 -44.5q63 0 114 46t76 110.5t25 129.5q0 69 -32.5 114t-96.5 45q-63 0 -114 -46.5
t-76 -111.5t-25 -130z" />
    <glyph glyph-name="one.t_osf" 
d="M66 0l11 58h156l69 357l11 53h-2q-18 -13 -44 -27l-114 -62l-24 52l202 112h63l-94 -485h139l-12 -58h-361z" />
    <glyph glyph-name="two.t_osf" 
d="M22 0l9 48q208 124 298.5 202.5t90.5 154.5q0 44 -32.5 66.5t-82.5 22.5q-40 0 -82.5 -20t-65.5 -40l-23 -20l-32 50q4 4 11 10t29 21.5t45 27.5t57.5 22t67.5 10q88 0 133.5 -40t45.5 -103q0 -93 -83 -173t-265 -182v-2q20 3 57 3h251l-11 -58h-418z" />
    <glyph glyph-name="three.t_osf" 
d="M-11 -38l45 44q2 -3 6 -8t18 -17.5t30 -22t43 -17.5t56 -8q71 0 130.5 48t59.5 122q0 51 -41 81.5t-116 30.5l-40 -2l-8 42l215 202q8 8 17.5 15.5t14.5 11.5l5 3v2q-21 -2 -53 -2h-189l-17 -90h-61l28 146h393l-8 -45l-249 -229q22 -1 44 -6t47.5 -17t44.5 -29
t31.5 -45.5t12.5 -63.5q0 -99 -78 -167.5t-184 -68.5q-39 0 -74 9.5t-56.5 22.5t-37.5 26t-22 22z" />
    <glyph glyph-name="four.t_osf" 
d="M-24 38l8 44l419 461h75l-86 -448h107l-11 -57h-108l-30 -154h-67l30 154h-337zM72 95h252l58 297l16 65h-2q-23 -32 -46 -57l-278 -303v-2z" />
    <glyph glyph-name="five.t_osf" 
d="M-6 -35l43 46q6 -8 17.5 -19.5t49.5 -30.5t79 -19q77 0 141 49.5t64 132.5q0 57 -41.5 89t-103.5 32q-32 0 -65.5 -8.5t-50.5 -17.5l-17 -9l-41 15l100 318h334l-29 -146h-61l17 90h-212l-53 -167l-14 -38h2q47 21 108 21q85 0 141.5 -46t56.5 -129q0 -109 -83.5 -178
t-192.5 -69q-57 0 -104 21t-66 42z" />
    <glyph glyph-name="six.t_osf" 
d="M41 223q0 65 25 140t70.5 145t120.5 116.5t164 46.5q36 0 69 -7t48 -14l15 -7l-34 -54q-40 21 -98 21q-104 0 -180 -79.5t-108 -189.5h2q33 37 83 58t104 21q87 0 139 -47.5t52 -126.5q0 -101 -75 -179.5t-187 -78.5q-99 0 -154.5 64t-55.5 171zM111 211
q0 -63 38.5 -112.5t104.5 -49.5q79 0 133.5 56t54.5 137q0 55 -36 87t-101 32q-72 0 -133 -45t-61 -105z" />
    <glyph glyph-name="seven.t_osf" 
d="M44 -116l400 572l26 31v2q-17 -2 -37 -2h-268l-17 -90h-62l28 146h447l-8 -45l-431 -614h-78z" />
    <glyph glyph-name="eight.t_osf" 
d="M26 162q0 120 156 211q-66 47 -66 111q0 73 65 130.5t167 57.5q89 0 140 -39.5t51 -106.5q0 -101 -124 -208q78 -50 78 -120q0 -84 -77.5 -147t-181.5 -63q-90 0 -149 47t-59 127zM363 347q18 14 36.5 31t44 59t25.5 82q0 43 -33 67t-89 24q-69 0 -115 -36.5t-46 -87.5
q0 -17 8 -32.5t18.5 -26.5t31.5 -23.5t35.5 -19t42.5 -19t41 -18.5zM97 166q0 -53 40.5 -85t98.5 -32q67 0 126.5 43t59.5 104q0 21 -10 38.5t-33 33t-41 25t-53.5 25t-50.5 23.5q-137 -76 -137 -175z" />
    <glyph glyph-name="nine.t_osf" 
d="M34 -46q40 -21 97 -21q104 0 180 79.5t108 189.5h-2q-70 -79 -187 -79q-86 0 -138 47.5t-52 126.5q0 100 75 179t186 79q98 0 154 -64t56 -171q0 -51 -15 -110t-47 -119t-76 -109t-107 -79.5t-135 -30.5q-36 0 -68.5 7t-46.5 14l-14 7zM245 182q72 0 134 44.5t62 104.5
q0 64 -38.5 113t-104.5 49q-79 0 -133 -55.5t-54 -137.5q0 -55 35.5 -86.5t98.5 -31.5z" />
    <glyph glyph-name="dollar.osf" horiz-adv-x="483" 
d="M-4 90l40 44q2 -3 7 -8.5t21 -19t33.5 -23.5t46 -17t58.5 -5q55 0 98.5 26.5t43.5 72.5q0 31 -26.5 54t-65 39.5t-76.5 35t-64.5 50.5t-26.5 76q0 67 55.5 112.5t139.5 51.5l18 92h56l-18 -93q39 -5 72 -20t47 -28l14 -13l-40 -48q-5 5 -15 13.5t-44.5 22t-74.5 13.5
q-54 0 -96.5 -25.5t-42.5 -74.5q0 -33 26.5 -56.5t65 -39t76.5 -33.5t64.5 -50t26.5 -78q0 -64 -58.5 -111.5t-144.5 -49.5l-19 -103h-56l20 106q-49 7 -89 29t-56 40z" />
    <glyph glyph-name="cent.osf" horiz-adv-x="527" 
d="M190 -26l17 85q-79 11 -126.5 64.5t-47.5 134.5q0 112 79.5 191.5t188.5 90.5l16 85h58l-18 -85q29 -3 56 -12t43.5 -20t29.5 -21.5t18 -17.5l6 -7l-40 -47q-2 3 -5 7t-15.5 15t-27.5 19.5t-39.5 15.5t-52.5 7q-90 0 -158 -63t-68 -155q0 -65 42.5 -104t113.5 -39
q43 0 84 17t61 33l20 17l24 -55q-8 -8 -23.5 -20t-64 -32.5t-97.5 -22.5l-17 -81h-57z" />
    <glyph glyph-name="sterling.osf" horiz-adv-x="579" 
d="M-9 0l10 60h85l36 185h-66l9 52h67l20 104q17 85 83.5 135.5t156.5 50.5q46 0 86 -13.5t57 -27.5l17 -13l-40 -48q-47 39 -124 39q-66 0 -111.5 -36t-55.5 -89l-21 -102h231l-10 -52h-230l-36 -185h338l-11 -60h-491z" />
    <glyph glyph-name="yen.osf" horiz-adv-x="573" 
d="M56 149l10 51h167l5 27l-22 53h-135l11 51h104l-102 246h76l83 -209l28 -83h2q30 46 58 83l164 209h81l-196 -246h103l-10 -51h-134l-42 -53l-5 -27h166l-10 -51h-166l-28 -149h-70l29 149h-167z" />
    <glyph glyph-name="florin.osf" horiz-adv-x="562" 
d="M-79 -62q29 -5 61 -5q112 0 148 129l73 256h-90l11 57h95l33 118q16 56 43.5 94.5t60 55.5t57.5 23t51 6q20 0 43 -2t36 -4l13 -2l-11 -59q-45 6 -80 6q-111 0 -148 -129l-30 -107h124l-11 -57h-130l-76 -269q-16 -56 -43.5 -94t-60 -54.5t-57 -22.5t-50.5 -6
q-19 0 -37.5 2t-27.5 4l-9 1z" />
    <glyph glyph-name="Euro.osf" horiz-adv-x="571" 
d="M27 195l9 48h66q3 40 15 86h-62l9 48h69q41 92 127 151t208 59q27 0 53 -3.5t39 -7.5l12 -4l-27 -55q-36 9 -77 9q-91 0 -157.5 -41.5t-100.5 -107.5h277l-20 -48h-279q-13 -37 -16 -86h265l-20 -48h-240q9 -65 60 -105t141 -40q22 0 44.5 3t33.5 7l11 3l4 -61
q-43 -14 -95 -14q-122 0 -191.5 58.5t-79.5 148.5h-78z" />
    <glyph glyph-name="zero.numerator" horiz-adv-x="401" 
d="M202 258q-126 0 -126 142q0 36 6 75t20.5 82.5t36.5 77.5t57.5 56t78.5 22q126 0 126 -144q0 -45 -10.5 -95t-32 -100.5t-62.5 -83t-94 -32.5zM203 310q37 0 65.5 26.5t44 67.5t23.5 83t8 80q0 95 -71 95q-49 0 -82.5 -47t-46 -103t-12.5 -110q0 -92 71 -92z" />
    <glyph glyph-name="one.numerator" horiz-adv-x="323" 
d="M37 268l9 48h105l53 277l9 36h-2q-10 -13 -26 -26l-55 -46l-29 39l129 107h52l-76 -387h103l-10 -48h-262z" />
    <glyph glyph-name="two.numerator" horiz-adv-x="366" 
d="M36 268q1 55 30 97.5t69.5 69t81 49.5t68.5 52t28 64q0 27 -18.5 44.5t-49.5 17.5q-24 0 -48.5 -12t-37.5 -24l-13 -13l-32 38q6 7 18 17.5t47 27.5t69 17q57 0 90 -30t33 -79q0 -44 -24.5 -79t-61 -58t-74 -43.5t-69 -48t-40.5 -59.5h176l11 55h49l-19 -103h-283z" />
    <glyph glyph-name="three.numerator" horiz-adv-x="370" 
d="M183 258q-42 0 -78.5 16.5t-51.5 33.5l-15 16l39 36q4 -6 12 -14t35.5 -22t58.5 -14q42 0 74.5 30.5t32.5 74.5q0 31 -25 49.5t-59 18.5h-31l-9 30l129 124l25 20v2q-13 -3 -29 -3h-117l-11 -55h-50l20 102h266l-7 -36l-147 -141q38 -6 70 -33t32 -78q0 -62 -48.5 -109.5
t-115.5 -47.5z" />
    <glyph glyph-name="four.numerator" horiz-adv-x="382" 
d="M229 268l23 115h-211l7 37l266 283h55l-53 -273h65l-9 -47h-65l-23 -115h-55zM115 430h146l31 161l12 43h-2q-13 -20 -29 -36l-158 -166v-2z" />
    <glyph glyph-name="five.numerator" horiz-adv-x="366" 
d="M176 258q-39 0 -73.5 16t-49.5 32l-15 15l37 36q5 -5 13.5 -13t35 -21.5t53.5 -13.5q48 0 82 32t34 77q0 37 -24 60t-64 23q-20 0 -40 -6t-31 -12l-10 -6l-31 12l67 214h223l-20 -102h-50l11 55h-127l-30 -100l-8 -21h1q23 11 59 11q58 0 94 -35.5t36 -90.5
q0 -65 -50.5 -113.5t-122.5 -48.5z" />
    <glyph glyph-name="six.numerator" horiz-adv-x="384" 
d="M204 258q-63 0 -98 42t-35 113q0 58 27 125.5t84.5 121t128.5 53.5q24 0 46.5 -5.5t32.5 -11.5l10 -5l-27 -44q-26 15 -64 15q-53 0 -96.5 -44t-65.5 -109h2q42 39 103 39q53 0 85.5 -31.5t32.5 -84.5q0 -78 -50.5 -126t-115.5 -48zM206 310q47 0 77 35.5t30 84.5
q0 33 -20 52t-55 19q-40 0 -75.5 -27.5t-35.5 -63.5q0 -40 21 -70t58 -30z" />
    <glyph glyph-name="seven.numerator" horiz-adv-x="347" 
d="M57 268l257 367l18 21l1 2q-13 -2 -25 -2h-154l-11 -55h-50l20 102h293l-7 -37l-279 -398h-63z" />
    <glyph glyph-name="eight.numerator" horiz-adv-x="390" 
d="M197 257q-58 0 -98 30.5t-40 84.5q0 77 98 141q-37 29 -37 72q0 59 47 93t106 34q53 0 88 -26.5t35 -71.5q0 -69 -81 -137q49 -33 49 -82q0 -56 -50.5 -97t-116.5 -41zM274 500q66 50 66 108q0 26 -21 40t-50 14q-36 0 -65 -20t-29 -55q0 -13 4.5 -23.5t17.5 -20t20 -14
t29.5 -15.5t27.5 -14zM198 307q41 0 75 25t34 62q0 14 -6 25t-19 20.5t-24 16t-31.5 16.5t-30.5 15q-80 -49 -80 -111q0 -32 24 -50.5t58 -18.5z" />
    <glyph glyph-name="nine.numerator" horiz-adv-x="383" 
d="M148 258q-25 0 -47.5 5.5t-32.5 10.5l-11 6l28 44q25 -14 64 -14q53 0 96 44.5t65 108.5h-2q-43 -40 -103 -40q-53 0 -85 32t-32 85q0 77 50 125t115 48q63 0 98.5 -42t35.5 -113q0 -42 -16.5 -92.5t-45.5 -97.5t-76 -78.5t-101 -31.5zM219 470q40 0 75.5 28t35.5 64
q0 40 -20.5 70t-57.5 30q-47 0 -77.5 -36t-30.5 -84q0 -33 20.5 -52.5t54.5 -19.5z" />
    <glyph glyph-name="zero.denominator" horiz-adv-x="400" 
d="M149 -10q-126 0 -126 142q0 36 6 75t20.5 82.5t36.5 77.5t57.5 56t78.5 22q126 0 126 -144q0 -45 -10.5 -95t-32 -100.5t-62.5 -83t-94 -32.5zM150 42q37 0 65.5 26.5t44 67.5t23.5 83t8 80q0 95 -71 95q-49 0 -82.5 -47t-46 -103t-12.5 -110q0 -92 71 -92z" />
    <glyph glyph-name="one.denominator" horiz-adv-x="321" 
d="M-18 0l9 48h105l53 277l9 36h-2q-10 -13 -26 -26l-55 -46l-29 39l129 107h52l-76 -387h103l-10 -48h-262z" />
    <glyph glyph-name="two.denominator" horiz-adv-x="366" 
d="M-16 0q1 55 30 97.5t69.5 69t81 49.5t68.5 52t28 64q0 27 -18.5 44.5t-49.5 17.5q-24 0 -48.5 -12t-37.5 -24l-13 -13l-32 38q6 7 18 17.5t47 27.5t69 17q57 0 90 -30t33 -79q0 -44 -24.5 -79t-61 -58t-74 -43.5t-69 -48t-40.5 -59.5h176l11 55h49l-19 -103h-283z" />
    <glyph glyph-name="three.denominator" horiz-adv-x="370" 
d="M131 -10q-42 0 -78.5 16.5t-51.5 33.5l-15 16l39 36q4 -6 12 -14t35.5 -22t58.5 -14q42 0 74.5 30.5t32.5 74.5q0 31 -25 49.5t-59 18.5h-31l-9 30l129 124l25 20v2q-13 -3 -29 -3h-117l-11 -55h-50l20 102h266l-7 -36l-147 -141q38 -6 70 -33t32 -78q0 -62 -48.5 -109.5
t-115.5 -47.5z" />
    <glyph glyph-name="four.denominator" horiz-adv-x="382" 
d="M177 0l23 115h-211l7 37l266 283h55l-53 -273h65l-9 -47h-65l-23 -115h-55zM63 162h146l31 161l12 43h-2q-13 -20 -29 -36l-158 -166v-2z" />
    <glyph glyph-name="five.denominator" horiz-adv-x="365" 
d="M123 -10q-39 0 -73.5 15.5t-49.5 31.5l-15 16l37 36q5 -5 13.5 -13t35 -21.5t53.5 -13.5q48 0 82 32t34 77q0 37 -24 60t-64 23q-20 0 -40 -6t-30 -12l-11 -6l-31 12l67 214h223l-20 -102h-50l11 55h-127l-30 -100l-8 -21h1q23 11 59 11q58 0 94 -35.5t36 -90.5
q0 -65 -50.5 -113.5t-122.5 -48.5z" />
    <glyph glyph-name="six.denominator" horiz-adv-x="384" 
d="M152 -10q-63 0 -98 42t-35 113q0 58 27 125.5t84.5 121t128.5 53.5q24 0 46.5 -5.5t32.5 -11.5l10 -5l-27 -44q-26 15 -64 15q-53 0 -96.5 -44t-65.5 -109h2q42 39 103 39q53 0 85.5 -31.5t32.5 -84.5q0 -78 -50.5 -126t-115.5 -48zM154 42q47 0 77 35.5t30 84.5
q0 33 -20 52t-55 19q-40 0 -75.5 -27.5t-35.5 -63.5q0 -40 21 -70t58 -30z" />
    <glyph glyph-name="seven.denominator" horiz-adv-x="347" 
d="M5 0l257 367l18 21l1 2q-13 -2 -25 -2h-154l-11 -55h-50l20 102h293l-7 -37l-279 -398h-63z" />
    <glyph glyph-name="eight.denominator" horiz-adv-x="390" 
d="M145 -10q-58 0 -98 30.5t-40 84.5q0 77 98 141q-37 29 -37 72q0 59 47 93t106 34q53 0 88 -26.5t35 -71.5q0 -69 -81 -137q49 -33 49 -82q0 -56 -50.5 -97t-116.5 -41zM222 233q66 50 66 108q0 26 -21 40t-50 14q-36 0 -65 -20t-29 -55q0 -13 4.5 -23.5t17.5 -20t20 -14
t29.5 -15.5t27.5 -14zM146 40q41 0 75 25t34 62q0 14 -6 25t-19 20.5t-24 16t-31.5 16.5t-30.5 15q-80 -49 -80 -111q0 -32 24 -50.5t58 -18.5z" />
    <glyph glyph-name="nine.denominator" horiz-adv-x="383" 
d="M96 -10q-25 0 -47.5 5.5t-32.5 10.5l-11 6l28 44q25 -14 64 -14q53 0 96 44.5t65 108.5h-2q-43 -40 -103 -40q-53 0 -85 32t-32 85q0 77 50 125t115 48q63 0 98.5 -42t35.5 -113q0 -42 -16.5 -92.5t-45.5 -97.5t-76 -78.5t-101 -31.5zM167 202q40 0 75.5 28t35.5 64
q0 40 -20.5 70t-57.5 30q-47 0 -77.5 -36t-30.5 -84q0 -33 20.5 -52.5t54.5 -19.5z" />
    </font>
</defs>
</svg>
