<?xml version="1.0" encoding="UTF-8"?>
<svg width="159px" height="127px" viewBox="0 0 159 127" version="1.1" xmlns="http://www.w3.org/2000/svg" xmlns:xlink="http://www.w3.org/1999/xlink">
    <!-- Generator: Sketch 48.2 (47327) - http://www.bohemiancoding.com/sketch -->
    <title>icon/404-error</title>
    <desc>Created with Sketch.</desc>
    <defs></defs>
    <g id="Symbols" stroke="none" stroke-width="1" fill="none" fill-rule="evenodd">
        <g id="icon/404-error" fill="#57A900">
            <g id="Group-3">
                <g id="window-delete" fill-rule="nonzero">
                    <polygon id="Shape" points="-0.179245283 26.8018868 -0.179245283 25.8018868 159.311321 25.8018868 159.311321 26.8018868"></polygon>
                    <path d="M0.820754717,0.5 L0.820754717,126.179245 L158.311321,126.179245 L158.311321,0.5 L0.820754717,0.5 Z M159.311321,-0.5 L159.311321,127.179245 L-0.179245283,127.179245 L-0.179245283,-0.5 L159.311321,-0.5 Z" id="Rectangle-path"></path>
                </g>
                <g id="Group" transform="translate(54.000000, 45.000000)" fill-rule="nonzero">
                    <g id="simple-remove">
                        <path d="M12.4797799,-0.353553391 C12.6750421,-0.548815536 12.9916246,-0.548815536 13.1868867,-0.353553391 C13.3821489,-0.158291245 13.3821489,0.158291245 13.1868867,0.353553391 L0.353553391,13.1868867 C0.158291245,13.3821489 -0.158291245,13.3821489 -0.353553391,13.1868867 C-0.548815536,12.9916246 -0.548815536,12.6750421 -0.353553391,12.4797799 L12.4797799,-0.353553391 Z" id="Shape"></path>
                        <path d="M51.4797799,-0.353553391 C51.6750421,-0.548815536 51.9916246,-0.548815536 52.1868867,-0.353553391 C52.3821489,-0.158291245 52.3821489,0.158291245 52.1868867,0.353553391 L39.3535534,13.1868867 C39.1582912,13.3821489 38.8417088,13.3821489 38.6464466,13.1868867 C38.4511845,12.9916246 38.4511845,12.6750421 38.6464466,12.4797799 L51.4797799,-0.353553391 Z" id="Shape-Copy"></path>
                        <path d="M-0.353553391,0.353553391 C-0.548815536,0.158291245 -0.548815536,-0.158291245 -0.353553391,-0.353553391 C-0.158291245,-0.548815536 0.158291245,-0.548815536 0.353553391,-0.353553391 L13.1868867,12.4797799 C13.3821489,12.6750421 13.3821489,12.9916246 13.1868867,13.1868867 C12.9916246,13.3821489 12.6750421,13.3821489 12.4797799,13.1868867 L-0.353553391,0.353553391 Z" id="Shape"></path>
                        <path d="M38.6464466,0.353553391 C38.4511845,0.158291245 38.4511845,-0.158291245 38.6464466,-0.353553391 C38.8417088,-0.548815536 39.1582912,-0.548815536 39.3535534,-0.353553391 L52.1868867,12.4797799 C52.3821489,12.6750421 52.3821489,12.9916246 52.1868867,13.1868867 C51.9916246,13.3821489 51.6750421,13.3821489 51.4797799,13.1868867 L38.6464466,0.353553391 Z" id="Shape-Copy-2"></path>
                    </g>
                    <polygon id="Path-2" points="30.2959779 35.421875 30.2959779 36.421875 19.1700774 36.421875 26.9183257 21.7663055 27.8023774 22.2336945 20.8299226 35.421875"></polygon>
                    <path d="M4.29442143,58.982737 L3.70557857,58.1744895 C17.7492367,47.9430844 32.2421606,47.9430844 47.0671498,58.1670042 L46.4994247,58.9902224 C32.0198386,49.0045068 17.990571,49.0045068 4.29442143,58.982737 Z" id="Path-3"></path>
                </g>
                <g id="Group-2" transform="translate(8.000000, 11.000000)">
                    <circle id="Oval-2" cx="3" cy="3" r="3"></circle>
                    <circle id="Oval-2-Copy" cx="14" cy="3" r="3"></circle>
                    <circle id="Oval-2-Copy-2" cx="26" cy="3" r="3"></circle>
                </g>
                <path d="M49,19 L117,19 L117,6 L49,6 L49,19 Z M48,5 L118,5 L118,20 L48,20 L48,5 Z" id="Rectangle-5" fill-rule="nonzero"></path>
                <path d="M55.404,13.232 L55.404,10.616 L53.172,13.232 L55.404,13.232 Z M55.404,14.732 L51.3,14.732 L51,13.424 L55.608,8.084 L57.168,8.084 L57.168,13.232 L58.296,13.232 L58.296,14.732 L57.168,14.732 L57.168,16.544 L55.404,16.544 L55.404,14.732 Z M64.0880002,15.02 C64.3680016,15.02 64.6199991,14.9540007 64.8440002,14.822 C65.0680013,14.6899993 65.2599994,14.5060012 65.4200002,14.27 C65.580001,14.0339988 65.7019998,13.7540016 65.7860002,13.43 C65.8700006,13.1059984 65.9120002,12.7520019 65.9120002,12.368 L65.9120002,12.344 C65.9120002,11.9599981 65.8680006,11.6060016 65.7800002,11.282 C65.6919998,10.9579984 65.566001,10.6760012 65.4020002,10.436 C65.2379994,10.1959988 65.0420013,10.0080007 64.8140002,9.872 C64.5859991,9.73599932 64.3360016,9.668 64.0640002,9.668 C63.7839988,9.668 63.5320013,9.73399934 63.3080002,9.866 C63.0839991,9.99800066 62.894001,10.1819988 62.7380002,10.418 C62.5819994,10.6540012 62.4600006,10.9339984 62.3720002,11.258 C62.2839998,11.5820016 62.2400002,11.9359981 62.2400002,12.32 L62.2400002,12.344 C62.2400002,12.7280019 62.2839998,13.0839984 62.3720002,13.412 C62.4600006,13.7400016 62.5839994,14.0219988 62.7440002,14.258 C62.904001,14.4940012 63.0979991,14.6799993 63.3260002,14.816 C63.5540013,14.9520007 63.8079988,15.02 64.0880002,15.02 Z M64.0640002,16.688 C63.5039974,16.688 62.9940025,16.5780011 62.5340002,16.358 C62.0739979,16.1379989 61.6820018,15.8340019 61.3580002,15.446 C61.0339986,15.0579981 60.7840011,14.6000026 60.6080002,14.072 C60.4319993,13.5439974 60.3440002,12.976003 60.3440002,12.368 L60.3440002,12.344 C60.3440002,11.735997 60.4339993,11.1680026 60.6140002,10.64 C60.7940011,10.1119974 61.0479986,9.65200196 61.3760002,9.26 C61.7040018,8.86799804 62.0979979,8.56000112 62.5580002,8.336 C63.0180025,8.11199888 63.5279974,8 64.0880002,8 C64.640003,8 65.1459979,8.1099989 65.6060002,8.33 C66.0660025,8.5500011 66.4579986,8.85399806 66.7820002,9.242 C67.1060018,9.63000194 67.3579993,10.0879974 67.5380002,10.616 C67.7180011,11.1440026 67.8080002,11.711997 67.8080002,12.32 L67.8080002,12.344 C67.8080002,12.952003 67.7180011,13.5199974 67.5380002,14.048 C67.3579993,14.5760026 67.1040018,15.035998 66.7760002,15.428 C66.4479986,15.820002 66.0540025,16.1279989 65.5940002,16.352 C65.1339979,16.5760011 64.624003,16.688 64.0640002,16.688 Z M74.0320004,13.232 L74.0320004,10.616 L71.8000004,13.232 L74.0320004,13.232 Z M74.0320004,14.732 L69.9280004,14.732 L69.6280004,13.424 L74.2360004,8.084 L75.7960004,8.084 L75.7960004,13.232 L76.9240004,13.232 L76.9240004,14.732 L75.7960004,14.732 L75.7960004,16.544 L74.0320004,16.544 L74.0320004,14.732 Z" id="404"></path>
            </g>
        </g>
    </g>
</svg>