<?xml version="1.0" encoding="UTF-8"?>
<svg width="40px" height="40px" viewBox="0 0 40 40" version="1.1" xmlns="http://www.w3.org/2000/svg" xmlns:xlink="http://www.w3.org/1999/xlink">
    <!-- Generator: Sketch 48.2 (47327) - http://www.bohemiancoding.com/sketch -->
    <title>icon/arrow-circle-right</title>
    <desc>Created with Sketch.</desc>
    <defs></defs>
    <g id="Symbols" stroke="none" stroke-width="1" fill="none" fill-rule="evenodd">
        <g id="icon/arrow-circle-right" fill="#FFFFFF" fill-rule="nonzero">
            <g id="circle-simple-right">
                <polygon id="Shape" points="8.38709677 20.5 8.38709677 19.5 31.6129032 19.5 31.6129032 20.5"></polygon>
                <path d="M20,39.8548387 C9.03447537,39.8548387 0.14516129,30.9655246 0.14516129,20 C0.14516129,9.03447537 9.03447537,0.14516129 20,0.14516129 C30.9655246,0.14516129 39.8548387,9.03447537 39.8548387,20 C39.8548387,30.9655246 30.9655246,39.8548387 20,39.8548387 Z M20,38.8548387 C30.4132399,38.8548387 38.8548387,30.4132399 38.8548387,20 C38.8548387,9.58676012 30.4132399,1.14516129 20,1.14516129 C9.58676012,1.14516129 1.14516129,9.58676012 1.14516129,20 C1.14516129,30.4132399 9.58676012,38.8548387 20,38.8548387 Z" id="Oval"></path>
                <polygon id="Shape" points="21.8735384 10.9677419 22.5806452 10.2606352 32.32001 20 22.5806452 29.7393648 21.8735384 29.0322581 30.9057964 20"></polygon>
            </g>
        </g>
    </g>
</svg>