<?xml version="1.0" encoding="UTF-8"?>
<svg width="32px" height="30px" viewBox="0 0 32 30" version="1.1" xmlns="http://www.w3.org/2000/svg" xmlns:xlink="http://www.w3.org/1999/xlink">
    <!-- Generator: Sketch 48.2 (47327) - http://www.bohemiancoding.com/sketch -->
    <title>icon/checkmark-blue</title>
    <desc>Created with Sketch.</desc>
    <defs></defs>
    <g id="Symbols" stroke="none" stroke-width="1" fill="none" fill-rule="evenodd">
        <g id="icon/checkmark-blue" fill="#006890" fill-rule="nonzero">
            <g id="check-circle-07">
                <path d="M28.3720716,11.4069821 L29.3422141,11.1644465 C29.6344617,12.3334367 29.7857143,13.6568971 29.7857143,15 C29.7857143,23.1332852 23.1332852,29.7857143 15,29.7857143 C6.86671477,29.7857143 0.214285714,23.1332852 0.214285714,15 C0.214285714,6.86671477 6.86671477,0.214285714 15,0.214285714 C17.8250479,0.214285714 20.4851946,0.963622806 22.836428,2.43314371 L22.3064291,3.28114201 C20.115538,1.91183507 17.6392378,1.21428571 15,1.21428571 C7.41899952,1.21428571 1.21428571,7.41899952 1.21428571,15 C1.21428571,22.5810005 7.41899952,28.7857143 15,28.7857143 C22.5810005,28.7857143 28.7857143,22.5810005 28.7857143,15 C28.7857143,13.73596 28.6437338,12.493631 28.3720716,11.4069821 Z" id="Shape"></path>
                <polygon id="Shape" points="30.7142857 1.43575036 31.4213925 2.14285714 15 18.5642496 8.5786075 12.1428571 9.28571429 11.4357504 15 17.1500361"></polygon>
            </g>
        </g>
    </g>
</svg>