<?xml version="1.0" encoding="UTF-8"?>
<svg width="14px" height="14px" viewBox="0 0 14 14" version="1.1" xmlns="http://www.w3.org/2000/svg" xmlns:xlink="http://www.w3.org/1999/xlink">
    <!-- Generator: Sketch 48.2 (47327) - http://www.bohemiancoding.com/sketch -->
    <title>icon/close-button-white</title>
    <desc>Created with Sketch.</desc>
    <defs></defs>
    <g id="Symbols" stroke="none" stroke-width="1" fill="none" fill-rule="evenodd">
        <g id="icon/close-button-white" fill="#FFFFFF" fill-rule="nonzero">
            <g id="simple-remove">
                <path d="M13.0631133,0.229779943 C13.2583754,0.0345177969 13.5749579,0.0345177969 13.7702201,0.229779943 C13.9654822,0.425042089 13.9654822,0.741624578 13.7702201,0.936886724 L0.936886724,13.7702201 C0.741624578,13.9654822 0.425042089,13.9654822 0.229779943,13.7702201 C0.0345177969,13.5749579 0.0345177969,13.2583754 0.229779943,13.0631133 L13.0631133,0.229779943 Z" id="Shape"></path>
                <path d="M0.229779943,0.936886724 C0.0345177969,0.741624578 0.0345177969,0.425042089 0.229779943,0.229779943 C0.425042089,0.0345177969 0.741624578,0.0345177969 0.936886724,0.229779943 L13.7702201,13.0631133 C13.9654822,13.2583754 13.9654822,13.5749579 13.7702201,13.7702201 C13.5749579,13.9654822 13.2583754,13.9654822 13.0631133,13.7702201 L0.229779943,0.936886724 Z" id="Shape"></path>
            </g>
        </g>
    </g>
</svg>