<?xml version="1.0" encoding="UTF-8"?>
<svg width="33px" height="30px" viewBox="0 0 33 30" version="1.1" xmlns="http://www.w3.org/2000/svg" xmlns:xlink="http://www.w3.org/1999/xlink">
    <!-- Generator: Sketch 48.2 (47327) - http://www.bohemiancoding.com/sketch -->
    <title>icon/creative-design</title>
    <desc>Created with Sketch.</desc>
    <defs></defs>
    <g id="Symbols" stroke="none" stroke-width="1" fill="none" fill-rule="evenodd">
        <g id="icon/creative-design" fill="#A4A7AA" fill-rule="nonzero">
            <g id="tablet">
                <polygon id="Shape" points="31.6428571 6.92857143 29.2857143 6.92857143 29.2857143 5.92857143 32.6428571 5.92857143 32.6428571 29.7857143 0.214285714 29.7857143 0.214285714 5.92857143 23.5714286 5.92857143 23.5714286 6.92857143 1.21428571 6.92857143 1.21428571 28.7857143 31.6428571 28.7857143"></polygon>
                <path d="M6.42857143,19.7857143 C5.36345084,19.7857143 4.5,18.9222634 4.5,17.8571429 C4.5,16.7920223 5.36345084,15.9285714 6.42857143,15.9285714 C7.49369202,15.9285714 8.35714286,16.7920223 8.35714286,17.8571429 C8.35714286,18.9222634 7.49369202,19.7857143 6.42857143,19.7857143 Z M6.42857143,18.7857143 C6.94140727,18.7857143 7.35714286,18.3699787 7.35714286,17.8571429 C7.35714286,17.344307 6.94140727,16.9285714 6.42857143,16.9285714 C5.91573559,16.9285714 5.5,17.344307 5.5,17.8571429 C5.5,18.3699787 5.91573559,18.7857143 6.42857143,18.7857143 Z" id="Oval"></path>
                <polygon id="Shape" points="25 11.2142857 25 10.2142857 28.3571429 10.2142857 28.3571429 25.5 11.6428571 25.5 11.6428571 10.2142857 19.2857143 10.2142857 19.2857143 11.2142857 12.6428571 11.2142857 12.6428571 24.5 27.3571429 24.5 27.3571429 11.2142857"></polygon>
                <path d="M19.3490553,14.5890159 C20.2915002,14.3187006 20.9736493,14.0335297 21.1978752,13.8093038 L31.1978752,3.80930375 C31.7911845,3.21599447 31.7911845,2.25257696 31.1978752,1.65926768 C30.6045659,1.06595839 29.6411484,1.06595839 29.0478391,1.65926768 L19.0478391,11.6592677 C18.8236132,11.8834936 18.5384422,12.5656426 18.268127,13.5080875 C18.1368817,13.9656697 18.0157124,14.4569098 17.907527,14.9496158 C18.4002331,14.8414304 18.8914732,14.7202611 19.3490553,14.5890159 Z M16.9185899,14.7909875 C17.0340139,14.2605762 17.1641984,13.7298535 17.3068852,13.2323809 C17.6255449,12.1213845 17.9517038,11.3411894 18.3407323,10.9521609 L28.3407323,0.952160895 C29.3245659,-0.0316726793 30.9211484,-0.0316726793 31.904982,0.952160895 C32.8888155,1.93599447 32.8888155,3.53257696 31.904982,4.51641053 L21.904982,14.5164105 C21.5159535,14.905439 20.7357583,15.231598 19.624762,15.5502577 C19.1272893,15.6929445 18.5965666,15.823129 18.0661554,15.9385529 C17.7479574,16.0077967 17.4996826,16.0569147 17.3557227,16.0832603 L16.6435503,16.2135925 L16.7738825,15.5014201 C16.8002281,15.3574603 16.8493462,15.1091855 16.9185899,14.7909875 Z" id="Shape"></path>
                <polygon id="Shape" points="5.92857143 10.2142857 6.92857143 10.2142857 6.92857143 12.6428571 5.92857143 12.6428571"></polygon>
                <polygon id="Shape" points="5.92857143 23.0714286 6.92857143 23.0714286 6.92857143 25.5 5.92857143 25.5"></polygon>
            </g>
        </g>
    </g>
</svg>