<?xml version="1.0" encoding="UTF-8"?>
<svg width="51px" height="50px" viewBox="0 0 51 50" version="1.1" xmlns="http://www.w3.org/2000/svg" xmlns:xlink="http://www.w3.org/1999/xlink">
    <!-- Generator: Sketch 48.2 (47327) - http://www.bohemiancoding.com/sketch -->
    <title>icon/devices</title>
    <desc>Created with Sketch.</desc>
    <defs></defs>
    <g id="Symbols" stroke="none" stroke-width="1" fill="none" fill-rule="evenodd">
        <g id="icon/devices" fill="#4FA438" fill-rule="nonzero">
            <g id="responsive">
                <polygon id="Shape" points="5.91666667 38.25 5.91666667 39.25 -0.0833333333 39.25 -0.0833333333 4.91666667 27.5833333 4.91666667 27.5833333 5.91666667 0.916666667 5.91666667 0.916666667 38.25"></polygon>
                <polygon id="Shape" points="44.9166667 5.91666667 44.9166667 4.91666667 50.9166667 4.91666667 50.9166667 39.25 16.5833333 39.25 16.5833333 38.25 49.9166667 38.25 49.9166667 5.91666667"></polygon>
                <polygon id="Shape" points="16.5833333 49.25 16.5833333 48.25 34.25 48.25 34.25 49.25"></polygon>
                <path d="M44.5833333,24.9166667 C44.807191,24.9166667 44.9166667,24.807191 44.9166667,24.5833333 L44.9166667,1.25 C44.9166667,1.02614237 44.807191,0.916666667 44.5833333,0.916666667 L27.9166667,0.916666667 C27.692809,0.916666667 27.5833333,1.02614237 27.5833333,1.25 L27.5833333,24.5833333 C27.5833333,24.807191 27.692809,24.9166667 27.9166667,24.9166667 L44.5833333,24.9166667 Z M44.5833333,25.9166667 L27.9166667,25.9166667 C27.1405243,25.9166667 26.5833333,25.3594757 26.5833333,24.5833333 L26.5833333,1.25 C26.5833333,0.473857625 27.1405243,-0.0833333333 27.9166667,-0.0833333333 L44.5833333,-0.0833333333 C45.3594757,-0.0833333333 45.9166667,0.473857625 45.9166667,1.25 L45.9166667,24.5833333 C45.9166667,25.3594757 45.3594757,25.9166667 44.5833333,25.9166667 Z" id="Shape"></path>
                <polygon id="Shape" points="34.9166667 20.9166667 34.9166667 19.9166667 37.5833333 19.9166667 37.5833333 20.9166667"></polygon>
                <path d="M16.25,43.25 C16.4738576,43.25 16.5833333,43.1405243 16.5833333,42.9166667 L16.5833333,24.5833333 C16.5833333,24.3594757 16.4738576,24.25 16.25,24.25 L6.25,24.25 C6.02614237,24.25 5.91666667,24.3594757 5.91666667,24.5833333 L5.91666667,42.9166667 C5.91666667,43.1405243 6.02614237,43.25 6.25,43.25 L16.25,43.25 Z M16.25,44.25 L6.25,44.25 C5.47385763,44.25 4.91666667,43.692809 4.91666667,42.9166667 L4.91666667,24.5833333 C4.91666667,23.807191 5.47385763,23.25 6.25,23.25 L16.25,23.25 C17.0261424,23.25 17.5833333,23.807191 17.5833333,24.5833333 L17.5833333,42.9166667 C17.5833333,43.692809 17.0261424,44.25 16.25,44.25 Z" id="Shape"></path>
                <polygon id="Shape" points="9.91666667 39.25 9.91666667 38.25 12.5833333 38.25 12.5833333 39.25"></polygon>
                <path d="M22.5833333,48.25 L28.25,48.25 L28.25,45.9166667 L22.5833333,45.9166667 L22.5833333,48.25 Z M29.25,44.9166667 L29.25,49.25 L21.5833333,49.25 L21.5833333,44.9166667 L29.25,44.9166667 Z" id="Rectangle-path"></path>
            </g>
        </g>
    </g>
</svg>