<?xml version="1.0" encoding="UTF-8"?>
<svg width="16px" height="16px" viewBox="0 0 16 16" version="1.1" xmlns="http://www.w3.org/2000/svg" xmlns:xlink="http://www.w3.org/1999/xlink">
    <!-- Generator: Sketch 48.2 (47327) - http://www.bohemiancoding.com/sketch -->
    <title>icon/instagram</title>
    <desc>Created with Sketch.</desc>
    <defs></defs>
    <g id="Symbols" stroke="none" stroke-width="1" fill="none" fill-rule="evenodd">
        <g id="icon/instagram" fill="#A4A7AA" fill-rule="nonzero">
            <g id="logo-instagram">
                <path d="M8,1.44133333 C10.136,1.44133333 10.3893333,1.44933333 11.2326667,1.488 C12.1433333,1.52933333 12.988,1.712 13.638,2.362 C14.288,3.012 14.4706667,3.85666667 14.512,4.76733333 C14.5506667,5.61066667 14.5586667,5.864 14.5586667,8 C14.5586667,10.136 14.5506667,10.3893333 14.512,11.2326667 C14.4706667,12.1433333 14.288,12.988 13.638,13.638 C12.988,14.288 12.1433333,14.4706667 11.2326667,14.512 C10.3893333,14.5506667 10.136,14.5586667 8,14.5586667 C5.864,14.5586667 5.61066667,14.5506667 4.76733333,14.512 C3.85666667,14.4706667 3.012,14.288 2.362,13.638 C1.712,12.988 1.52933333,12.1433333 1.488,11.2326667 C1.44933333,10.3893333 1.44133333,10.136 1.44133333,8 C1.44133333,5.864 1.44933333,5.61066667 1.488,4.76733333 C1.52933333,3.85666667 1.712,3.012 2.362,2.362 C3.012,1.712 3.85666667,1.52933333 4.76733333,1.488 C5.61066667,1.44933333 5.864,1.44133333 8,1.44133333 Z M8,0 C5.82733333,0 5.55466667,0.00933333333 4.70133333,0.048 C3.40133333,0.107333333 2.25933333,0.426 1.34266667,1.34266667 C0.426,2.25933333 0.107333333,3.40133333 0.048,4.70133333 C0.00933333333,5.55466667 0,5.82733333 0,8 C0,10.1726667 0.00933333333,10.4453333 0.048,11.2986667 C0.107333333,12.5986667 0.426,13.7406667 1.34266667,14.6573333 C2.25933333,15.574 3.40133333,15.8926667 4.70133333,15.952 C5.55466667,15.9906667 5.82733333,16 8,16 C10.1726667,16 10.4453333,15.9906667 11.2986667,15.952 C12.5986667,15.8926667 13.7406667,15.574 14.6573333,14.6573333 C15.574,13.7406667 15.8926667,12.5986667 15.952,11.2986667 C15.9906667,10.4453333 16,10.1726667 16,8 C16,5.82733333 15.9906667,5.55466667 15.952,4.70133333 C15.8926667,3.40133333 15.574,2.25933333 14.6573333,1.34266667 C13.7406667,0.426 12.5986667,0.107333333 11.2986667,0.048 C10.4453333,0.00933333333 10.1726667,0 8,0 Z" id="Shape"></path>
                <path d="M8,3.892 C5.73133333,3.892 3.892,5.73133333 3.892,8 C3.892,10.2686667 5.73133333,12.108 8,12.108 C10.2686667,12.108 12.108,10.2686667 12.108,8 C12.108,5.73133333 10.2686667,3.892 8,3.892 Z M8,10.6666667 C6.52733333,10.6666667 5.33333333,9.47266667 5.33333333,8 C5.33333333,6.52733333 6.52733333,5.33333333 8,5.33333333 C9.47266667,5.33333333 10.6666667,6.52733333 10.6666667,8 C10.6666667,9.47266667 9.47266667,10.6666667 8,10.6666667 Z" id="Shape"></path>
                <circle id="Oval" cx="12.2706667" cy="3.72933333" r="1"></circle>
            </g>
        </g>
    </g>
</svg>