<?xml version="1.0" encoding="UTF-8"?>
<svg width="31px" height="41px" viewBox="0 0 31 41" version="1.1" xmlns="http://www.w3.org/2000/svg" xmlns:xlink="http://www.w3.org/1999/xlink">
    <!-- Generator: Sketch 48.2 (47327) - http://www.bohemiancoding.com/sketch -->
    <title>pin</title>
    <desc>Created with Sketch.</desc>
    <defs>
        <polygon id="path-1" points="5.10062686 0.098630137 10.1218009 0.098630137 10.1218009 12 5.10062686 12 0.0794528182 12 0.0794528182 0.098630137 5.10062686 0.098630137"></polygon>
    </defs>
    <g id="icon/pin" stroke="none" stroke-width="1" fill="none" fill-rule="evenodd">
        <g id="pin">
            <g id="Group">
                <g id="pin-3" fill="#57A900" fill-rule="nonzero">
                    <path d="M15.5,0 C7.88129412,0 0,5.79375556 0,15.4888889 C0,25.7707778 14.2481471,40.1271556 14.8553824,40.7330444 C15.0258824,40.9043333 15.2583824,41 15.5,41 C15.7416176,41 15.9741176,40.9043333 16.1446176,40.7330444 C16.7518529,40.1271556 31,25.7707778 31,15.4888889 C31,5.79375556 23.1187059,0 15.5,0 Z" id="Shape"></path>
                </g>
                <g id="icon/logo-white" transform="translate(6.000000, 10.000000)">
                    <g>
                        <g id="Group-3" transform="translate(8.740000, 0.000000)">
                            <mask id="mask-2" fill="white">
                                <use xlink:href="#path-1"></use>
                            </mask>
                            <g id="Clip-2"></g>
                            <path d="M5.660271,12 C4.86201191,12 4.121271,11.8463014 3.437271,11.539726 C2.753271,11.2329863 2.16254373,10.8138082 1.66508918,10.2821918 C1.16763464,9.75073973 0.778998273,9.12328767 0.499180091,8.4 C0.219361909,7.67671233 0.0794528182,6.90410959 0.0794528182,6.08219178 L0.0794528182,6.04931507 C0.0794528182,5.22739726 0.219361909,4.45758904 0.499180091,3.73972603 C0.778998273,3.0220274 1.16763464,2.39178082 1.66508918,1.84931507 C2.16254373,1.30684932 2.758401,0.879452055 3.45281645,0.567123288 C4.14707645,0.254794521 4.91408918,0.098630137 5.75354373,0.098630137 C6.26110282,0.098630137 6.72513464,0.142520548 7.14486191,0.230136986 C7.56458918,0.317917808 7.94545282,0.438410959 8.28745282,0.591780822 C8.62945282,0.745315068 8.94549191,0.931561644 9.23572555,1.15068493 C9.52564827,1.3699726 9.79536191,1.6109589 10.0440892,1.8739726 L8.52047918,3.73150685 C8.09562191,3.32613699 7.66299191,3.00821918 7.22258918,2.77808219 C6.78187555,2.54794521 6.28721918,2.43287671 5.73799827,2.43287671 C5.28173918,2.43287671 4.85968009,2.52608219 4.47104373,2.71232877 C4.08240736,2.89873973 3.74818009,3.15616438 3.46836191,3.48493151 C3.18854373,3.81369863 2.97090736,4.19457534 2.81545282,4.62739726 C2.65999827,5.06038356 2.582271,5.52328767 2.582271,6.01643836 L2.582271,6.04931507 C2.582271,6.54246575 2.65999827,7.00832877 2.81545282,7.44657534 C2.97090736,7.8849863 3.185901,8.26849315 3.46058918,8.59726027 C3.73496645,8.9260274 4.06686191,9.18641096 4.45549827,9.37808219 C4.84413464,9.56991781 5.27163464,9.66575342 5.73799827,9.66575342 C6.35981645,9.66575342 6.88571918,9.54526027 7.31586191,9.30410959 C7.74584918,9.06312329 8.17334918,8.73435616 8.59820645,8.31780822 L10.1218165,9.94520548 C9.84184282,10.2631233 9.55160918,10.548 9.251271,10.8 C8.95046645,11.0521644 8.62168009,11.2684932 8.26413464,11.4493151 C7.90658918,11.630137 7.51531009,11.7672329 7.09045282,11.860274 C6.66528464,11.9531507 6.18881645,12 5.660271,12" id="Fill-1" fill="#FEFEFE" mask="url(#mask-2)"></path>
                        </g>
                        <g id="Group-6" fill="#FEFEFE">
                            <path d="M3.07807892,11.8602575 C2.64668538,11.7672164 2.24938662,11.6301205 1.88634046,11.4492986 C1.52329431,11.2684767 1.18944969,11.0521479 0.884017385,10.7999836 C0.578900769,10.5479836 0.284202,10.2631068 7.89230769e-05,9.94518904 L1.54697123,8.31779178 C1.97852262,8.73433973 2.41259954,9.06310685 2.849202,9.30409315 C3.28596231,9.54524384 3.81995585,9.66573699 4.45134046,9.66573699 C4.92487892,9.66573699 5.35895585,9.56990137 5.75357123,9.37806575 C6.14818662,9.18639452 6.48503031,8.92601096 6.76378662,8.59724384 C7.04270077,8.26847671 7.261002,7.88496986 7.41884815,7.4465589 C7.57669431,7.00831233 7.65561738,6.54244932 7.65561738,6.04929863 L7.65561738,6.01642192 C7.65561738,5.52327123 7.57669431,5.06036712 7.41884815,4.62738082 C7.261002,4.1945589 7.04001738,3.81368219 6.75589431,3.48491507 C6.47177123,3.15614795 6.132402,2.89872329 5.73778662,2.71231233 C5.34317123,2.52606575 4.91446108,2.43286027 4.45134046,2.43286027 C3.89367,2.43286027 3.39124569,2.54792877 2.94390969,2.77806575 C2.49673154,3.00820274 2.05744569,3.32612055 1.62589431,3.73149041 L0.079002,1.87395616 C0.331555846,1.61094247 0.605261077,1.36995616 0.899802,1.15066849 C1.19450077,0.931545205 1.515402,0.74529863 1.86266354,0.591764384 C2.20992508,0.438394521 2.59664815,0.31790137 3.02283277,0.230120548 C3.44901738,0.14250411 3.92003031,0.0986136986 4.43555585,0.0986136986 C5.28792508,0.0986136986 6.066738,0.254778082 6.77167892,0.567106849 C7.47677769,0.879435616 8.081802,1.30683288 8.58690969,1.84929863 C9.09201738,2.39176438 9.48663277,3.02201096 9.77075585,3.73970959 C10.0548789,4.4575726 10.1969405,5.22738082 10.1969405,6.04929863 L10.1969405,6.08217534 C10.1969405,6.90409315 10.0548789,7.67669589 9.77075585,8.39998356 C9.48663277,9.12327123 9.09201738,9.75072329 8.58690969,10.2821753 C8.081802,10.8137918 7.48198662,11.2329699 6.78746354,11.5397096 C6.09294046,11.8464493 5.34064569,11.9999836 4.53026354,11.9999836 C3.99358662,11.9999836 3.50963031,11.9531342 3.07807892,11.8602575" id="Fill-4"></path>
                        </g>
                    </g>
                </g>
            </g>
        </g>
    </g>
</svg>