<?xml version="1.0" encoding="UTF-8"?>
<svg width="87px" height="80px" viewBox="0 0 87 80" version="1.1" xmlns="http://www.w3.org/2000/svg" xmlns:xlink="http://www.w3.org/1999/xlink">
    <!-- Generator: Sketch 48.2 (47327) - http://www.bohemiancoding.com/sketch -->
    <title>icon/programming</title>
    <desc>Created with Sketch.</desc>
    <defs></defs>
    <g id="Symbols" stroke="none" stroke-width="1" fill="none" fill-rule="evenodd">
        <g id="icon/programming">
            <g id="Group-12">
                <g id="tv-2" fill="#57A900" fill-rule="nonzero">
                    <polygon id="Shape" points="44.402439 75.6219512 43.402439 75.6219512 43.402439 62.9146341 44.402439 62.9146341"></polygon>
                    <path d="M20.6735002,79.4886286 L20.2092619,79.6743239 L19.8378712,78.7458472 L20.3021095,78.5601519 C20.3831799,78.5277238 20.5376987,78.468672 20.7628175,78.3868106 C21.1350603,78.2514496 21.5721893,78.1009151 22.0713574,77.9390227 C23.4941721,77.4775693 25.1308566,77.0165314 26.9586511,76.5864621 C32.1772821,75.358549 37.8859146,74.6219512 43.902439,74.6219512 C49.9189635,74.6219512 55.6275959,75.358549 60.846227,76.5864621 C62.6740214,77.0165314 64.3107059,77.4775693 65.7335206,77.9390227 C66.2326888,78.1009151 66.6698178,78.2514496 67.0420606,78.3868106 C67.2671794,78.468672 67.4216982,78.5277238 67.5027685,78.5601519 L67.9670069,78.7458472 L67.5956162,79.6743239 L67.1313778,79.4886286 C67.0600091,79.4600811 66.9153664,79.4048036 66.7003175,79.326604 C66.3389475,79.1951967 65.9128905,79.0484751 65.4250159,78.8902456 C64.0277087,78.4370648 62.417442,77.9834686 60.6171877,77.5598793 C55.469965,76.3487681 49.8371341,75.6219512 43.902439,75.6219512 C37.9677439,75.6219512 32.334913,76.3487681 27.1876904,77.5598793 C25.3874361,77.9834686 23.7771693,78.4370648 22.3798621,78.8902456 C21.8919876,79.0484751 21.4659306,79.1951967 21.1045606,79.326604 C20.8895117,79.4048036 20.7448689,79.4600811 20.6735002,79.4886286 Z" id="Shape"></path>
                    <path d="M1.47560976,1.47560976 L1.47560976,62.9146341 L86.3292683,62.9146341 L86.3292683,1.47560976 L1.47560976,1.47560976 Z M87.3292683,0.475609756 L87.3292683,63.9146341 L0.475609756,63.9146341 L0.475609756,0.475609756 L87.3292683,0.475609756 Z" id="Rectangle-path"></path>
                    <polygon id="Shape" points="0.475609756 52.2073171 0.475609756 51.2073171 87.3292683 51.2073171 87.3292683 52.2073171"></polygon>
                </g>
                <g id="Group-11" transform="translate(8.000000, 12.000000)" fill="#A4A7AA">
                    <rect id="Rectangle-5" x="5" y="1" width="27" height="1"></rect>
                    <rect id="Rectangle-5-Copy-6" x="35" y="1" width="25" height="1"></rect>
                    <rect id="Rectangle-5-Copy" x="9" y="10" width="10" height="1"></rect>
                    <rect id="Rectangle-5-Copy-4" x="15" y="18" width="23" height="1"></rect>
                    <rect id="Rectangle-5-Copy-7" x="18" y="26" width="15" height="1"></rect>
                    <rect id="Rectangle-5-Copy-5" x="41" y="18" width="23" height="1"></rect>
                    <rect id="Rectangle-5-Copy-9" x="33" y="26" width="12" height="1"></rect>
                    <rect id="Rectangle-5-Copy-2" x="22" y="10" width="5" height="1"></rect>
                    <rect id="Rectangle-5-Copy-3" x="30" y="10" width="5" height="1"></rect>
                    <path d="M0.497,8 L0,8 L3.248,14.482 L3.745,14.482 L0.497,8 Z M4.86266679,12.445 L7.55766679,11.129 L4.86266679,9.806 L4.86266679,9.26 L8.14566679,10.891 L8.14566679,11.353 L4.86266679,12.984 L4.86266679,12.445 Z" id="&lt;/&gt;" transform="translate(4.072833, 11.241000) scale(-1, 1) translate(-4.072833, -11.241000) "></path>
                    <path d="M9.497,23 L9,23 L12.248,29.482 L12.745,29.482 L9.497,23 Z M13.8626668,27.445 L16.5576668,26.129 L13.8626668,24.806 L13.8626668,24.26 L17.1456668,25.891 L17.1456668,26.353 L13.8626668,27.984 L13.8626668,27.445 Z" id="&lt;/&gt;-copy" transform="translate(13.072833, 26.241000) scale(-1, 1) translate(-13.072833, -26.241000) "></path>
                    <polygon id="Path" points="0 2.093 0 1.631 3.283 0 3.283 0.539 0.588 1.855 3.283 3.178 3.283 3.724"></polygon>
                    <polygon id="Path-Copy" points="9 19.093 9 18.631 12.283 17 12.283 17.539 9.588 18.855 12.283 20.178 12.283 20.724"></polygon>
                    <polygon id="Path-Copy-2" transform="translate(64.641500, 1.862000) scale(-1, 1) translate(-64.641500, -1.862000) " points="63 2.093 63 1.631 66.283 0 66.283 0.539 63.588 1.855 66.283 3.178 66.283 3.724"></polygon>
                    <polygon id="Path-Copy-4" transform="translate(68.641500, 18.862000) scale(-1, 1) translate(-68.641500, -18.862000) " points="67 19.093 67 18.631 70.283 17 70.283 17.539 67.588 18.855 70.283 20.178 70.283 20.724"></polygon>
                    <polygon id="Path-Copy-6" transform="translate(52.641500, 26.862000) scale(-1, 1) translate(-52.641500, -26.862000) " points="51 27.093 51 26.631 54.283 25 54.283 25.539 51.588 26.855 54.283 28.178 54.283 28.724"></polygon>
                    <polygon id="Path-Copy-3" transform="translate(39.641500, 10.862000) scale(-1, 1) translate(-39.641500, -10.862000) " points="38 11.093 38 10.631 41.283 9 41.283 9.539 38.588 10.855 41.283 12.178 41.283 12.724"></polygon>
                </g>
            </g>
        </g>
    </g>
</svg>