<?xml version="1.0" encoding="UTF-8"?>
<svg width="23px" height="23px" viewBox="0 0 23 23" version="1.1" xmlns="http://www.w3.org/2000/svg" xmlns:xlink="http://www.w3.org/1999/xlink">
    <!-- Generator: Sketch 48.2 (47327) - http://www.bohemiancoding.com/sketch -->
    <title>icon/projects</title>
    <desc>Created with Sketch.</desc>
    <defs></defs>
    <g id="Project-page-1440px" stroke="none" stroke-width="1" fill="none" fill-rule="evenodd" transform="translate(-19.000000, -78.000000)">
        <g id="icon/projects" transform="translate(19.000000, 78.000000)" fill="#FFFFFF">
            <g id="microsoft">
                <path d="M1,1 L1,9 L9,9 L9,1 L1,1 Z M10,0 L10,10 L0,10 L0,0 L10,0 Z" id="Rectangle-path" fill-rule="nonzero"></path>
                <path d="M14,0.999999999 L14,9 L22,9 L22,0.999999999 L14,0.999999999 Z M23,-8.30070179e-10 L23,10 L13,10 L13,-8.30070179e-10 L23,-8.30070179e-10 Z" id="Rectangle-path" fill-rule="nonzero"></path>
                <path d="M1,14 L1,22 L9,22 L9,14 L1,14 Z M10,13 L10,23 L0,23 L0,13 L10,13 Z" id="Rectangle-path" fill-rule="nonzero"></path>
                <path d="M14,22 L22,22 L22,14 L14,14 L14,22 Z M23,13 L23,23 L13,23 L13,13 L23,13 Z" id="Rectangle-path" fill-rule="nonzero"></path>
            </g>
        </g>
    </g>
</svg>