<?xml version="1.0" encoding="UTF-8"?>
<svg width="25px" height="30px" viewBox="0 0 25 30" version="1.1" xmlns="http://www.w3.org/2000/svg" xmlns:xlink="http://www.w3.org/1999/xlink">
    <!-- Generator: Sketch 48.2 (47327) - http://www.bohemiancoding.com/sketch -->
    <title>icon/quality-assurance</title>
    <desc>Created with Sketch.</desc>
    <defs></defs>
    <g id="Symbols" stroke="none" stroke-width="1" fill="none" fill-rule="evenodd">
        <g id="icon/quality-assurance" fill="#A4A7AA" fill-rule="nonzero">
            <g id="todo">
                <polygon id="Shape" points="20.5 5.5 20.5 4.5 24.8333333 4.5 24.8333333 30.1666667 -0.166666667 30.1666667 -0.166666667 4.5 4.16666667 4.5 4.16666667 5.5 0.833333333 5.5 0.833333333 29.1666667 23.8333333 29.1666667 23.8333333 5.5"></polygon>
                <polygon id="Shape" points="11 20.2928932 17 14.2928932 17.7071068 15 11 21.7071068 6.95955989 17.6666667 7.66666667 16.9595599"></polygon>
                <path d="M18.8333333,3.16666667 L18.8333333,8.16666667 L5.83333333,8.16666667 L5.83333333,3.16666667 L8.53232572,3.16666667 C8.77739115,1.28603202 10.3859813,-0.166666667 12.3333333,-0.166666667 C14.2806854,-0.166666667 15.8892755,1.28603202 16.134341,3.16666667 L18.8333333,3.16666667 Z M17.8333333,4.16666667 L15.1666667,4.16666667 L15.1666667,3.66666667 C15.1666667,2.10214237 13.8978576,0.833333333 12.3333333,0.833333333 C10.768809,0.833333333 9.5,2.10214237 9.5,3.66666667 L9.5,4.16666667 L6.83333333,4.16666667 L6.83333333,7.16666667 L17.8333333,7.16666667 L17.8333333,4.16666667 Z" id="Shape"></path>
            </g>
        </g>
    </g>
</svg>