<?xml version="1.0" encoding="UTF-8"?>
<svg width="32px" height="50px" viewBox="0 0 32 50" version="1.1" xmlns="http://www.w3.org/2000/svg" xmlns:xlink="http://www.w3.org/1999/xlink">
    <!-- Generator: Sketch 48.2 (47327) - http://www.bohemiancoding.com/sketch -->
    <title>icon/touch</title>
    <desc>Created with Sketch.</desc>
    <defs></defs>
    <g id="Symbols" stroke="none" stroke-width="1" fill="none" fill-rule="evenodd">
        <g id="icon/touch" fill="#4FA438" fill-rule="nonzero">
            <g id="tap-01">
                <path d="M7.35218345,18.9783185 L7.0477996,19.9308679 C2.83729877,18.5854171 -0.0762711864,14.6589586 -0.0762711864,10.1694915 C-0.0762711864,4.51091695 4.51091695,-0.0762711864 10.1694915,-0.0762711864 C15.8280661,-0.0762711864 20.4152542,4.51091695 20.4152542,10.1694915 C20.4152542,14.6603916 17.4998332,18.5878077 13.2874306,19.9320626 L12.9834169,18.979395 C16.7841575,17.7665089 19.4152542,14.2221112 19.4152542,10.1694915 C19.4152542,5.0632017 15.2757814,0.923728814 10.1694915,0.923728814 C5.0632017,0.923728814 0.923728814,5.0632017 0.923728814,10.1694915 C0.923728814,14.220819 3.55315472,17.7643521 7.35218345,18.9783185 Z" id="Shape"></path>
                <polygon id="Shape" points="6.70338983 28.7372797 7.70338983 28.7372797 7.70338983 34.8220254 6.70338983 34.8220254"></polygon>
                <path d="M13.6355932,28.0423729 L12.6355932,28.0423729 L12.6355932,25.4237288 C12.6355932,23.5094566 14.1874197,21.9576271 16.1016949,21.9576271 C18.0159671,21.9576271 19.5677966,23.5094536 19.5677966,25.4237288 L19.5677966,28.0423729 L18.5677966,28.0423729 L18.5677966,25.4237288 C18.5677966,24.0617387 17.4636828,22.9576271 16.1016949,22.9576271 C14.7397048,22.9576271 13.6355932,24.0617409 13.6355932,25.4237288 L13.6355932,28.0423729 Z" id="Shape"></path>
                <path d="M19.5677966,28.8900085 L18.5677966,28.8900085 L18.5677966,27.1186441 C18.5677966,25.2043719 20.119623,23.6525424 22.0338983,23.6525424 C23.9481705,23.6525424 25.5,25.2043688 25.5,27.1186441 L25.5,29.7372881 L24.5,29.7372881 L24.5,27.1186441 C24.5,25.756654 23.3958862,24.6525424 22.0338983,24.6525424 C20.6719082,24.6525424 19.5677966,25.7566562 19.5677966,27.1186441 L19.5677966,28.8900085 Z" id="Shape"></path>
                <path d="M30.0177543,28.7130332 C30.1961203,27.4645055 29.2273102,26.3474576 27.9661017,26.3474576 C26.6041116,26.3474576 25.5,27.4515714 25.5,28.8135593 L25.5,29.3135593 L24.5,29.3135593 L24.5,28.8135593 C24.5,26.8992871 26.0518264,25.3474576 27.9661017,25.3474576 C29.8358603,25.3474576 31.2721338,27.0034955 31.0077036,28.8544563 L27.9760207,50.0762712 L6.70338983,50.0762712 L6.70338983,49.5762712 C6.70338983,48.3955526 6.10597658,47.3690453 3.83112627,44.2005038 C3.17305686,43.2839071 2.7705332,42.701069 2.38595848,42.0898685 C1.32196842,40.3988805 0.771186441,39.0179865 0.771186441,37.7118644 L0.771186441,31.7796695 C0.771186441,30.0994132 2.13330138,28.7372983 3.81355807,28.7372881 L6.70338983,28.7372809 L6.70338983,11.8644068 C6.70338983,9.95013152 8.25521933,8.39830508 10.1694915,8.39830508 C12.0837695,8.39830508 13.6355932,9.95012881 13.6355932,11.8644068 L13.6355932,27.1949153 L12.6355932,27.1949153 L12.6355932,11.8644068 C12.6355932,10.5024136 11.5314847,9.39830508 10.1694915,9.39830508 C8.80750363,9.39830508 7.70338983,10.5024167 7.70338983,11.8644068 L7.70338983,29.7372784 L3.81356234,29.7372881 C2.68558845,29.7372949 1.77118644,30.651697 1.77118644,31.7796695 L1.77118644,37.7118644 C1.77118644,38.7864639 2.25996538,40.0119069 3.23235063,41.5573083 C3.60328566,42.1468314 3.99646483,42.7161391 4.64345,43.617297 C6.80962347,46.6344672 7.53910044,47.8073592 7.67751548,49.0762712 L27.1087251,49.0762712 L30.0177543,28.7130332 Z" id="Shape"></path>
            </g>
        </g>
    </g>
</svg>