<?xml version="1.0" encoding="UTF-8"?>
<svg width="20px" height="16px" viewBox="0 0 20 16" version="1.1" xmlns="http://www.w3.org/2000/svg" xmlns:xlink="http://www.w3.org/1999/xlink">
    <!-- Generator: Sketch 48.2 (47327) - http://www.bohemiancoding.com/sketch -->
    <title>icon/twitter</title>
    <desc>Created with Sketch.</desc>
    <defs></defs>
    <g id="Symbols" stroke="none" stroke-width="1" fill="none" fill-rule="evenodd">
        <g id="icon/twitter" fill="#A4A7AA" fill-rule="nonzero">
            <g id="logo-twitter">
                <path d="M19.2,2.08 C18.48,2.4 17.76,2.64 16.96,2.72 C17.76,2.24 18.4,1.44 18.72,0.56 C17.92,1.04 17.12,1.36 16.24,1.52 C15.52,0.72 14.48,0.24 13.36,0.24 C11.2,0.24 9.44,2 9.44,4.16 C9.44,4.48 9.44,4.8 9.52,5.04 C6.16,4.88 3.28,3.28 1.36,0.88 C0.96,1.52 0.8,2.16 0.8,2.88 C0.8,4.24 1.52,5.44 2.56,6.16 C1.92,6.16 1.28,6 0.8,5.68 C0.8,5.68 0.8,5.68 0.8,5.76 C0.8,7.68 2.16,9.28 3.92,9.6 C3.6,9.68 3.28,9.76 2.88,9.76 C2.64,9.76 2.4,9.76 2.16,9.68 C2.64,11.28 4.08,12.4 5.84,12.4 C4.48,13.44 2.8,14.08 0.96,14.08 C0.64,14.08 0.32,14.08 1.77635684e-15,14 C1.76,15.12 3.84,15.76 6,15.76 C13.28,15.76 17.2,9.76 17.2,4.56 C17.2,4.4 17.2,4.24 17.2,4.08 C18,3.52 18.64,2.8 19.2,2.08 Z" id="Shape"></path>
            </g>
        </g>
    </g>
</svg>